<?xml version="1.0" encoding="utf-8"?>
<!-- Generator: Adobe Illustrator 12.0.1, SVG Export Plug-In . SVG Version: 6.00 Build 51448)  -->
<!DOCTYPE svg PUBLIC "-//W3C//DTD SVG 1.1//EN" "http://www.w3.org/Graphics/SVG/1.1/DTD/svg11.dtd" [
	<!ENTITY ns_svg "http://www.w3.org/2000/svg">
	<!ENTITY ns_xlink "http://www.w3.org/1999/xlink">
]>
<svg  version="1.1" id="Layer_1" xmlns="&ns_svg;" xmlns:xlink="&ns_xlink;" width="198" height="234" viewBox="0 0 198 234"
	 overflow="visible" enable-background="new 0 0 198 234" xml:space="preserve">
<g>
	<rect fill-rule="evenodd" clip-rule="evenodd" fill="#FFFFFF" width="198" height="234"/>
	<path fill-rule="evenodd" clip-rule="evenodd" fill="#E9E4D1" d="M0,0h198v156H0V0z M0,0"/>
	<rect y="156" fill-rule="evenodd" clip-rule="evenodd" fill="#66A3D3" width="198" height="78"/>
	<g>
		<path fill="#414142" d="M31.593,26.527c-0.188,0.023-0.44,0.061-0.757,0.111s-0.573,0.123-0.769,0.217
			c-0.234,0.117-0.401,0.283-0.499,0.498s-0.146,0.467-0.146,0.756v1.289c0,0.938,0.006,1.57,0.018,1.898s0.025,0.598,0.041,0.809
			c-1.039,0.469-2.074,0.828-3.105,1.078s-2.043,0.375-3.035,0.375c-1.062,0-2.086-0.199-3.07-0.599s-1.844-0.966-2.578-1.702
			c-0.742-0.743-1.332-1.646-1.77-2.711s-0.656-2.254-0.656-3.568c0-1.268,0.209-2.443,0.627-3.526
			c0.418-1.084,1.01-2.024,1.775-2.823c0.742-0.782,1.627-1.391,2.654-1.825s2.127-0.651,3.299-0.651
			c0.938,0,1.754,0.115,2.449,0.346s1.309,0.506,1.84,0.826l0.48-0.797h0.938l0.109,5.812h-0.969
			c-0.164-0.642-0.367-1.273-0.609-1.896s-0.555-1.179-0.938-1.673c-0.383-0.492-0.85-0.886-1.4-1.179
			c-0.551-0.294-1.209-0.44-1.975-0.44c-0.836,0-1.582,0.17-2.238,0.511c-0.656,0.34-1.227,0.847-1.711,1.52
			c-0.477,0.649-0.844,1.459-1.102,2.429s-0.387,2.053-0.387,3.25c0,1.057,0.127,2.052,0.381,2.986s0.623,1.742,1.108,2.423
			c0.484,0.696,1.09,1.244,1.817,1.643c0.727,0.399,1.551,0.599,2.474,0.599c0.688,0,1.315-0.105,1.881-0.316
			c0.567-0.211,0.968-0.433,1.202-0.667c0.062-0.406,0.096-0.816,0.1-1.229c0.004-0.414,0.006-0.766,0.006-1.055v-0.913
			c0-0.328-0.045-0.619-0.135-0.872c-0.09-0.254-0.276-0.439-0.558-0.557c-0.258-0.117-0.608-0.205-1.05-0.264
			s-0.789-0.096-1.039-0.111v-0.859h7.297V26.527z"/>
		<path fill="#414142" d="M43.143,30.438c-0.484,0.924-1.133,1.659-1.945,2.206c-0.812,0.548-1.746,0.821-2.801,0.821
			c-0.93,0-1.744-0.164-2.443-0.492c-0.699-0.329-1.275-0.775-1.729-1.338c-0.453-0.563-0.791-1.221-1.014-1.972
			s-0.334-1.545-0.334-2.382c0-0.751,0.119-1.488,0.357-2.212s0.588-1.375,1.049-1.954c0.445-0.555,0.998-1.003,1.658-1.343
			c0.66-0.341,1.4-0.511,2.221-0.511c0.844,0,1.566,0.133,2.168,0.398c0.602,0.267,1.09,0.631,1.465,1.092
			c0.359,0.438,0.627,0.955,0.803,1.549c0.176,0.595,0.264,1.24,0.264,1.937v0.774h-7.656c0,0.76,0.072,1.449,0.217,2.068
			s0.373,1.164,0.685,1.635c0.304,0.454,0.703,0.812,1.195,1.075c0.492,0.263,1.077,0.394,1.757,0.394
			c0.694,0,1.294-0.163,1.798-0.488c0.503-0.326,0.989-0.914,1.458-1.762L43.143,30.438z M40.549,26.027
			c0-0.438-0.037-0.905-0.111-1.404c-0.074-0.5-0.193-0.918-0.357-1.253c-0.18-0.359-0.426-0.651-0.738-0.878
			s-0.715-0.34-1.207-0.34c-0.82,0-1.502,0.342-2.045,1.024s-0.838,1.634-0.885,2.851H40.549z"/>
		<path fill="#414142" d="M56.033,27.258c0,0.813-0.129,1.613-0.387,2.399s-0.625,1.453-1.101,2.001
			c-0.539,0.625-1.164,1.091-1.875,1.396c-0.711,0.305-1.507,0.457-2.39,0.457c-0.734,0-1.433-0.139-2.097-0.416
			c-0.664-0.278-1.254-0.683-1.769-1.215c-0.508-0.524-0.912-1.164-1.212-1.918c-0.301-0.756-0.451-1.602-0.451-2.541
			c0-1.807,0.525-3.285,1.576-4.436c1.05-1.149,2.427-1.725,4.129-1.725c1.616,0,2.95,0.546,4,1.637
			C55.507,23.99,56.033,25.443,56.033,27.258z M53.611,27.281c0-0.587-0.059-1.207-0.176-1.86s-0.293-1.207-0.528-1.661
			c-0.25-0.484-0.579-0.874-0.985-1.167c-0.407-0.294-0.903-0.44-1.489-0.44c-0.602,0-1.116,0.148-1.542,0.446
			c-0.426,0.297-0.772,0.704-1.038,1.22c-0.25,0.479-0.426,1.021-0.528,1.632s-0.152,1.201-0.152,1.772
			c0,0.751,0.061,1.445,0.182,2.083s0.314,1.207,0.581,1.708c0.266,0.5,0.6,0.894,1.002,1.18c0.402,0.285,0.901,0.428,1.495,0.428
			c0.977,0,1.751-0.473,2.322-1.42S53.611,28.947,53.611,27.281z"/>
		<path fill="#414142" d="M66.836,23.08c0,0.399-0.098,0.753-0.293,1.062c-0.196,0.309-0.497,0.463-0.904,0.463
			c-0.438,0-0.773-0.113-1.003-0.34c-0.231-0.228-0.346-0.479-0.346-0.752c0-0.172,0.014-0.329,0.041-0.47s0.053-0.282,0.076-0.423
			c-0.365,0-0.792,0.148-1.28,0.445c-0.488,0.298-0.903,0.721-1.244,1.268v6.725c0,0.273,0.053,0.496,0.159,0.668
			c0.105,0.172,0.271,0.301,0.499,0.387c0.195,0.078,0.448,0.137,0.757,0.176s0.577,0.066,0.804,0.082v0.781h-6.109v-0.781
			c0.18-0.016,0.366-0.031,0.558-0.047c0.191-0.016,0.358-0.047,0.499-0.094c0.219-0.069,0.382-0.192,0.487-0.367
			c0.105-0.176,0.159-0.403,0.159-0.684v-7.117c0-0.242-0.057-0.479-0.17-0.713c-0.113-0.234-0.271-0.421-0.475-0.562
			c-0.148-0.093-0.324-0.161-0.527-0.204s-0.422-0.072-0.656-0.088v-0.781l3.851-0.266l0.165,0.164v1.63h0.058
			c0.483-0.633,1.021-1.113,1.612-1.442c0.592-0.328,1.133-0.492,1.624-0.492c0.49,0,0.89,0.16,1.197,0.481
			C66.682,22.11,66.836,22.541,66.836,23.08z"/>
		<path fill="#414142" d="M78.025,31.961c0.313,0.297,0.56,0.632,0.739,1.007c0.18,0.374,0.27,0.839,0.27,1.394
			s-0.122,1.076-0.364,1.564c-0.242,0.487-0.609,0.911-1.102,1.27c-0.523,0.367-1.149,0.652-1.876,0.855
			c-0.727,0.203-1.625,0.305-2.696,0.305c-1.75,0-3.06-0.256-3.927-0.768c-0.868-0.511-1.301-1.259-1.301-2.242
			c0-0.796,0.312-1.425,0.935-1.885c0.624-0.461,1.419-0.711,2.385-0.75v-0.164c-0.235-0.07-0.478-0.158-0.728-0.265
			c-0.25-0.105-0.466-0.229-0.646-0.37c-0.204-0.164-0.368-0.357-0.493-0.58c-0.125-0.224-0.188-0.5-0.188-0.828
			c0-0.415,0.147-0.797,0.441-1.145c0.293-0.349,0.738-0.648,1.333-0.898v-0.176c-0.75-0.352-1.333-0.803-1.747-1.354
			c-0.415-0.551-0.622-1.19-0.622-1.917c0-1.094,0.408-1.993,1.225-2.696c0.817-0.704,1.862-1.056,3.136-1.056
			c0.352,0,0.702,0.035,1.049,0.105s0.701,0.16,1.061,0.27h4.028v1.125h-2.715v0.07c0.289,0.336,0.504,0.708,0.645,1.114
			c0.141,0.407,0.211,0.806,0.211,1.196c0,1.016-0.413,1.876-1.237,2.58c-0.825,0.703-1.784,1.055-2.878,1.055h-1.419
			c-0.18,0.062-0.368,0.177-0.563,0.341c-0.196,0.165-0.293,0.389-0.293,0.671c0,0.29,0.082,0.512,0.247,0.664
			c0.164,0.153,0.363,0.257,0.599,0.312c0.227,0.062,0.49,0.102,0.792,0.117c0.301,0.016,0.612,0.027,0.933,0.035
			c0.345,0.008,0.815,0.031,1.414,0.07s1.023,0.062,1.273,0.07c0.36,0.016,0.722,0.102,1.085,0.258S77.728,31.688,78.025,31.961z
			 M77.112,34.795c0-0.437-0.102-0.796-0.305-1.076c-0.204-0.281-0.513-0.473-0.928-0.574c-0.219-0.031-0.669-0.066-1.35-0.105
			s-1.472-0.059-2.372-0.059c-0.842,0.164-1.44,0.439-1.795,0.825c-0.354,0.387-0.532,0.884-0.532,1.493
			c0,0.273,0.059,0.534,0.176,0.784s0.321,0.48,0.61,0.69c0.273,0.203,0.641,0.369,1.102,0.498s1.024,0.193,1.688,0.193
			c1.149,0,2.054-0.221,2.714-0.661C76.782,36.362,77.112,35.693,77.112,34.795z M74.847,25.092c0-0.914-0.185-1.644-0.555-2.188
			c-0.37-0.543-0.89-0.814-1.56-0.814c-0.366,0-0.68,0.076-0.941,0.229c-0.261,0.152-0.473,0.369-0.637,0.65
			c-0.155,0.259-0.267,0.569-0.333,0.933c-0.066,0.364-0.099,0.737-0.099,1.12c0,0.868,0.189,1.575,0.567,2.123
			c0.378,0.547,0.866,0.82,1.466,0.82c0.67,0,1.186-0.271,1.548-0.814C74.666,26.606,74.847,25.921,74.847,25.092z"/>
		<path fill="#414142" d="M86.232,33.152h-5.594v-0.781c0.18-0.016,0.366-0.031,0.558-0.047c0.191-0.016,0.358-0.047,0.499-0.094
			c0.219-0.069,0.382-0.192,0.487-0.367c0.105-0.176,0.159-0.403,0.159-0.684v-7.117c0-0.25-0.057-0.478-0.17-0.684
			c-0.113-0.207-0.271-0.38-0.475-0.521c-0.148-0.094-0.363-0.173-0.645-0.239s-0.539-0.107-0.773-0.123v-0.781l4.085-0.266
			l0.165,0.164v9.422c0,0.273,0.052,0.5,0.158,0.68c0.104,0.18,0.27,0.312,0.496,0.398c0.171,0.07,0.338,0.127,0.501,0.17
			s0.346,0.072,0.548,0.088V33.152z M84.764,16.891c0,0.446-0.146,0.836-0.439,1.169s-0.654,0.499-1.084,0.499
			c-0.398,0-0.744-0.158-1.037-0.476s-0.439-0.68-0.439-1.087c0-0.431,0.146-0.807,0.439-1.128s0.639-0.481,1.037-0.481
			c0.445,0,0.811,0.15,1.096,0.452S84.764,16.491,84.764,16.891z"/>
		<path fill="#414142" d="M98.88,32.938c-0.367,0.134-0.689,0.241-0.966,0.324s-0.591,0.124-0.942,0.124
			c-0.609,0-1.095-0.143-1.458-0.428c-0.363-0.285-0.595-0.701-0.696-1.248h-0.07c-0.508,0.562-1.053,0.993-1.634,1.291
			c-0.582,0.298-1.283,0.447-2.103,0.447c-0.867,0-1.58-0.266-2.138-0.798c-0.559-0.532-0.837-1.229-0.837-2.089
			c0-0.446,0.062-0.846,0.187-1.197c0.125-0.353,0.312-0.669,0.562-0.951c0.195-0.234,0.453-0.443,0.773-0.628
			c0.32-0.184,0.621-0.33,0.902-0.44c0.352-0.133,1.063-0.379,2.138-0.738c1.073-0.36,1.797-0.643,2.172-0.846v-1.159
			c0-0.101-0.021-0.296-0.064-0.585s-0.134-0.562-0.275-0.819c-0.156-0.289-0.377-0.54-0.662-0.755s-0.689-0.322-1.211-0.322
			c-0.359,0-0.693,0.061-1.001,0.182c-0.309,0.121-0.525,0.248-0.65,0.381c0,0.156,0.037,0.387,0.111,0.691s0.111,0.586,0.111,0.844
			c0,0.273-0.123,0.523-0.369,0.75s-0.588,0.34-1.025,0.34c-0.391,0-0.678-0.139-0.861-0.416s-0.275-0.589-0.275-0.933
			c0-0.36,0.126-0.704,0.38-1.032s0.584-0.622,0.99-0.88c0.351-0.219,0.776-0.405,1.276-0.558s0.988-0.229,1.464-0.229
			c0.656,0,1.228,0.045,1.716,0.135s0.931,0.283,1.33,0.58c0.398,0.289,0.701,0.682,0.908,1.178s0.311,1.135,0.311,1.916
			c0,1.117-0.01,2.107-0.031,2.971s-0.031,1.807-0.031,2.83c0,0.305,0.052,0.547,0.157,0.727s0.266,0.332,0.483,0.457
			c0.117,0.07,0.301,0.109,0.553,0.117c0.253,0.008,0.511,0.012,0.775,0.012V32.938z M94.794,26.746
			c-0.663,0.196-1.244,0.389-1.743,0.576c-0.499,0.188-0.963,0.424-1.392,0.706c-0.39,0.267-0.698,0.582-0.924,0.946
			c-0.227,0.365-0.339,0.798-0.339,1.3c0,0.651,0.169,1.129,0.509,1.435c0.339,0.307,0.77,0.459,1.292,0.459
			c0.554,0,1.041-0.135,1.462-0.406c0.421-0.27,0.776-0.59,1.064-0.958L94.794,26.746z"/>
	</g>
	<g>
		<path d="M24.259,178.26c-0.313,0.113-0.588,0.205-0.824,0.274s-0.505,0.104-0.804,0.104c-0.52,0-0.934-0.122-1.244-0.365
			c-0.31-0.244-0.508-0.599-0.595-1.066h-0.06c-0.434,0.48-0.9,0.848-1.397,1.1c-0.498,0.252-1.097,0.379-1.798,0.379
			c-0.741,0-1.351-0.228-1.828-0.682c-0.478-0.453-0.716-1.048-0.716-1.783c0-0.381,0.054-0.721,0.16-1.021
			c0.107-0.301,0.268-0.571,0.481-0.812c0.167-0.2,0.388-0.38,0.662-0.536c0.273-0.157,0.531-0.282,0.772-0.376
			c0.301-0.113,0.911-0.323,1.83-0.631c0.919-0.308,1.54-0.548,1.86-0.722v-0.99c0-0.086-0.019-0.253-0.056-0.5
			c-0.037-0.246-0.115-0.479-0.235-0.699c-0.134-0.246-0.323-0.462-0.568-0.645c-0.245-0.184-0.591-0.275-1.04-0.275
			c-0.308,0-0.594,0.052-0.859,0.155c-0.265,0.103-0.451,0.211-0.557,0.324c0,0.134,0.031,0.33,0.095,0.59
			c0.063,0.26,0.095,0.5,0.095,0.72c0,0.233-0.105,0.446-0.314,0.64c-0.21,0.193-0.501,0.29-0.874,0.29
			c-0.333,0-0.578-0.118-0.734-0.355c-0.156-0.236-0.234-0.502-0.234-0.796c0-0.307,0.108-0.601,0.325-0.88
			c0.217-0.281,0.499-0.531,0.846-0.751c0.3-0.187,0.664-0.346,1.091-0.476c0.427-0.13,0.844-0.195,1.251-0.195
			c0.56,0,1.049,0.039,1.466,0.115c0.417,0.077,0.795,0.242,1.136,0.496c0.34,0.248,0.599,0.584,0.775,1.008
			s0.266,0.971,0.266,1.639c0,0.956-0.011,1.804-0.031,2.542c-0.021,0.738-0.031,1.546-0.031,2.421c0,0.261,0.045,0.468,0.135,0.622
			c0.09,0.153,0.228,0.284,0.414,0.391c0.1,0.061,0.258,0.094,0.475,0.101s0.438,0.01,0.664,0.01V178.26z M20.779,172.967
			c-0.568,0.167-1.066,0.331-1.494,0.492c-0.428,0.16-0.826,0.36-1.193,0.602c-0.334,0.228-0.599,0.496-0.792,0.808
			c-0.194,0.311-0.291,0.681-0.291,1.108c0,0.555,0.145,0.963,0.436,1.225c0.29,0.26,0.659,0.391,1.105,0.391
			c0.474,0,0.891-0.115,1.251-0.346s0.664-0.504,0.911-0.818L20.779,172.967z"/>
		<path d="M38.044,173.488c0,1.481-0.468,2.726-1.404,3.733c-0.936,1.007-2.022,1.511-3.259,1.511c-0.542,0-1.075-0.084-1.6-0.25
			c-0.525-0.167-1.018-0.391-1.479-0.671l-0.742,1.155l-0.625-0.141c0.035-0.494,0.059-1.089,0.073-1.783
			c0.014-0.695,0.021-1.366,0.021-2.015v-9.78c0-0.227-0.052-0.454-0.155-0.682c-0.104-0.227-0.236-0.391-0.396-0.491
			c-0.127-0.087-0.34-0.151-0.637-0.195c-0.297-0.043-0.537-0.071-0.717-0.085v-0.641l3.625-0.219l0.14,0.15v6.51l0.07,0.021
			c0.415-0.44,0.868-0.771,1.36-0.991c0.492-0.22,0.975-0.33,1.451-0.33c1.218,0,2.234,0.48,3.051,1.441
			S38.044,171.947,38.044,173.488z M35.95,173.556c0-0.493-0.054-0.997-0.161-1.511c-0.107-0.514-0.274-0.96-0.502-1.34
			c-0.228-0.387-0.525-0.7-0.894-0.94c-0.369-0.24-0.811-0.36-1.326-0.36c-0.469,0-0.879,0.092-1.23,0.275s-0.668,0.432-0.949,0.745
			v5.741c0.04,0.16,0.119,0.348,0.236,0.561s0.276,0.417,0.477,0.61c0.201,0.187,0.429,0.338,0.683,0.455
			c0.254,0.116,0.566,0.175,0.934,0.175c0.817,0,1.477-0.394,1.979-1.18C35.699,176,35.95,174.923,35.95,173.556z"/>
		<path d="M46.83,178.701c-1.43,0-2.548-0.475-3.356-1.423c-0.809-0.948-1.212-2.222-1.212-3.818c0-0.694,0.108-1.345,0.325-1.948
			c0.217-0.605,0.532-1.154,0.946-1.649c0.394-0.474,0.887-0.856,1.481-1.147c0.594-0.29,1.242-0.436,1.942-0.436
			c0.968,0,1.755,0.231,2.363,0.695c0.607,0.463,0.911,1.095,0.911,1.895c0,0.333-0.08,0.628-0.24,0.885
			c-0.159,0.257-0.422,0.385-0.788,0.385c-0.393,0-0.697-0.1-0.914-0.299c-0.216-0.198-0.324-0.421-0.324-0.666
			c0-0.299,0.04-0.605,0.12-0.92c0.08-0.315,0.126-0.546,0.14-0.691c-0.12-0.206-0.298-0.344-0.534-0.413s-0.491-0.104-0.764-0.104
			c-0.32,0-0.624,0.068-0.914,0.205c-0.289,0.137-0.57,0.389-0.844,0.756c-0.246,0.334-0.446,0.785-0.599,1.353
			s-0.229,1.245-0.229,2.033c0,1.241,0.275,2.255,0.825,3.039s1.271,1.177,2.165,1.177c0.646,0,1.188-0.157,1.624-0.473
			c0.437-0.314,0.842-0.787,1.215-1.418l0.64,0.421c-0.441,0.788-1.022,1.412-1.744,1.872
			C48.343,178.471,47.599,178.701,46.83,178.701z"/>
		<path d="M65.135,178.264l-3.439,0.219l-0.15-0.139v-0.915l-0.08-0.02c-0.347,0.388-0.775,0.705-1.285,0.952
			s-1.034,0.371-1.574,0.371c-0.56,0-1.102-0.125-1.625-0.376s-0.978-0.604-1.365-1.058c-0.393-0.461-0.705-1.016-0.935-1.664
			s-0.345-1.364-0.345-2.146c0-0.715,0.123-1.394,0.37-2.035c0.246-0.642,0.586-1.203,1.02-1.685
			c0.406-0.447,0.904-0.806,1.494-1.072c0.59-0.268,1.191-0.401,1.805-0.401c0.46,0,0.911,0.059,1.354,0.176
			s0.825,0.266,1.145,0.445v-3.441c0-0.28-0.047-0.536-0.14-0.768c-0.093-0.23-0.224-0.406-0.39-0.526
			c-0.188-0.127-0.439-0.219-0.756-0.276c-0.317-0.057-0.659-0.098-1.026-0.125v-0.625l4.037-0.219l0.15,0.15v13.319
			c0,0.234,0.045,0.433,0.135,0.597c0.089,0.163,0.221,0.302,0.394,0.415c0.126,0.08,0.309,0.13,0.548,0.15s0.459,0.033,0.658,0.04
			V178.264z M61.525,176.532v-5.779c-0.053-0.173-0.14-0.36-0.26-0.561s-0.27-0.384-0.449-0.551c-0.193-0.167-0.42-0.306-0.68-0.416
			s-0.562-0.165-0.908-0.165c-0.4,0-0.768,0.104-1.104,0.311s-0.634,0.504-0.894,0.892c-0.246,0.374-0.441,0.85-0.584,1.427
			c-0.144,0.578-0.215,1.217-0.215,1.918c0,0.562,0.053,1.07,0.16,1.527c0.106,0.458,0.287,0.884,0.54,1.277
			c0.233,0.374,0.531,0.675,0.894,0.901c0.363,0.228,0.794,0.341,1.294,0.341c0.532,0,0.974-0.117,1.323-0.351
			S61.286,176.812,61.525,176.532z"/>
		<path d="M77.643,176.116c-0.414,0.788-0.967,1.416-1.661,1.884c-0.694,0.467-1.491,0.701-2.392,0.701
			c-0.794,0-1.489-0.141-2.086-0.421c-0.598-0.28-1.089-0.661-1.477-1.143c-0.387-0.48-0.675-1.042-0.865-1.684
			c-0.19-0.641-0.285-1.319-0.285-2.034c0-0.641,0.102-1.271,0.306-1.889c0.203-0.618,0.502-1.174,0.896-1.669
			c0.38-0.474,0.853-0.856,1.417-1.147c0.564-0.29,1.197-0.436,1.897-0.436c0.721,0,1.339,0.113,1.853,0.341
			c0.514,0.227,0.932,0.537,1.252,0.931c0.307,0.374,0.535,0.814,0.686,1.322c0.15,0.507,0.226,1.058,0.226,1.651v0.661h-6.547
			c0,0.65,0.062,1.239,0.186,1.769c0.123,0.529,0.318,0.995,0.585,1.397c0.26,0.389,0.601,0.695,1.021,0.919
			c0.42,0.225,0.921,0.337,1.502,0.337c0.594,0,1.106-0.139,1.537-0.418c0.431-0.277,0.847-0.779,1.247-1.504L77.643,176.116z
			 M75.439,172.342c0-0.372-0.032-0.771-0.096-1.195s-0.165-0.78-0.306-1.065c-0.154-0.306-0.365-0.555-0.633-0.747
			s-0.612-0.289-1.034-0.289c-0.703,0-1.287,0.291-1.752,0.871c-0.465,0.582-0.718,1.391-0.758,2.426H75.439z"/>
		<path d="M88.898,164.133c0,0.3-0.081,0.553-0.241,0.759s-0.403,0.31-0.73,0.31c-0.207,0-0.389-0.043-0.546-0.129
			c-0.157-0.086-0.302-0.202-0.436-0.349c-0.134-0.146-0.257-0.312-0.371-0.497c-0.114-0.186-0.21-0.334-0.291-0.447
			c-0.447,0.02-0.793,0.332-1.036,0.935c-0.244,0.604-0.366,1.564-0.366,2.884v1.01h2.547v0.969h-2.547v7.083
			c0,0.233,0.045,0.423,0.135,0.57c0.09,0.146,0.231,0.257,0.425,0.33c0.16,0.06,0.374,0.108,0.641,0.145
			c0.267,0.037,0.497,0.062,0.69,0.075v0.656H81.57v-0.656c0.154-0.014,0.312-0.026,0.476-0.04c0.163-0.013,0.306-0.04,0.426-0.08
			c0.187-0.06,0.326-0.165,0.416-0.315c0.09-0.149,0.135-0.345,0.135-0.585v-7.183H81.07v-0.969h1.953v-0.63
			c0-1.501,0.389-2.716,1.166-3.646s1.75-1.396,2.917-1.396c0.594,0,1.041,0.116,1.341,0.35
			C88.748,163.518,88.898,163.801,88.898,164.133z"/>
		<path d="M99.441,177.405c0.267,0.254,0.477,0.541,0.629,0.861c0.154,0.32,0.23,0.718,0.23,1.191s-0.104,0.919-0.31,1.337
			c-0.207,0.417-0.52,0.779-0.94,1.087c-0.447,0.313-0.98,0.558-1.6,0.731c-0.62,0.173-1.387,0.26-2.3,0.26
			c-1.493,0-2.61-0.219-3.35-0.655c-0.74-0.438-1.11-1.076-1.11-1.917c0-0.681,0.267-1.218,0.801-1.611
			c0.533-0.394,1.214-0.607,2.042-0.641v-0.141c-0.2-0.06-0.407-0.135-0.62-0.226c-0.213-0.09-0.396-0.195-0.549-0.315
			c-0.173-0.141-0.313-0.307-0.419-0.497c-0.107-0.19-0.16-0.427-0.16-0.708c0-0.354,0.125-0.68,0.374-0.979
			c0.249-0.297,0.626-0.553,1.132-0.768v-0.15c-0.641-0.3-1.138-0.685-1.491-1.154s-0.53-1.014-0.53-1.634
			c0-0.933,0.349-1.699,1.046-2.299c0.697-0.6,1.589-0.899,2.677-0.899c0.3,0,0.599,0.029,0.896,0.088s0.599,0.134,0.905,0.225
			h3.445v0.969h-2.324v0.06c0.247,0.286,0.43,0.603,0.55,0.949c0.12,0.346,0.18,0.686,0.18,1.019c0,0.865-0.352,1.599-1.056,2.198
			c-0.704,0.6-1.522,0.899-2.457,0.899h-1.21c-0.153,0.054-0.313,0.15-0.48,0.291c-0.167,0.141-0.25,0.332-0.25,0.572
			c0,0.248,0.07,0.438,0.21,0.568c0.14,0.131,0.31,0.219,0.51,0.266c0.193,0.054,0.418,0.088,0.675,0.101
			c0.257,0.014,0.521,0.023,0.795,0.03c0.294,0.007,0.695,0.027,1.205,0.061s0.872,0.053,1.085,0.06
			c0.307,0.014,0.615,0.087,0.925,0.221S99.188,177.172,99.441,177.405z M98.66,179.828c0-0.373-0.087-0.68-0.26-0.919
			c-0.173-0.24-0.437-0.403-0.79-0.49c-0.187-0.026-0.57-0.057-1.149-0.09c-0.58-0.033-1.253-0.05-2.019-0.05
			c-0.719,0.141-1.229,0.375-1.532,0.705c-0.303,0.329-0.454,0.754-0.454,1.273c0,0.233,0.05,0.457,0.149,0.67
			c0.1,0.213,0.273,0.41,0.52,0.59c0.233,0.174,0.546,0.314,0.939,0.425c0.393,0.11,0.872,0.165,1.438,0.165
			c0.979,0,1.749-0.188,2.312-0.564C98.379,181.166,98.66,180.595,98.66,179.828z M96.738,171.545c0-0.78-0.158-1.402-0.476-1.867
			c-0.316-0.463-0.762-0.695-1.335-0.695c-0.313,0-0.582,0.065-0.806,0.195c-0.223,0.13-0.405,0.315-0.545,0.556
			c-0.133,0.22-0.229,0.485-0.285,0.796s-0.085,0.629-0.085,0.956c0,0.741,0.162,1.345,0.485,1.812
			c0.323,0.468,0.742,0.701,1.255,0.701c0.573,0,1.015-0.232,1.325-0.695C96.583,172.838,96.738,172.253,96.738,171.545z"/>
		<path d="M114.945,178.436h-4.844v-0.656c0.152-0.014,0.322-0.026,0.509-0.04c0.186-0.013,0.339-0.04,0.458-0.08
			c0.187-0.061,0.324-0.165,0.414-0.315s0.135-0.346,0.135-0.586v-5.081c0-0.701-0.166-1.242-0.499-1.623s-0.738-0.571-1.216-0.571
			c-0.35,0-0.674,0.055-0.974,0.165c-0.299,0.11-0.566,0.246-0.802,0.406c-0.229,0.167-0.403,0.334-0.524,0.501
			s-0.215,0.308-0.282,0.421v5.682c0,0.228,0.045,0.414,0.135,0.562c0.09,0.146,0.228,0.26,0.414,0.34
			c0.146,0.067,0.297,0.117,0.453,0.15s0.327,0.057,0.514,0.07v0.656h-4.828v-0.656c0.152-0.014,0.312-0.028,0.478-0.045
			s0.306-0.042,0.418-0.075c0.187-0.061,0.325-0.165,0.418-0.315s0.14-0.346,0.14-0.587v-11.509c0-0.227-0.052-0.454-0.156-0.682
			c-0.104-0.227-0.238-0.396-0.406-0.511c-0.12-0.087-0.333-0.148-0.637-0.186c-0.305-0.036-0.551-0.062-0.738-0.075v-0.641
			l3.656-0.219l0.141,0.15v6.891h0.04c0.222-0.221,0.422-0.415,0.604-0.586c0.181-0.17,0.419-0.348,0.714-0.535
			c0.254-0.16,0.554-0.293,0.899-0.4c0.345-0.106,0.731-0.16,1.161-0.16c0.884,0,1.564,0.279,2.04,0.836
			c0.476,0.559,0.714,1.361,0.714,2.409v5.138c0,0.233,0.042,0.422,0.126,0.565s0.224,0.256,0.419,0.336
			c0.154,0.06,0.294,0.105,0.419,0.136c0.124,0.029,0.287,0.051,0.489,0.064V178.436z"/>
		<path d="M123.676,178.436h-4.766v-0.656c0.153-0.014,0.312-0.026,0.476-0.04c0.164-0.013,0.306-0.04,0.427-0.08
			c0.187-0.06,0.325-0.165,0.416-0.315c0.09-0.149,0.135-0.345,0.135-0.585v-6.092c0-0.214-0.049-0.409-0.146-0.585
			c-0.097-0.178-0.232-0.326-0.406-0.445c-0.127-0.08-0.312-0.148-0.552-0.205s-0.461-0.092-0.662-0.105v-0.656l3.484-0.219
			l0.141,0.141v8.047c0,0.233,0.045,0.427,0.135,0.58c0.089,0.153,0.23,0.268,0.423,0.34c0.146,0.061,0.288,0.109,0.428,0.146
			c0.14,0.037,0.295,0.062,0.468,0.075V178.436z M122.426,164.561c0,0.381-0.125,0.713-0.375,0.996
			c-0.251,0.284-0.56,0.426-0.926,0.426c-0.341,0-0.637-0.135-0.887-0.405s-0.375-0.579-0.375-0.927
			c0-0.366,0.125-0.687,0.375-0.961c0.25-0.273,0.546-0.41,0.887-0.41c0.38,0,0.691,0.129,0.936,0.386
			C122.304,163.922,122.426,164.221,122.426,164.561z"/>
		<path d="M131.262,177.832c0,0.733-0.107,1.422-0.32,2.065c-0.214,0.644-0.498,1.175-0.852,1.596
			c-0.381,0.446-0.81,0.788-1.287,1.024c-0.477,0.237-1.002,0.355-1.576,0.355c-0.595,0-1.042-0.118-1.342-0.354
			c-0.301-0.236-0.451-0.514-0.451-0.833c0-0.286,0.08-0.537,0.24-0.754s0.395-0.324,0.702-0.324c0.207,0,0.391,0.043,0.551,0.129
			s0.301,0.199,0.421,0.338c0.107,0.119,0.215,0.268,0.326,0.443c0.109,0.176,0.215,0.346,0.315,0.512
			c0.508,0,0.87-0.307,1.087-0.92c0.218-0.613,0.326-1.596,0.326-2.948v-7.417c0-0.213-0.052-0.418-0.154-0.614
			c-0.104-0.196-0.238-0.354-0.404-0.476c-0.106-0.072-0.361-0.146-0.764-0.219c-0.402-0.074-0.706-0.121-0.912-0.141v-0.625
			l3.954-0.219l0.14,0.141V177.832z M131.418,164.545c0,0.381-0.125,0.713-0.375,0.996c-0.251,0.284-0.56,0.426-0.926,0.426
			c-0.341,0-0.637-0.135-0.887-0.405s-0.375-0.579-0.375-0.927c0-0.366,0.125-0.687,0.375-0.961c0.25-0.273,0.546-0.41,0.887-0.41
			c0.38,0,0.691,0.129,0.936,0.386C131.296,163.906,131.418,164.205,131.418,164.545z"/>
		<path d="M146.891,178.436h-2.984c-0.521-0.754-1.08-1.561-1.676-2.421s-1.215-1.698-1.857-2.512l-0.826,0.769v2.346
			c0,0.24,0.043,0.439,0.13,0.596c0.086,0.157,0.226,0.272,0.419,0.346c0.159,0.067,0.312,0.117,0.458,0.15
			c0.146,0.033,0.315,0.057,0.509,0.07v0.656h-4.828v-0.656c0.152-0.014,0.312-0.028,0.478-0.045s0.306-0.042,0.418-0.075
			c0.187-0.061,0.325-0.165,0.418-0.315s0.14-0.346,0.14-0.587v-11.488c0-0.247-0.052-0.479-0.156-0.696
			c-0.104-0.218-0.238-0.383-0.406-0.496c-0.141-0.107-0.359-0.178-0.657-0.211s-0.537-0.057-0.718-0.07v-0.641l3.656-0.219
			l0.141,0.15v10.436c0.521-0.521,1.084-1.079,1.689-1.676c0.604-0.597,1.114-1.129,1.529-1.596c0.053-0.06,0.111-0.138,0.176-0.234
			c0.063-0.097,0.096-0.175,0.096-0.234c0-0.18-0.146-0.313-0.437-0.4c-0.291-0.086-0.569-0.146-0.837-0.18v-0.641h4.361v0.625
			c-0.563,0.166-1.061,0.375-1.494,0.625c-0.432,0.25-0.762,0.475-0.99,0.674c-0.161,0.133-0.389,0.35-0.684,0.65
			c-0.295,0.3-0.706,0.693-1.235,1.18c0.549,0.676,1.166,1.484,1.853,2.427c0.686,0.942,1.186,1.625,1.5,2.046
			c0.295,0.395,0.559,0.651,0.793,0.771c0.234,0.121,0.575,0.194,1.023,0.221V178.436z"/>
		<path d="M154.795,178.436h-4.812v-0.656c0.154-0.014,0.317-0.028,0.491-0.045s0.317-0.042,0.432-0.075
			c0.187-0.061,0.327-0.165,0.421-0.315s0.141-0.346,0.141-0.587v-11.448c0-0.24-0.052-0.466-0.154-0.677
			c-0.104-0.21-0.238-0.376-0.404-0.496c-0.119-0.08-0.339-0.153-0.658-0.221c-0.319-0.066-0.575-0.106-0.768-0.12v-0.641
			l3.704-0.219l0.14,0.15v13.552c0,0.233,0.043,0.426,0.13,0.575c0.087,0.15,0.227,0.266,0.42,0.346
			c0.146,0.067,0.291,0.117,0.435,0.15c0.143,0.033,0.305,0.057,0.484,0.07V178.436z"/>
		<path d="M175.678,178.436h-4.797v-0.656c0.154-0.014,0.31-0.026,0.467-0.04c0.158-0.013,0.297-0.04,0.418-0.08
			c0.188-0.061,0.326-0.165,0.417-0.315s0.136-0.346,0.136-0.586v-5.102c0-0.694-0.158-1.23-0.476-1.607
			c-0.317-0.378-0.713-0.566-1.187-0.566c-0.328,0-0.635,0.051-0.922,0.15s-0.551,0.24-0.791,0.421
			c-0.193,0.146-0.355,0.306-0.486,0.476c-0.13,0.171-0.229,0.312-0.295,0.426v5.702c0,0.233,0.04,0.426,0.121,0.576
			c0.08,0.15,0.217,0.266,0.412,0.346c0.153,0.06,0.293,0.105,0.417,0.136c0.124,0.029,0.286,0.051,0.487,0.064v0.656h-4.703v-0.656
			c0.153-0.014,0.302-0.026,0.445-0.04c0.144-0.013,0.275-0.04,0.395-0.08c0.188-0.061,0.326-0.165,0.416-0.315
			s0.135-0.346,0.135-0.586v-5.102c0-0.694-0.159-1.23-0.477-1.607c-0.317-0.378-0.714-0.566-1.188-0.566
			c-0.327,0-0.635,0.052-0.923,0.155c-0.287,0.104-0.551,0.245-0.792,0.426c-0.193,0.147-0.357,0.312-0.491,0.496
			s-0.234,0.322-0.301,0.416v5.661c0,0.228,0.047,0.418,0.141,0.571c0.094,0.154,0.233,0.271,0.421,0.351
			c0.141,0.067,0.284,0.117,0.432,0.15c0.146,0.033,0.311,0.057,0.491,0.07v0.656h-4.797v-0.656c0.153-0.014,0.312-0.026,0.476-0.04
			c0.164-0.013,0.306-0.04,0.427-0.08c0.187-0.06,0.325-0.165,0.416-0.315c0.09-0.149,0.135-0.345,0.135-0.585v-6.132
			c0-0.214-0.049-0.405-0.146-0.575c-0.097-0.17-0.232-0.315-0.406-0.436c-0.128-0.08-0.285-0.145-0.474-0.194
			c-0.188-0.051-0.382-0.082-0.583-0.096v-0.656l3.309-0.219l0.141,0.14v1.406h0.069c0.167-0.167,0.37-0.364,0.61-0.591
			c0.239-0.227,0.463-0.41,0.669-0.551c0.233-0.16,0.524-0.293,0.875-0.4c0.35-0.106,0.728-0.16,1.134-0.16
			c0.64,0,1.189,0.172,1.649,0.516s0.79,0.76,0.989,1.246c0.24-0.233,0.451-0.438,0.635-0.615c0.183-0.177,0.424-0.365,0.724-0.566
			c0.253-0.173,0.551-0.312,0.894-0.42c0.343-0.106,0.725-0.16,1.144-0.16c0.832,0,1.491,0.273,1.978,0.821
			c0.485,0.548,0.729,1.389,0.729,2.523v5.019c0,0.233,0.04,0.425,0.119,0.575c0.08,0.15,0.216,0.266,0.409,0.346
			c0.152,0.06,0.304,0.105,0.453,0.136c0.149,0.029,0.317,0.051,0.503,0.064V178.436z"/>
	</g>
	<g>
		<path d="M25.821,199.436h-4.828v-0.656c0.154-0.014,0.323-0.026,0.507-0.04c0.184-0.013,0.336-0.04,0.457-0.08
			c0.187-0.061,0.326-0.165,0.416-0.315c0.091-0.15,0.136-0.346,0.136-0.586v-5.081c0-0.701-0.166-1.242-0.498-1.623
			s-0.735-0.571-1.211-0.571c-0.355,0-0.68,0.055-0.975,0.165s-0.556,0.246-0.784,0.406c-0.221,0.153-0.397,0.319-0.528,0.496
			s-0.226,0.319-0.286,0.426v5.682c0,0.228,0.046,0.414,0.14,0.562c0.093,0.146,0.232,0.26,0.419,0.34
			c0.14,0.067,0.291,0.117,0.453,0.15c0.163,0.033,0.331,0.057,0.504,0.07v0.656h-4.828v-0.656c0.153-0.014,0.312-0.026,0.476-0.04
			c0.164-0.013,0.306-0.04,0.426-0.08c0.187-0.06,0.326-0.165,0.416-0.315c0.09-0.149,0.135-0.345,0.135-0.585v-6.092
			c0-0.227-0.049-0.436-0.146-0.626c-0.097-0.189-0.232-0.345-0.405-0.465c-0.127-0.08-0.277-0.139-0.451-0.175
			c-0.173-0.036-0.36-0.062-0.561-0.075v-0.656l3.282-0.219l0.14,0.14v1.386h0.05c0.16-0.16,0.36-0.352,0.601-0.575
			s0.467-0.405,0.681-0.546c0.247-0.16,0.541-0.293,0.881-0.4c0.341-0.106,0.725-0.16,1.151-0.16c0.948,0,1.65,0.296,2.107,0.887
			s0.686,1.377,0.686,2.358v5.138c0,0.233,0.04,0.422,0.121,0.565s0.218,0.256,0.412,0.336c0.161,0.067,0.3,0.113,0.417,0.14
			c0.117,0.027,0.279,0.047,0.487,0.061V199.436z"/>
		<path d="M39.419,194.396c0,0.694-0.11,1.377-0.331,2.048c-0.22,0.671-0.534,1.24-0.941,1.707c-0.46,0.534-0.995,0.932-1.602,1.191
			s-1.288,0.391-2.042,0.391c-0.627,0-1.225-0.119-1.792-0.355s-1.071-0.582-1.512-1.036c-0.434-0.447-0.779-0.993-1.036-1.638
			c-0.257-0.644-0.385-1.366-0.385-2.167c0-1.542,0.449-2.804,1.346-3.785s2.074-1.472,3.529-1.472c1.381,0,2.521,0.466,3.419,1.396
			C38.971,191.607,39.419,192.848,39.419,194.396z M37.341,194.416c0-0.5-0.05-1.028-0.15-1.586c-0.1-0.557-0.25-1.028-0.449-1.415
			c-0.213-0.413-0.493-0.745-0.839-0.995s-0.769-0.375-1.269-0.375c-0.513,0-0.95,0.127-1.313,0.38
			c-0.363,0.254-0.658,0.601-0.884,1.04c-0.213,0.407-0.363,0.871-0.45,1.391c-0.086,0.521-0.13,1.023-0.13,1.51
			c0,0.641,0.051,1.232,0.155,1.775c0.103,0.544,0.268,1.029,0.495,1.456c0.226,0.427,0.511,0.762,0.854,1.005
			c0.343,0.244,0.768,0.365,1.273,0.365c0.833,0,1.492-0.403,1.979-1.21C37.098,196.95,37.341,195.836,37.341,194.416z"/>
		<path d="M52.635,190.737c0.395,0.468,0.7,1.01,0.918,1.628c0.217,0.617,0.326,1.323,0.326,2.117c0,0.781-0.13,1.494-0.391,2.139
			s-0.605,1.193-1.033,1.648c-0.448,0.46-0.946,0.814-1.494,1.061c-0.548,0.248-1.13,0.371-1.745,0.371
			c-0.595,0-1.083-0.066-1.464-0.2s-0.692-0.29-0.932-0.471h-0.081v2.965c0,0.24,0.046,0.44,0.14,0.601s0.236,0.277,0.429,0.351
			c0.16,0.06,0.387,0.118,0.683,0.176c0.296,0.056,0.54,0.088,0.733,0.095v0.656h-5.5v-0.656c0.206-0.014,0.406-0.03,0.599-0.05
			c0.193-0.021,0.366-0.054,0.519-0.101c0.199-0.066,0.339-0.184,0.419-0.35c0.08-0.168,0.12-0.364,0.12-0.591v-10.499
			c0-0.2-0.05-0.394-0.15-0.58s-0.229-0.337-0.389-0.45c-0.12-0.08-0.286-0.142-0.499-0.186c-0.213-0.043-0.419-0.071-0.619-0.085
			v-0.656l3.356-0.219l0.14,0.119v1.106l0.08,0.021c0.348-0.4,0.779-0.734,1.294-1.002c0.515-0.267,1.026-0.4,1.534-0.4
			c0.615,0,1.179,0.131,1.69,0.391C51.827,189.946,52.267,190.297,52.635,190.737z M51.002,197.835
			c0.268-0.413,0.465-0.895,0.592-1.442c0.127-0.547,0.191-1.158,0.191-1.832c0-0.494-0.054-0.998-0.161-1.512
			c-0.107-0.515-0.274-0.962-0.501-1.343c-0.228-0.387-0.525-0.701-0.893-0.941c-0.368-0.24-0.81-0.36-1.324-0.36
			c-0.495,0-0.917,0.108-1.265,0.325c-0.348,0.218-0.648,0.476-0.903,0.776v5.839c0.06,0.18,0.159,0.367,0.296,0.561
			s0.29,0.36,0.457,0.501c0.207,0.167,0.432,0.302,0.672,0.405c0.241,0.104,0.535,0.155,0.883,0.155
			c0.375,0,0.736-0.099,1.083-0.295C50.477,198.475,50.768,198.195,51.002,197.835z"/>
		<path d="M68.92,203.873h-5.344v-0.656c0.207-0.014,0.411-0.03,0.611-0.05c0.2-0.021,0.38-0.054,0.541-0.101
			c0.207-0.066,0.351-0.184,0.431-0.351s0.12-0.364,0.12-0.591v-3.646l-0.06-0.021c-0.107,0.12-0.258,0.259-0.455,0.416
			c-0.197,0.157-0.402,0.285-0.615,0.386c-0.267,0.14-0.523,0.248-0.77,0.325c-0.247,0.076-0.557,0.115-0.93,0.115
			c-0.6,0-1.165-0.125-1.694-0.375c-0.53-0.251-0.991-0.606-1.385-1.067c-0.393-0.454-0.705-1.013-0.935-1.678
			c-0.23-0.664-0.345-1.394-0.345-2.188c0-0.754,0.133-1.44,0.4-2.058c0.267-0.618,0.62-1.157,1.06-1.618
			c0.42-0.434,0.925-0.779,1.515-1.036s1.175-0.386,1.755-0.386c0.433,0,0.818,0.042,1.155,0.125
			c0.336,0.084,0.625,0.182,0.865,0.296c0.207,0.087,0.413,0.198,0.62,0.335c0.207,0.137,0.354,0.229,0.44,0.275l0.853-1.297
			l0.572,0.08c-0.027,0.494-0.062,1.102-0.106,1.822s-0.065,1.352-0.065,1.893v9.131c0,0.233,0.043,0.436,0.13,0.605
			c0.087,0.171,0.227,0.299,0.421,0.386c0.16,0.067,0.364,0.125,0.612,0.176c0.248,0.05,0.448,0.081,0.602,0.095V203.873z
			 M65.279,197.603v-5.892c-0.053-0.166-0.144-0.352-0.27-0.555c-0.127-0.203-0.276-0.382-0.45-0.535
			c-0.187-0.16-0.415-0.294-0.684-0.4s-0.581-0.16-0.934-0.16c-0.779,0-1.434,0.403-1.963,1.211
			c-0.529,0.807-0.794,1.917-0.794,3.33c0,0.561,0.052,1.067,0.155,1.521c0.103,0.454,0.281,0.877,0.535,1.271
			c0.239,0.373,0.542,0.672,0.909,0.896s0.829,0.335,1.388,0.335c0.479,0,0.889-0.102,1.229-0.305
			C64.74,198.115,65.033,197.876,65.279,197.603z"/>
		<path d="M79.877,190.838c0,0.34-0.083,0.642-0.25,0.905c-0.167,0.264-0.424,0.396-0.771,0.396c-0.374,0-0.659-0.097-0.856-0.289
			c-0.196-0.193-0.295-0.406-0.295-0.64c0-0.146,0.012-0.279,0.035-0.399c0.023-0.119,0.045-0.239,0.065-0.359
			c-0.312,0-0.678,0.127-1.096,0.379c-0.419,0.254-0.774,0.612-1.066,1.078v5.749c0,0.234,0.045,0.425,0.135,0.571
			s0.232,0.257,0.426,0.33c0.166,0.067,0.381,0.117,0.645,0.15c0.264,0.033,0.492,0.057,0.686,0.07v0.656H72.33v-0.656
			c0.153-0.014,0.312-0.026,0.476-0.04c0.164-0.013,0.306-0.04,0.426-0.08c0.187-0.06,0.326-0.165,0.416-0.315
			c0.09-0.149,0.135-0.345,0.135-0.585v-6.092c0-0.207-0.049-0.41-0.146-0.61s-0.232-0.36-0.405-0.48
			c-0.127-0.08-0.277-0.139-0.451-0.175c-0.173-0.036-0.36-0.062-0.561-0.075v-0.656l3.282-0.219l0.14,0.14v1.387h0.05
			c0.413-0.54,0.872-0.95,1.378-1.231c0.506-0.279,0.969-0.42,1.389-0.42c0.419,0,0.76,0.137,1.023,0.41
			C79.745,190.01,79.877,190.377,79.877,190.838z"/>
		<path d="M90.021,194.601c0.273,0.24,0.483,0.518,0.63,0.832c0.147,0.313,0.22,0.698,0.22,1.152c0,0.915-0.343,1.663-1.027,2.244
			c-0.686,0.581-1.572,0.872-2.662,0.872c-0.575,0-1.104-0.104-1.589-0.312s-0.831-0.398-1.038-0.572l-0.2,0.65h-0.75l-0.094-3.438
			h0.688c0.053,0.262,0.167,0.566,0.341,0.915s0.384,0.664,0.631,0.945c0.261,0.295,0.573,0.543,0.938,0.744
			c0.364,0.201,0.773,0.302,1.228,0.302c0.641,0,1.135-0.146,1.482-0.438c0.348-0.291,0.521-0.709,0.521-1.252
			c0-0.28-0.055-0.522-0.165-0.727c-0.11-0.203-0.272-0.383-0.485-0.536c-0.22-0.153-0.49-0.292-0.811-0.416
			c-0.32-0.123-0.677-0.245-1.07-0.366c-0.313-0.093-0.662-0.222-1.045-0.385c-0.383-0.164-0.712-0.356-0.985-0.576
			c-0.293-0.234-0.534-0.521-0.72-0.862c-0.187-0.341-0.28-0.741-0.28-1.202c0-0.809,0.3-1.493,0.899-2.055
			c0.599-0.561,1.402-0.842,2.407-0.842c0.387,0,0.781,0.05,1.184,0.15c0.403,0.1,0.731,0.22,0.984,0.36l0.229-0.511h0.719
			l0.156,3.172h-0.688c-0.14-0.711-0.441-1.29-0.905-1.736c-0.463-0.446-1.028-0.67-1.694-0.67c-0.547,0-0.977,0.138-1.29,0.412
			c-0.313,0.275-0.47,0.607-0.47,0.997c0,0.301,0.052,0.551,0.155,0.751c0.103,0.201,0.258,0.371,0.465,0.512
			c0.2,0.134,0.452,0.259,0.755,0.375c0.303,0.117,0.679,0.25,1.125,0.396c0.44,0.141,0.855,0.304,1.246,0.491
			C89.445,194.166,89.768,194.373,90.021,194.601z"/>
		<path d="M101.216,198.996c-0.435,0.181-0.845,0.333-1.231,0.457c-0.388,0.123-0.861,0.186-1.422,0.186
			c-0.828,0-1.41-0.208-1.747-0.625c-0.337-0.416-0.506-1.004-0.506-1.763v-6.675h-1.781v-0.969h1.821v-3.078h1.815v3.078h2.848
			v0.969h-2.828v5.498c0,0.413,0.015,0.758,0.045,1.033c0.03,0.276,0.103,0.518,0.216,0.724c0.107,0.193,0.268,0.34,0.482,0.439
			s0.502,0.149,0.863,0.149c0.167,0,0.413-0.015,0.738-0.044c0.324-0.029,0.554-0.066,0.688-0.112V198.996z"/>
		<path d="M115.561,199.264l-3.221,0.219l-0.15-0.141v-1.251h-0.06c-0.16,0.167-0.341,0.346-0.54,0.536
			c-0.201,0.189-0.431,0.361-0.691,0.516c-0.3,0.18-0.59,0.315-0.871,0.406c-0.279,0.091-0.677,0.137-1.19,0.137
			c-0.874,0-1.54-0.285-1.997-0.855s-0.686-1.398-0.686-2.486v-4.722c0-0.239-0.045-0.441-0.137-0.604
			c-0.09-0.164-0.223-0.306-0.397-0.426c-0.121-0.08-0.272-0.139-0.454-0.175s-0.373-0.062-0.574-0.075v-0.656l3.287-0.234
			l0.15,0.14v6.851c0,0.714,0.16,1.25,0.482,1.61c0.321,0.36,0.707,0.54,1.156,0.54c0.368,0,0.696-0.057,0.984-0.17
			s0.529-0.247,0.724-0.4c0.181-0.14,0.34-0.288,0.478-0.444c0.137-0.157,0.242-0.302,0.316-0.436v-5.59
			c0-0.22-0.047-0.415-0.14-0.585c-0.094-0.17-0.224-0.314-0.39-0.436c-0.121-0.079-0.299-0.128-0.535-0.145
			s-0.502-0.031-0.795-0.045v-0.656l3.584-0.234l0.15,0.141v7.835c0,0.227,0.047,0.42,0.141,0.58s0.224,0.297,0.392,0.41
			c0.12,0.073,0.264,0.122,0.432,0.146c0.167,0.023,0.351,0.038,0.552,0.045V199.264z"/>
		<path d="M129.291,190.167c-0.301,0.054-0.586,0.162-0.857,0.325c-0.27,0.164-0.502,0.453-0.695,0.867
			c-0.395,0.896-0.803,1.83-1.223,2.802c-0.422,0.973-0.859,1.993-1.312,3.062c-0.135,0.308-0.276,0.672-0.427,1.093
			s-0.288,0.825-0.415,1.213h-0.782c-0.635-1.57-1.219-3.002-1.753-4.295c-0.535-1.293-1.09-2.618-1.664-3.975
			c-0.134-0.308-0.349-0.547-0.646-0.717c-0.297-0.171-0.596-0.279-0.896-0.326v-0.656h4.569v0.696
			c-0.2,0.007-0.45,0.048-0.751,0.125c-0.3,0.077-0.45,0.183-0.45,0.315c0,0.021,0.017,0.072,0.05,0.155
			c0.033,0.084,0.067,0.179,0.101,0.286c0.272,0.679,0.659,1.627,1.158,2.846s0.905,2.2,1.218,2.945
			c0.241-0.572,0.545-1.284,0.909-2.137c0.364-0.852,0.758-1.804,1.18-2.855c0.067-0.18,0.131-0.348,0.19-0.505
			c0.061-0.156,0.091-0.314,0.091-0.475c0-0.113-0.056-0.215-0.165-0.306c-0.11-0.09-0.242-0.168-0.396-0.235
			c-0.153-0.066-0.304-0.116-0.45-0.149c-0.147-0.033-0.268-0.057-0.36-0.07v-0.637h3.778V190.167z"/>
		<path d="M147.176,190.197c-0.28,0.026-0.582,0.144-0.905,0.35c-0.323,0.207-0.559,0.518-0.706,0.932
			c-0.333,0.98-0.648,1.91-0.945,2.788s-0.629,1.864-0.995,2.959c-0.12,0.347-0.242,0.721-0.365,1.121
			c-0.124,0.4-0.235,0.784-0.335,1.151h-0.858l-2.653-7.266l-2.67,7.266h-0.822c-0.501-1.481-0.989-2.951-1.467-4.41
			c-0.477-1.459-0.898-2.729-1.266-3.81c-0.106-0.313-0.31-0.561-0.61-0.741c-0.3-0.18-0.59-0.287-0.87-0.32v-0.656h4.395v0.696
			c-0.221,0.007-0.459,0.043-0.716,0.11c-0.257,0.066-0.385,0.177-0.385,0.33c0,0.027,0.011,0.084,0.034,0.17
			c0.023,0.088,0.053,0.181,0.086,0.281c0.214,0.702,0.456,1.486,0.728,2.353c0.271,0.866,0.62,1.991,1.049,3.376l2.529-7.113h0.97
			l2.557,6.974c0.286-0.89,0.57-1.751,0.854-2.585c0.283-0.833,0.531-1.614,0.744-2.345c0.047-0.173,0.092-0.331,0.135-0.475
			c0.044-0.144,0.065-0.285,0.065-0.425c0-0.121-0.054-0.228-0.16-0.32c-0.107-0.094-0.237-0.171-0.391-0.23
			c-0.134-0.054-0.278-0.094-0.436-0.12s-0.272-0.04-0.345-0.04v-0.637h3.756V190.197z"/>
		<path d="M159.855,199.436h-4.531v-0.656c0.306-0.033,0.565-0.066,0.778-0.1c0.213-0.034,0.319-0.121,0.319-0.262
			c0-0.06-0.033-0.153-0.1-0.28c-0.067-0.127-0.134-0.244-0.201-0.351c-0.166-0.261-0.395-0.609-0.686-1.047
			c-0.29-0.438-0.645-0.96-1.065-1.568c-0.347,0.435-0.665,0.857-0.958,1.268s-0.6,0.847-0.918,1.307
			c-0.047,0.067-0.096,0.15-0.146,0.251s-0.075,0.181-0.075,0.24c0,0.147,0.096,0.27,0.286,0.366
			c0.19,0.098,0.477,0.162,0.858,0.195v0.637h-3.656v-0.616c0.453-0.134,0.817-0.296,1.094-0.486s0.531-0.427,0.765-0.707
			c0.207-0.269,0.495-0.638,0.864-1.106c0.37-0.471,0.849-1.107,1.435-1.913c-0.34-0.486-0.756-1.081-1.246-1.783
			c-0.49-0.703-0.896-1.288-1.216-1.754c-0.174-0.254-0.371-0.46-0.595-0.617s-0.538-0.235-0.944-0.235v-0.656h4.297v0.656
			c-0.216,0-0.428,0.014-0.637,0.04c-0.208,0.027-0.312,0.087-0.312,0.181c0,0.061,0.02,0.127,0.061,0.2
			c0.039,0.074,0.09,0.154,0.149,0.241c0.146,0.227,0.375,0.578,0.685,1.053s0.645,0.975,1.004,1.503
			c0.233-0.321,0.505-0.694,0.815-1.122c0.31-0.428,0.595-0.836,0.854-1.224c0.027-0.046,0.054-0.104,0.08-0.175
			c0.027-0.07,0.041-0.139,0.041-0.206c0-0.14-0.116-0.252-0.348-0.335c-0.23-0.084-0.45-0.143-0.658-0.176v-0.637h3.641v0.616
			c-0.512,0.134-0.91,0.293-1.195,0.477c-0.286,0.184-0.528,0.396-0.728,0.636c-0.22,0.275-0.481,0.613-0.784,1.016
			c-0.303,0.401-0.728,0.964-1.273,1.687c0.605,0.854,1.099,1.556,1.479,2.103c0.379,0.548,0.763,1.112,1.148,1.692
			c0.193,0.295,0.408,0.527,0.645,0.697c0.236,0.171,0.562,0.27,0.975,0.296V199.436z"/>
		<path d="M162.723,202.648c0-0.335,0.092-0.607,0.275-0.818s0.412-0.316,0.686-0.316c0.213,0,0.396,0.04,0.55,0.119
			c0.153,0.08,0.29,0.184,0.41,0.31c0.101,0.1,0.207,0.235,0.32,0.408s0.203,0.315,0.271,0.429c0.333-0.18,0.731-0.648,1.195-1.407
			c0.463-0.759,0.799-1.425,1.005-1.997c-0.633-1.58-1.206-2.995-1.718-4.242c-0.514-1.248-1.05-2.539-1.609-3.873
			c-0.127-0.308-0.34-0.547-0.641-0.717c-0.3-0.171-0.6-0.279-0.9-0.326v-0.656h4.506v0.696c-0.201,0.007-0.441,0.048-0.721,0.125
			c-0.281,0.077-0.421,0.183-0.421,0.315c0.073,0.201,0.123,0.348,0.15,0.441c0.253,0.657,0.64,1.605,1.159,2.846
			c0.52,1.238,0.923,2.23,1.209,2.975c0.301-0.711,0.612-1.447,0.936-2.208c0.324-0.761,0.686-1.659,1.086-2.695
			c0.047-0.126,0.113-0.301,0.2-0.523s0.13-0.414,0.13-0.574c0-0.173-0.152-0.335-0.455-0.485c-0.305-0.15-0.593-0.242-0.866-0.275
			v-0.637h3.665v0.616c-0.2,0.034-0.464,0.149-0.791,0.346c-0.326,0.197-0.57,0.477-0.73,0.837
			c-0.794,1.845-1.499,3.525-2.116,5.042s-1.086,2.633-1.406,3.348c-0.421,0.932-0.796,1.659-1.127,2.182
			c-0.33,0.522-0.652,0.934-0.966,1.233c-0.308,0.279-0.586,0.468-0.837,0.564c-0.25,0.096-0.509,0.145-0.776,0.145
			c-0.521,0-0.93-0.124-1.227-0.371C162.871,203.254,162.723,202.97,162.723,202.648z"/>
		<path d="M184.143,199.436h-7.984v-0.531l5.59-8.531h-1.385c-0.582,0-1.037,0.01-1.364,0.03c-0.328,0.02-0.629,0.087-0.903,0.2
			c-0.188,0.072-0.363,0.283-0.526,0.629c-0.164,0.347-0.307,0.8-0.427,1.359h-0.609v-3.031h7.547v0.411l-5.669,8.651
			c0.24,0.007,0.504,0.012,0.791,0.016c0.287,0.003,0.598,0.004,0.932,0.004c0.267,0,0.546-0.003,0.836-0.01
			c0.291-0.006,0.663-0.023,1.117-0.05c0.267-0.013,0.469-0.104,0.605-0.271c0.137-0.166,0.242-0.356,0.315-0.57
			c0.073-0.193,0.162-0.46,0.266-0.801c0.104-0.34,0.195-0.67,0.275-0.99h0.594V199.436z"/>
	</g>
	<g>
		<path fill="#FFFFFF" d="M62.645,210.086c0.427,0.515,0.745,1.117,0.955,1.809s0.315,1.414,0.315,2.169
			c0,0.908-0.13,1.722-0.391,2.439c-0.26,0.718-0.617,1.313-1.07,1.788c-0.467,0.487-1.021,0.855-1.661,1.102
			c-0.64,0.247-1.354,0.371-2.141,0.371c-0.86,0-1.628-0.144-2.302-0.431s-1.221-0.682-1.641-1.183
			c-0.44-0.521-0.769-1.13-0.985-1.828c-0.217-0.697-0.325-1.451-0.325-2.259c0-0.795,0.105-1.526,0.315-2.194
			c0.21-0.668,0.538-1.271,0.985-1.812c0.427-0.521,0.977-0.932,1.65-1.232s1.444-0.451,2.312-0.451
			c0.914,0,1.697,0.154,2.352,0.461C61.667,209.141,62.211,209.559,62.645,210.086z M61.696,214.063
			c0-1.587-0.271-2.818-0.813-3.692c-0.542-0.873-1.279-1.311-2.211-1.311c-0.944,0-1.69,0.438-2.235,1.311
			c-0.546,0.874-0.818,2.105-0.818,3.692c0,1.508,0.261,2.72,0.783,3.637s1.272,1.376,2.251,1.376c0.978,0,1.729-0.459,2.255-1.376
			S61.696,215.571,61.696,214.063z"/>
		<path fill="#FFFFFF" d="M74.556,219.436h-6.75v-0.703c0.2-0.014,0.512-0.041,0.936-0.085s0.716-0.089,0.876-0.136
			c0.207-0.066,0.366-0.175,0.476-0.325c0.11-0.149,0.166-0.375,0.166-0.676v-7.028h-2.5v-0.844h0.553
			c0.724,0,1.372-0.134,1.945-0.401c0.572-0.269,0.982-0.556,1.23-0.864h0.834c-0.021,0.434-0.042,0.941-0.062,1.523
			c-0.021,0.58-0.031,1.102-0.031,1.562v5.941c0,0.233,0.051,0.442,0.155,0.626s0.251,0.318,0.445,0.405
			c0.173,0.074,0.456,0.141,0.849,0.201c0.393,0.06,0.686,0.093,0.879,0.1V219.436z"/>
	</g>
	<g>
		<path fill="#FFFFFF" d="M87.263,219.436h-9.391v-1.369c0.18-0.206,0.431-0.438,0.752-0.694c0.321-0.257,0.702-0.534,1.144-0.835
			c0.268-0.18,0.588-0.376,0.963-0.589c0.375-0.214,0.799-0.446,1.274-0.7c0.528-0.279,0.935-0.526,1.219-0.739
			c0.284-0.214,0.543-0.477,0.778-0.79c0.153-0.206,0.277-0.465,0.371-0.774c0.093-0.31,0.14-0.751,0.14-1.324
			c0-0.833-0.224-1.444-0.671-1.834c-0.448-0.39-1.022-0.585-1.724-0.585c-0.435,0-0.845,0.085-1.232,0.255
			c-0.388,0.17-0.679,0.404-0.872,0.704c0.047,0.213,0.105,0.467,0.176,0.76c0.07,0.293,0.105,0.579,0.105,0.859
			c0,0.253-0.105,0.478-0.316,0.674c-0.211,0.197-0.523,0.295-0.938,0.295c-0.335,0-0.592-0.115-0.772-0.346
			c-0.181-0.229-0.271-0.539-0.271-0.926c0-0.36,0.1-0.723,0.3-1.086c0.201-0.364,0.488-0.699,0.862-1.006
			c0.367-0.301,0.822-0.545,1.363-0.731c0.541-0.187,1.126-0.28,1.754-0.28c1.37,0,2.457,0.305,3.263,0.915
			c0.805,0.61,1.208,1.425,1.208,2.445c0,0.487-0.072,0.931-0.215,1.33c-0.144,0.4-0.376,0.754-0.697,1.061
			c-0.354,0.34-0.769,0.632-1.244,0.875s-1.2,0.582-2.176,1.015c-0.581,0.261-1.123,0.532-1.624,0.815
			c-0.502,0.283-0.913,0.559-1.233,0.825h7.706V219.436z"/>
		<path fill="#FFFFFF" d="M95.87,223.092c-0.627,0-1.2-0.078-1.721-0.234c-0.521-0.157-0.967-0.369-1.341-0.636
			c-0.373-0.267-0.662-0.573-0.865-0.92c-0.204-0.347-0.305-0.704-0.305-1.07c0-0.327,0.081-0.622,0.241-0.886
			c0.161-0.263,0.419-0.395,0.773-0.395c0.402,0,0.708,0.098,0.919,0.295c0.211,0.195,0.316,0.42,0.316,0.673
			c0,0.213-0.035,0.482-0.105,0.809c-0.07,0.325-0.125,0.559-0.166,0.698c0.046,0.06,0.131,0.14,0.255,0.239
			c0.123,0.1,0.274,0.189,0.455,0.27c0.213,0.1,0.436,0.179,0.669,0.239c0.233,0.06,0.563,0.09,0.99,0.09
			c0.4,0,0.785-0.066,1.154-0.2s0.695-0.347,0.975-0.641c0.293-0.307,0.521-0.665,0.685-1.075c0.163-0.41,0.245-0.949,0.245-1.616
			c0-0.36-0.039-0.717-0.115-1.07c-0.077-0.354-0.218-0.66-0.425-0.921c-0.207-0.26-0.488-0.462-0.845-0.605
			c-0.356-0.143-0.808-0.215-1.354-0.215h-1.309v-1.156h0.87c0.92,0,1.583-0.253,1.989-0.759s0.61-1.269,0.61-2.287
			c0-0.832-0.197-1.46-0.591-1.882c-0.394-0.424-0.951-0.635-1.673-0.635c-0.347,0-0.633,0.042-0.856,0.125
			c-0.224,0.084-0.406,0.165-0.546,0.245c-0.167,0.094-0.304,0.197-0.411,0.311c-0.106,0.113-0.187,0.196-0.24,0.25
			c0.047,0.214,0.104,0.476,0.171,0.786c0.066,0.31,0.1,0.605,0.1,0.885c0,0.247-0.105,0.469-0.316,0.666
			c-0.21,0.196-0.52,0.295-0.927,0.295c-0.354,0-0.613-0.127-0.777-0.381c-0.164-0.254-0.246-0.548-0.246-0.882
			c0-0.348,0.097-0.702,0.291-1.063c0.193-0.36,0.48-0.697,0.861-1.012c0.38-0.314,0.844-0.568,1.392-0.762
			c0.547-0.194,1.178-0.291,1.893-0.291c0.821,0,1.5,0.122,2.037,0.365c0.538,0.243,0.96,0.539,1.267,0.885
			c0.3,0.341,0.507,0.697,0.621,1.071c0.113,0.373,0.171,0.693,0.171,0.96c0,0.334-0.047,0.668-0.141,1.006
			c-0.093,0.336-0.246,0.648-0.46,0.935c-0.233,0.313-0.541,0.599-0.924,0.855s-0.865,0.466-1.444,0.625v0.161
			c0.373,0.033,0.771,0.117,1.194,0.25c0.423,0.135,0.804,0.331,1.145,0.592c0.353,0.273,0.643,0.626,0.869,1.057
			c0.227,0.432,0.34,0.978,0.34,1.639c0,1.282-0.514,2.322-1.541,3.121C98.695,222.692,97.411,223.092,95.87,223.092z"/>
		<path fill="#FFFFFF" d="M115.92,218.529h-2.031v4.562h-1.922v-4.562h-6.406v-1.543l7.017-8.551h1.312v8.781h2.031V218.529z
			 M111.967,217.217v-6.555l-5.398,6.555H111.967z"/>
		<path fill="#FFFFFF" d="M127.862,214.75c0.44,0.347,0.806,0.793,1.096,1.34s0.436,1.23,0.436,2.051
			c0,1.434-0.49,2.617-1.471,3.551s-2.225,1.4-3.732,1.4c-1.167,0-2.154-0.277-2.961-0.83c-0.808-0.554-1.211-1.197-1.211-1.931
			c0-0.341,0.083-0.637,0.25-0.891c0.167-0.253,0.423-0.38,0.771-0.38c0.399,0,0.705,0.105,0.914,0.314
			c0.211,0.209,0.315,0.438,0.315,0.684c0,0.213-0.037,0.479-0.11,0.798s-0.13,0.556-0.17,0.709c0.054,0.046,0.141,0.109,0.26,0.189
			c0.121,0.079,0.264,0.156,0.431,0.229c0.174,0.073,0.386,0.138,0.636,0.194s0.542,0.085,0.875,0.085
			c0.428,0,0.831-0.087,1.211-0.26c0.381-0.174,0.7-0.43,0.961-0.77c0.287-0.373,0.502-0.798,0.646-1.274s0.215-1.081,0.215-1.813
			c0-0.939-0.262-1.717-0.786-2.334c-0.523-0.615-1.213-0.924-2.066-0.924c-0.534,0-1.033,0.1-1.496,0.299
			c-0.464,0.2-0.879,0.533-1.246,0.998l-0.671-0.26l0.844-7.225h7.172v1.781h-6.362l-0.511,4.244c0.3-0.213,0.695-0.424,1.186-0.633
			c0.49-0.21,1.029-0.314,1.616-0.314c0.486,0,0.992,0.075,1.516,0.225C126.939,214.154,127.422,214.402,127.862,214.75z"/>
		<path fill="#FFFFFF" d="M143.772,214.83c0,0.694-0.125,1.345-0.375,1.951c-0.25,0.607-0.585,1.125-1.005,1.552
			c-0.486,0.487-1.025,0.847-1.615,1.081c-0.59,0.232-1.204,0.35-1.844,0.35c-0.74,0-1.41-0.137-2.01-0.41
			c-0.601-0.273-1.11-0.661-1.53-1.161c-0.427-0.507-0.757-1.128-0.99-1.862s-0.35-1.559-0.35-2.473
			c0-2.382,0.708-4.391,2.125-6.025s3.315-2.616,5.695-2.943l0.18,0.906l-0.899,0.16c-1.445,0.467-2.562,1.194-3.352,2.182
			c-0.79,0.987-1.301,2.185-1.534,3.592c0.573-0.5,1.139-0.854,1.698-1.061s1.149-0.311,1.77-0.311c1.111,0,2.062,0.427,2.852,1.281
			C143.378,212.492,143.772,213.557,143.772,214.83z M141.601,215.096c0-1.081-0.248-1.947-0.744-2.602
			c-0.496-0.653-1.159-0.98-1.991-0.98c-0.5,0-0.964,0.094-1.394,0.28c-0.429,0.187-0.844,0.5-1.243,0.94
			c-0.007,0.08-0.017,0.266-0.029,0.555c-0.014,0.291-0.021,0.52-0.021,0.686c0,1.561,0.255,2.783,0.764,3.667
			c0.51,0.884,1.181,1.325,2.013,1.325c0.791,0,1.431-0.345,1.916-1.035C141.357,217.241,141.601,216.296,141.601,215.096z"/>
		<path fill="#FFFFFF" d="M157.688,209.352l-7.134,13.74h-1.257l6.7-12.703h-3.914c-0.581,0-1.034,0.007-1.361,0.02
			c-0.327,0.014-0.627,0.077-0.9,0.189c-0.207,0.087-0.393,0.309-0.556,0.664s-0.288,0.81-0.375,1.361h-0.609v-3.922h9.406V209.352z
			"/>
		<path fill="#FFFFFF" d="M171.631,215.662c0,1.12-0.483,2.084-1.449,2.891c-0.967,0.808-2.236,1.211-3.809,1.211
			c-1.473,0-2.651-0.37-3.538-1.11c-0.886-0.74-1.329-1.694-1.329-2.861c0-0.86,0.262-1.579,0.784-2.155
			c0.523-0.577,1.298-1.066,2.324-1.467c-0.847-0.473-1.48-0.993-1.9-1.561c-0.42-0.566-0.63-1.207-0.63-1.92
			c0-1.088,0.461-1.998,1.385-2.731c0.922-0.733,2.027-1.101,3.312-1.101c1.286,0,2.327,0.347,3.124,1.041
			c0.796,0.693,1.194,1.563,1.194,2.61c0,0.674-0.22,1.312-0.659,1.916s-1.086,1.099-1.938,1.485
			c1.106,0.474,1.904,0.997,2.395,1.57C171.386,214.055,171.631,214.781,171.631,215.662z M169.631,216.134
			c0-0.42-0.09-0.788-0.27-1.105s-0.439-0.605-0.778-0.866c-0.326-0.253-0.78-0.519-1.362-0.795
			c-0.582-0.277-1.212-0.56-1.891-0.847c-0.639,0.348-1.107,0.79-1.406,1.327c-0.3,0.537-0.449,1.148-0.449,1.836
			c0,0.981,0.287,1.773,0.863,2.377c0.575,0.604,1.342,0.906,2.3,0.906c0.918,0,1.646-0.267,2.185-0.801
			C169.361,217.633,169.631,216.955,169.631,216.134z M169.209,208.402c0-0.812-0.241-1.474-0.724-1.983s-1.1-0.765-1.852-0.765
			s-1.368,0.245-1.847,0.734c-0.479,0.49-0.719,1.098-0.719,1.824c0,0.699,0.272,1.292,0.818,1.778s1.518,1.007,2.915,1.56
			c0.499-0.32,0.858-0.743,1.078-1.27S169.209,209.129,169.209,208.402z"/>
		<path fill="#FFFFFF" d="M186.011,214.275c0,1.16-0.184,2.252-0.55,3.276c-0.367,1.023-0.894,1.922-1.58,2.696
			c-0.674,0.76-1.496,1.392-2.466,1.896c-0.97,0.503-2.056,0.835-3.256,0.995l-0.18-0.906l0.899-0.16
			c1.433-0.452,2.552-1.147,3.357-2.086c0.807-0.938,1.326-2.13,1.56-3.574c-0.546,0.467-1.091,0.81-1.634,1.026
			s-1.154,0.325-1.834,0.325c-1.086,0-2.029-0.424-2.832-1.271s-1.204-1.916-1.204-3.203c0-1.382,0.465-2.547,1.395-3.494
			c0.93-0.948,2.078-1.422,3.444-1.422c1.486,0,2.672,0.53,3.555,1.591C185.569,211.024,186.011,212.461,186.011,214.275z
			 M183.886,214.165c0-1.562-0.255-2.784-0.764-3.669c-0.51-0.884-1.181-1.326-2.013-1.326c-0.792,0-1.431,0.342-1.917,1.026
			c-0.485,0.684-0.729,1.626-0.729,2.827c0,1.082,0.248,1.949,0.744,2.604c0.495,0.653,1.159,0.98,1.991,0.98
			c0.52,0,0.996-0.095,1.428-0.285c0.434-0.19,0.836-0.496,1.209-0.916c0-0.026,0.005-0.08,0.015-0.16s0.015-0.193,0.015-0.34
			c0-0.094,0.004-0.207,0.011-0.341S183.886,214.299,183.886,214.165z"/>
	</g>
	<g>
		<path fill="#FFFFFF" d="M187.438,106.98c-1.826,0.66-3.43,1.192-4.809,1.601c-1.379,0.407-2.942,0.611-4.69,0.611
			c-3.031,0-5.449-0.707-7.256-2.121s-2.963-3.477-3.468-6.188h-0.348c-2.515,2.789-5.213,4.913-8.094,6.372
			c-2.881,1.458-6.353,2.188-10.413,2.188c-4.293,0-7.822-1.317-10.588-3.951c-2.766-2.635-4.147-6.082-4.147-10.344
			c0-2.208,0.31-4.184,0.929-5.928c0.619-1.743,1.548-3.312,2.786-4.707c0.967-1.162,2.244-2.198,3.831-3.108
			c1.586-0.91,3.076-1.637,4.469-2.18c1.741-0.658,5.272-1.878,10.593-3.66s8.91-3.177,10.768-4.185v-5.75
			c0-0.503-0.106-1.471-0.318-2.903c-0.213-1.433-0.666-2.788-1.36-4.066c-0.772-1.432-1.863-2.681-3.271-3.745
			c-1.409-1.064-3.406-1.598-5.992-1.598c-1.775,0-3.426,0.301-4.95,0.901s-2.596,1.23-3.213,1.889c0,0.775,0.184,1.919,0.553,3.431
			c0.368,1.512,0.553,2.906,0.553,4.186c0,1.356-0.611,2.597-1.832,3.721c-1.222,1.124-2.918,1.686-5.089,1.686
			c-1.939,0-3.364-0.688-4.275-2.064c-0.911-1.376-1.366-2.917-1.366-4.623c0-1.783,0.628-3.488,1.886-5.117
			c1.258-1.628,2.893-3.082,4.905-4.361c1.74-1.086,3.85-2.007,6.326-2.763s4.895-1.134,7.256-1.134c3.25,0,6.084,0.224,8.503,0.669
			c2.418,0.445,4.614,1.405,6.588,2.878c1.973,1.435,3.473,3.383,4.498,5.844s1.538,5.63,1.538,9.505
			c0,5.543-0.062,10.456-0.188,14.739s-0.188,8.964-0.188,14.041c0,1.512,0.263,2.714,0.789,3.605
			c0.525,0.892,1.334,1.647,2.425,2.267c0.584,0.35,1.509,0.543,2.775,0.582c1.266,0.039,2.562,0.058,3.886,0.058V106.98z
			 M167.116,76.255c-3.286,0.972-6.166,1.924-8.641,2.856c-2.475,0.934-4.774,2.1-6.9,3.498c-1.934,1.322-3.46,2.887-4.581,4.693
			s-1.682,3.954-1.682,6.441c0,3.227,0.84,5.597,2.521,7.112c1.68,1.516,3.814,2.273,6.402,2.273c2.742,0,5.156-0.67,7.242-2.011
			s3.843-2.925,5.272-4.752L167.116,76.255z"/>
	</g>
	<g>
		<path d="M32.411,71.467h-6.917v-0.828c0.609-0.039,1.115-0.117,1.517-0.234s0.604-0.262,0.604-0.434
			c0-0.07-0.008-0.156-0.023-0.258s-0.039-0.191-0.07-0.27l-1.377-3.727h-5.837c-0.219,0.547-0.397,1.023-0.535,1.43
			c-0.137,0.406-0.26,0.781-0.37,1.125c-0.102,0.336-0.172,0.609-0.211,0.82s-0.059,0.383-0.059,0.516
			c0,0.312,0.246,0.555,0.738,0.727s1.047,0.273,1.664,0.305v0.828h-6.264v-0.828c0.203-0.016,0.458-0.061,0.762-0.135
			c0.305-0.074,0.555-0.174,0.751-0.299c0.312-0.211,0.555-0.432,0.727-0.662s0.34-0.549,0.504-0.955
			c0.836-2.086,1.759-4.43,2.767-7.031s1.907-4.918,2.697-6.949h0.938l5.546,14.344c0.117,0.305,0.25,0.551,0.398,0.738
			s0.355,0.371,0.621,0.551c0.18,0.109,0.415,0.201,0.704,0.275s0.532,0.115,0.727,0.123V71.467z M25.713,64.67l-2.517-6.445
			l-2.481,6.445H25.713z"/>
		<path d="M43.926,71.253c-0.367,0.134-0.689,0.241-0.966,0.324c-0.277,0.083-0.591,0.124-0.942,0.124
			c-0.609,0-1.095-0.143-1.458-0.428s-0.595-0.701-0.697-1.248h-0.07c-0.507,0.562-1.052,0.993-1.634,1.291
			c-0.582,0.298-1.282,0.447-2.103,0.447c-0.866,0-1.579-0.266-2.137-0.798s-0.837-1.229-0.837-2.089
			c0-0.446,0.062-0.846,0.188-1.197c0.125-0.353,0.312-0.669,0.562-0.951c0.195-0.234,0.453-0.443,0.773-0.628
			c0.32-0.184,0.621-0.33,0.902-0.44c0.351-0.133,1.064-0.379,2.137-0.738c1.074-0.36,1.798-0.643,2.173-0.846v-1.159
			c0-0.101-0.021-0.296-0.064-0.585s-0.135-0.562-0.275-0.819c-0.156-0.289-0.376-0.54-0.661-0.755
			c-0.285-0.215-0.688-0.322-1.212-0.322c-0.359,0-0.692,0.061-1.001,0.182c-0.308,0.121-0.524,0.248-0.649,0.381
			c0,0.156,0.037,0.387,0.111,0.691s0.111,0.586,0.111,0.844c0,0.273-0.123,0.523-0.369,0.75s-0.588,0.34-1.025,0.34
			c-0.391,0-0.678-0.139-0.861-0.416s-0.275-0.589-0.275-0.933c0-0.36,0.127-0.704,0.381-1.032s0.583-0.622,0.989-0.88
			c0.352-0.219,0.777-0.405,1.277-0.558c0.5-0.152,0.987-0.229,1.464-0.229c0.656,0,1.228,0.045,1.716,0.135s0.931,0.283,1.33,0.58
			c0.398,0.289,0.701,0.682,0.908,1.178s0.311,1.135,0.311,1.916c0,1.117-0.011,2.107-0.031,2.971
			c-0.021,0.863-0.031,1.807-0.031,2.83c0,0.305,0.052,0.547,0.157,0.727c0.104,0.18,0.266,0.332,0.483,0.457
			c0.116,0.07,0.301,0.109,0.554,0.117c0.252,0.008,0.51,0.012,0.774,0.012V71.253z M39.84,65.061
			c-0.663,0.196-1.244,0.389-1.743,0.576c-0.499,0.188-0.963,0.424-1.392,0.706c-0.391,0.267-0.698,0.582-0.925,0.946
			c-0.226,0.365-0.339,0.798-0.339,1.3c0,0.651,0.169,1.129,0.509,1.435c0.339,0.307,0.77,0.459,1.293,0.459
			c0.554,0,1.041-0.135,1.462-0.406c0.421-0.27,0.776-0.59,1.064-0.958L39.84,65.061z"/>
	</g>
	<g>
		<path d="M23.391,100.565l0.176-0.781c0.242-0.023,0.525-0.057,0.85-0.1c0.324-0.042,0.576-0.091,0.756-0.146
			c0.242-0.077,0.424-0.159,0.545-0.245s0.182-0.218,0.182-0.396c0-0.062-0.047-0.443-0.14-1.145
			c-0.093-0.7-0.225-1.685-0.395-2.953h-5.852c-0.257,0.404-0.53,0.873-0.819,1.406c-0.288,0.533-0.511,0.94-0.667,1.221
			c-0.141,0.248-0.275,0.527-0.404,0.834c-0.129,0.308-0.193,0.512-0.193,0.613c0,0.257,0.207,0.463,0.621,0.618
			c0.414,0.156,0.934,0.253,1.559,0.292l-0.176,0.781h-6.38l0.176-0.781c0.203-0.016,0.467-0.061,0.791-0.135
			s0.596-0.174,0.814-0.299c0.273-0.156,0.537-0.349,0.791-0.579s0.525-0.576,0.814-1.036c1.352-2.14,2.834-4.521,4.447-7.144
			s3.033-4.919,4.26-6.886h0.938l2.219,14.392c0.047,0.289,0.125,0.533,0.234,0.732s0.273,0.384,0.492,0.556
			c0.156,0.109,0.367,0.201,0.633,0.275s0.5,0.115,0.703,0.123l-0.176,0.781H23.391z M25.188,93.815l-1.048-6.494l-3.99,6.494
			H25.188z"/>
		<path d="M39.458,99.019h-0.082c-0.171,0.141-0.375,0.318-0.613,0.533s-0.516,0.42-0.835,0.615
			c-0.304,0.195-0.635,0.365-0.993,0.51c-0.358,0.145-0.748,0.217-1.168,0.217c-1.129,0-2.015-0.406-2.657-1.221
			c-0.643-0.813-0.964-1.925-0.964-3.334c0-0.97,0.179-1.913,0.538-2.828c0.358-0.916,0.854-1.737,1.484-2.465
			c0.601-0.696,1.313-1.258,2.14-1.685s1.676-0.64,2.549-0.64c0.553,0,1.081,0.074,1.584,0.222c0.503,0.148,0.898,0.315,1.187,0.502
			l2.158-0.552l0.142,0.176l-1.783,7.576c-0.062,0.242-0.127,0.538-0.193,0.887c-0.066,0.348-0.1,0.604-0.1,0.77
			c0,0.445,0.094,0.747,0.281,0.904c0.188,0.156,0.504,0.234,0.95,0.234c0.148,0,0.359-0.023,0.633-0.069
			c0.274-0.046,0.485-0.096,0.634-0.149l-0.176,0.75c-0.706,0.281-1.231,0.484-1.576,0.609s-0.765,0.188-1.258,0.188
			c-0.564,0-1.012-0.164-1.341-0.493S39.489,99.527,39.458,99.019z M41.146,91.594c0-0.259-0.027-0.505-0.082-0.74
			c-0.055-0.234-0.167-0.454-0.339-0.657c-0.155-0.196-0.37-0.353-0.643-0.471c-0.272-0.117-0.615-0.176-1.028-0.176
			c-0.568,0-1.121,0.188-1.659,0.564c-0.537,0.375-1.021,0.881-1.448,1.515c-0.405,0.595-0.736,1.315-0.993,2.161
			c-0.257,0.846-0.386,1.703-0.386,2.572c0,0.479,0.027,0.9,0.082,1.27c0.054,0.367,0.159,0.704,0.314,1.01
			c0.147,0.297,0.361,0.528,0.64,0.693c0.28,0.164,0.633,0.246,1.061,0.246c0.435,0,0.891-0.123,1.368-0.37
			c0.478-0.246,1.016-0.679,1.613-1.298L41.146,91.594z"/>
	</g>
	<g>
		<path d="M65.821,56.803c0.734,0.767,1.309,1.69,1.723,2.772c0.414,1.083,0.621,2.28,0.621,3.593c0,1.047-0.137,2.017-0.41,2.907
			s-0.66,1.688-1.16,2.391c-0.477,0.673-1.043,1.259-1.699,1.759s-1.39,0.895-2.199,1.184c0.016,0.859,0.324,1.631,0.927,2.314
			c0.602,0.684,1.251,1.025,1.946,1.025c0.642,0,1.13-0.021,1.466-0.064c0.336-0.043,0.614-0.084,0.833-0.123v0.928
			c-0.352,0.103-0.792,0.21-1.319,0.324c-0.528,0.113-1.261,0.17-2.2,0.17c-0.524,0-1.036-0.076-1.537-0.229
			s-0.954-0.397-1.361-0.733c-0.407-0.337-0.745-0.763-1.015-1.278c-0.27-0.517-0.444-1.15-0.522-1.9
			c-1.117-0.039-2.152-0.279-3.105-0.721s-1.77-1.045-2.449-1.811c-0.688-0.773-1.223-1.683-1.605-2.726s-0.574-2.183-0.574-3.417
			c0-1.352,0.211-2.557,0.633-3.616c0.422-1.059,1.004-1.975,1.746-2.749c0.734-0.766,1.588-1.352,2.561-1.758
			s1.99-0.609,3.053-0.609c1.102,0,2.141,0.207,3.117,0.621S65.11,56.053,65.821,56.803z M64.069,68.6
			c0.437-0.711,0.755-1.517,0.954-2.415s0.298-1.903,0.298-3.013c0-1.141-0.111-2.188-0.333-3.142
			c-0.222-0.953-0.548-1.766-0.977-2.438c-0.429-0.664-0.967-1.182-1.615-1.553s-1.389-0.557-2.223-0.557
			c-0.936,0-1.731,0.215-2.387,0.645s-1.19,1.004-1.604,1.723c-0.39,0.688-0.681,1.493-0.872,2.415
			c-0.191,0.923-0.287,1.892-0.287,2.907c0,1.125,0.102,2.142,0.304,3.048s0.522,1.712,0.959,2.415
			c0.421,0.688,0.952,1.225,1.591,1.611s1.404,0.58,2.293,0.58c0.834,0,1.587-0.195,2.258-0.586S63.648,69.303,64.069,68.6z"/>
		<path d="M82.922,76.67h-6.266v-0.781c0.243-0.016,0.482-0.035,0.718-0.059s0.447-0.062,0.635-0.117
			c0.243-0.078,0.412-0.215,0.505-0.41c0.095-0.195,0.142-0.426,0.142-0.691v-4.264l-0.07-0.023
			c-0.125,0.142-0.303,0.304-0.533,0.487s-0.47,0.335-0.72,0.452c-0.312,0.164-0.613,0.291-0.902,0.381s-0.652,0.135-1.089,0.135
			c-0.703,0-1.365-0.146-1.985-0.439s-1.162-0.71-1.623-1.25c-0.461-0.531-0.826-1.187-1.095-1.965
			c-0.27-0.777-0.404-1.632-0.404-2.562c0-0.884,0.156-1.688,0.469-2.41c0.312-0.724,0.727-1.355,1.242-1.895
			c0.492-0.509,1.084-0.913,1.775-1.215c0.691-0.301,1.377-0.451,2.057-0.451c0.508,0,0.959,0.049,1.354,0.146
			s0.732,0.213,1.014,0.346c0.242,0.103,0.484,0.233,0.727,0.394s0.414,0.268,0.516,0.322l1.003-1.521l0.673,0.094
			c-0.032,0.578-0.074,1.289-0.125,2.133c-0.052,0.845-0.078,1.583-0.078,2.216v10.69c0,0.273,0.051,0.51,0.152,0.709
			s0.266,0.35,0.492,0.451c0.188,0.078,0.426,0.146,0.715,0.205s0.523,0.096,0.703,0.111V76.67z M78.656,69.332v-6.913
			c-0.062-0.195-0.168-0.413-0.316-0.651c-0.148-0.238-0.324-0.447-0.527-0.628c-0.219-0.188-0.486-0.345-0.802-0.47
			s-0.681-0.188-1.094-0.188c-0.913,0-1.68,0.474-2.3,1.42c-0.621,0.947-0.931,2.25-0.931,3.908c0,0.658,0.061,1.252,0.182,1.784
			c0.121,0.532,0.329,1.029,0.626,1.491c0.281,0.438,0.636,0.788,1.065,1.051c0.429,0.262,0.971,0.393,1.626,0.393
			c0.562,0,1.042-0.119,1.439-0.357C78.024,69.933,78.367,69.652,78.656,69.332z"/>
	</g>
	<g>
		<path d="M68.772,90.333c0,1.484-0.273,2.881-0.82,4.189c-0.547,1.31-1.263,2.429-2.146,3.358
			c-0.594,0.626-1.256,1.167-1.986,1.624c-0.731,0.457-1.484,0.807-2.259,1.049c-0.031,0.109-0.05,0.246-0.058,0.41
			s-0.012,0.31-0.012,0.435c0,0.798,0.214,1.416,0.644,1.854c0.429,0.438,0.959,0.657,1.591,0.657c0.663,0,1.172-0.028,1.527-0.085
			c0.355-0.058,0.637-0.112,0.848-0.165l-0.199,0.877c-0.477,0.147-1.048,0.278-1.716,0.391c-0.668,0.113-1.31,0.17-1.927,0.17
			c-1.101,0-1.952-0.294-2.553-0.881s-0.902-1.452-0.902-2.595c0-0.086,0.004-0.199,0.012-0.34c0.008-0.142,0.02-0.255,0.035-0.341
			c-1.856-0.062-3.357-0.707-4.502-1.934c-1.145-1.227-1.717-2.817-1.717-4.771c0-1.516,0.273-2.924,0.82-4.225
			c0.547-1.302,1.258-2.425,2.134-3.37c0.883-0.961,1.912-1.72,3.088-2.274s2.385-0.832,3.628-0.832
			c1.907,0,3.461,0.615,4.665,1.846C68.171,86.611,68.772,88.262,68.772,90.333z M66.022,89.65c0-1.562-0.333-2.808-0.997-3.737
			c-0.665-0.93-1.643-1.395-2.933-1.395c-1.001,0-1.932,0.297-2.792,0.891s-1.611,1.465-2.252,2.612
			c-0.556,1.008-0.972,2.117-1.25,3.327c-0.278,1.211-0.417,2.352-0.417,3.421c0,1.641,0.338,2.918,1.015,3.831
			c0.677,0.914,1.645,1.371,2.904,1.371c1.071,0,2.033-0.32,2.886-0.961s1.556-1.448,2.112-2.425
			c0.555-0.969,0.981-2.062,1.279-3.28S66.022,90.868,66.022,89.65z"/>
		<path d="M77.553,98.933h-0.082c-0.195,0.164-0.396,0.347-0.603,0.546c-0.207,0.2-0.497,0.417-0.872,0.651
			c-0.312,0.212-0.655,0.392-1.03,0.541c-0.374,0.148-0.772,0.223-1.194,0.223c-1.131,0-2.021-0.406-2.669-1.221
			c-0.648-0.813-0.972-1.925-0.972-3.334c0-0.97,0.181-1.913,0.544-2.828c0.363-0.916,0.86-1.737,1.492-2.465
			c0.608-0.696,1.328-1.258,2.159-1.685c0.831-0.427,1.683-0.64,2.557-0.64c0.554,0,1.09,0.074,1.609,0.222
			c0.519,0.148,0.922,0.315,1.211,0.502l2.114-0.552l0.142,0.176l-3.174,14.004c-0.047,0.196-0.084,0.38-0.111,0.553
			c-0.027,0.172-0.041,0.312-0.041,0.422c0,0.211,0.072,0.38,0.217,0.505c0.145,0.125,0.312,0.216,0.5,0.271
			c0.18,0.062,0.386,0.109,0.617,0.141c0.231,0.031,0.438,0.055,0.618,0.07l-0.165,0.734H73.94l0.164-0.734
			c0.25-0.016,0.504-0.035,0.762-0.059s0.484-0.062,0.68-0.117c0.242-0.07,0.436-0.201,0.58-0.393
			c0.145-0.192,0.248-0.429,0.311-0.711L77.553,98.933z M79.216,91.595c0-0.251-0.031-0.496-0.093-0.734
			c-0.062-0.239-0.179-0.461-0.351-0.664c-0.164-0.196-0.384-0.353-0.661-0.471c-0.276-0.117-0.621-0.176-1.034-0.176
			c-0.569,0-1.125,0.188-1.666,0.564s-1.026,0.881-1.455,1.516c-0.421,0.627-0.76,1.354-1.017,2.18s-0.386,1.678-0.386,2.556
			c0,0.454,0.029,0.878,0.087,1.27s0.166,0.732,0.321,1.022c0.147,0.289,0.356,0.519,0.625,0.687
			c0.269,0.169,0.625,0.253,1.068,0.253c0.529,0,1.047-0.162,1.553-0.487s1.031-0.759,1.576-1.299L79.216,91.595z"/>
	</g>
	<g>
		<path d="M105.86,71.467h-4.483c-0.99-1.554-1.885-2.896-2.685-4.029c-0.799-1.132-1.667-2.299-2.603-3.502h-1.698v5.273
			c0,0.273,0.043,0.514,0.129,0.721s0.271,0.365,0.552,0.475c0.141,0.055,0.388,0.105,0.739,0.152
			c0.353,0.047,0.65,0.074,0.893,0.082v0.828h-7.047v-0.828c0.188-0.016,0.46-0.043,0.817-0.082c0.356-0.039,0.605-0.09,0.747-0.152
			c0.235-0.102,0.406-0.25,0.511-0.445c0.106-0.195,0.159-0.445,0.159-0.75V57.182c0-0.273-0.039-0.516-0.118-0.727
			s-0.263-0.371-0.553-0.48c-0.196-0.07-0.451-0.135-0.764-0.193s-0.58-0.096-0.8-0.111v-0.828h7.683
			c0.704,0,1.364,0.072,1.982,0.217c0.617,0.145,1.177,0.377,1.678,0.697c0.484,0.312,0.871,0.72,1.16,1.224
			c0.29,0.503,0.435,1.11,0.435,1.821c0,0.64-0.098,1.206-0.293,1.697c-0.196,0.492-0.485,0.918-0.868,1.277
			c-0.353,0.336-0.774,0.626-1.268,0.872c-0.492,0.246-1.036,0.455-1.63,0.627c0.82,1.086,1.502,2.001,2.045,2.743
			s1.209,1.645,1.998,2.708c0.344,0.469,0.654,0.815,0.932,1.038s0.553,0.405,0.826,0.546c0.203,0.103,0.457,0.181,0.762,0.235
			s0.559,0.086,0.762,0.094V71.467z M99.704,59.079c0-1.004-0.289-1.8-0.868-2.388c-0.578-0.587-1.396-0.881-2.451-0.881h-1.994
			v7.109h1.536c1.079,0,1.979-0.344,2.697-1.033C99.345,61.198,99.704,60.263,99.704,59.079z"/>
		<path d="M115.332,61.395c0,0.399-0.098,0.753-0.293,1.062c-0.196,0.309-0.498,0.463-0.904,0.463c-0.438,0-0.772-0.113-1.004-0.34
			c-0.23-0.228-0.346-0.479-0.346-0.752c0-0.172,0.014-0.329,0.041-0.47s0.053-0.282,0.076-0.423c-0.365,0-0.791,0.148-1.279,0.445
			c-0.488,0.298-0.903,0.721-1.244,1.268v6.725c0,0.273,0.053,0.496,0.158,0.668s0.272,0.301,0.499,0.387
			c0.196,0.078,0.448,0.137,0.757,0.176c0.31,0.039,0.578,0.066,0.805,0.082v0.781h-6.109v-0.781
			c0.18-0.016,0.366-0.031,0.558-0.047c0.192-0.016,0.358-0.047,0.499-0.094c0.22-0.069,0.382-0.192,0.488-0.367
			c0.105-0.176,0.158-0.403,0.158-0.684v-7.117c0-0.242-0.057-0.479-0.17-0.713c-0.113-0.234-0.271-0.421-0.475-0.562
			c-0.148-0.093-0.324-0.161-0.527-0.204s-0.422-0.072-0.656-0.088v-0.781l3.852-0.266l0.164,0.164v1.63h0.059
			c0.482-0.633,1.02-1.113,1.611-1.442c0.592-0.328,1.134-0.492,1.624-0.492c0.491,0,0.89,0.16,1.198,0.481
			C115.178,60.425,115.332,60.855,115.332,61.395z"/>
	</g>
	<g>
		<path d="M103.958,99.784l-0.188,0.781h-4.213c-0.667-1.576-1.298-2.925-1.891-4.045c-0.593-1.119-1.22-2.292-1.879-3.518h-1.731
			l-1.237,5.353c-0.016,0.063-0.029,0.139-0.041,0.225s-0.018,0.147-0.018,0.187c0,0.18,0.033,0.336,0.1,0.468
			c0.066,0.133,0.186,0.238,0.357,0.315c0.109,0.047,0.342,0.096,0.697,0.146s0.65,0.08,0.885,0.088l-0.188,0.781h-7.037
			l0.188-0.781c0.195-0.016,0.473-0.043,0.832-0.082s0.617-0.09,0.773-0.152c0.281-0.109,0.496-0.267,0.645-0.474
			s0.25-0.446,0.305-0.72l2.804-12.125c0.016-0.078,0.029-0.158,0.041-0.24s0.018-0.161,0.018-0.239
			c0-0.164-0.031-0.309-0.094-0.434c-0.062-0.124-0.18-0.222-0.352-0.292c-0.164-0.062-0.402-0.125-0.715-0.188
			s-0.57-0.102-0.773-0.117l0.176-0.781h7.488c0.673,0,1.288,0.066,1.843,0.199s1.021,0.316,1.397,0.551
			c0.415,0.25,0.742,0.579,0.98,0.985c0.239,0.406,0.358,0.887,0.358,1.442c0,0.734-0.138,1.404-0.411,2.01
			c-0.273,0.606-0.646,1.124-1.115,1.554c-0.493,0.445-1.053,0.815-1.68,1.108c-0.626,0.293-1.315,0.525-2.066,0.697
			c0.61,1.177,1.107,2.108,1.491,2.795c0.383,0.686,0.833,1.531,1.35,2.537c0.267,0.507,0.505,0.871,0.716,1.094
			c0.212,0.223,0.436,0.399,0.67,0.532c0.195,0.109,0.45,0.19,0.764,0.245C103.52,99.745,103.77,99.776,103.958,99.784z
			 M100.599,87.362c0-0.797-0.244-1.418-0.732-1.863s-1.174-0.668-2.057-0.668h-1.863L94.29,92.05h1.666
			c1.282,0,2.376-0.447,3.283-1.342C100.145,89.813,100.599,88.698,100.599,87.362z"/>
		<path d="M116.211,90.632c0,0.219-0.031,0.459-0.094,0.721s-0.152,0.479-0.27,0.65c-0.141,0.211-0.295,0.373-0.463,0.486
			s-0.408,0.17-0.721,0.17c-0.422,0-0.738-0.105-0.949-0.316c-0.211-0.212-0.316-0.446-0.316-0.705c0-0.242,0.059-0.514,0.176-0.814
			c0.117-0.302,0.238-0.602,0.363-0.898c-0.094,0-0.248,0.025-0.463,0.076c-0.214,0.051-0.473,0.151-0.775,0.3
			c-0.304,0.149-0.648,0.372-1.033,0.67s-0.795,0.693-1.229,1.188l-1.891,8.407h-2.194l1.711-7.608
			c0.039-0.188,0.096-0.47,0.17-0.845c0.074-0.376,0.111-0.654,0.111-0.834c0-0.438-0.074-0.731-0.223-0.881
			c-0.148-0.148-0.444-0.223-0.888-0.223c-0.171,0-0.389,0.029-0.653,0.088s-0.471,0.107-0.619,0.146l0.176-0.752
			c0.609-0.273,1.148-0.478,1.618-0.611c0.469-0.133,0.871-0.199,1.208-0.199c0.625,0,1.07,0.17,1.336,0.511
			s0.398,0.852,0.398,1.532h0.07c0.929-0.805,1.633-1.367,2.113-1.688c0.479-0.32,0.98-0.48,1.504-0.48
			c0.25,0,0.492,0.031,0.726,0.094c0.234,0.062,0.433,0.168,0.597,0.316c0.172,0.164,0.299,0.354,0.381,0.568
			S116.211,90.226,116.211,90.632z"/>
	</g>
	<g>
		<path fill="#929497" d="M66.457,133.346c0.545,0.369,0.998,0.852,1.358,1.449c0.36,0.597,0.541,1.321,0.541,2.173
			c0,0.87-0.189,1.625-0.567,2.267c-0.378,0.641-0.87,1.168-1.477,1.58c-0.589,0.404-1.255,0.711-1.998,0.922
			s-1.51,0.316-2.301,0.316h-8.861v-0.938c0.211-0.018,0.519-0.055,0.924-0.112c0.404-0.057,0.695-0.125,0.871-0.204
			c0.272-0.123,0.466-0.287,0.58-0.494c0.114-0.206,0.172-0.472,0.172-0.797v-13.441c0-0.299-0.051-0.562-0.151-0.791
			c-0.102-0.229-0.302-0.413-0.601-0.554c-0.264-0.132-0.559-0.232-0.884-0.303s-0.598-0.114-0.817-0.132v-0.938h8.634
			c0.668,0,1.308,0.066,1.918,0.198c0.611,0.132,1.193,0.364,1.747,0.698c0.519,0.309,0.944,0.726,1.278,1.253
			c0.334,0.528,0.501,1.17,0.501,1.926c0,0.659-0.119,1.247-0.356,1.761c-0.237,0.515-0.571,0.956-1.001,1.325
			c-0.404,0.353-0.868,0.649-1.391,0.891c-0.523,0.241-1.087,0.429-1.693,0.561v0.119c0.536,0.062,1.136,0.195,1.8,0.401
			C65.347,132.689,65.938,132.977,66.457,133.346z M63.27,130.521c0.324-0.379,0.55-0.793,0.677-1.242s0.19-0.982,0.19-1.6
			c0-1.03-0.28-1.839-0.841-2.425c-0.561-0.586-1.446-0.879-2.655-0.879c-0.28,0-0.633,0.007-1.058,0.02
			c-0.425,0.014-0.782,0.024-1.071,0.033v7.203h1.669c0.719,0,1.334-0.093,1.847-0.277C62.541,131.168,62.955,130.891,63.27,130.521
			z M65.106,136.492c0-1.104-0.372-2.013-1.114-2.723c-0.743-0.711-1.805-1.066-3.185-1.066c-0.563,0-1.038,0.007-1.425,0.02
			c-0.387,0.014-0.677,0.024-0.87,0.033v6.579c0,0.553,0.224,0.97,0.673,1.25c0.448,0.28,1.072,0.421,1.872,0.421
			c1.31,0,2.312-0.382,3.007-1.145C64.758,139.098,65.106,137.975,65.106,136.492z"/>
		<path fill="#929497" d="M83.709,135.416c0,0.914-0.146,1.812-0.436,2.696c-0.291,0.883-0.705,1.633-1.242,2.248
			c-0.608,0.703-1.312,1.226-2.113,1.569c-0.801,0.342-1.7,0.514-2.694,0.514c-0.828,0-1.616-0.156-2.364-0.468
			c-0.749-0.312-1.413-0.768-1.994-1.365c-0.572-0.589-1.028-1.308-1.367-2.155c-0.339-0.849-0.509-1.8-0.509-2.855
			c0-2.03,0.592-3.691,1.776-4.983c1.184-1.292,2.736-1.938,4.656-1.938c1.823,0,3.326,0.613,4.51,1.84
			C83.117,131.743,83.709,133.376,83.709,135.416z M80.975,135.441c0-0.659-0.066-1.355-0.198-2.09s-0.33-1.356-0.594-1.867
			c-0.282-0.545-0.652-0.982-1.109-1.312c-0.458-0.329-1.018-0.494-1.678-0.494c-0.678,0-1.257,0.167-1.736,0.501
			c-0.48,0.335-0.869,0.792-1.169,1.372c-0.281,0.536-0.479,1.147-0.594,1.834c-0.115,0.686-0.172,1.35-0.172,1.991
			c0,0.845,0.068,1.624,0.205,2.341s0.354,1.357,0.654,1.92s0.676,1.004,1.129,1.325s1.015,0.481,1.684,0.481
			c1.101,0,1.973-0.532,2.615-1.596C80.654,138.783,80.975,137.314,80.975,135.441z"/>
		<path fill="#929497" d="M99.292,135.535c0,1.951-0.616,3.591-1.849,4.918s-2.663,1.99-4.292,1.99c-0.713,0-1.415-0.109-2.106-0.33
			c-0.691-0.219-1.34-0.514-1.947-0.883l-0.978,1.51l-0.812-0.185c0.046-0.649,0.079-1.432,0.097-2.346s0.028-1.797,0.028-2.649
			v-12.862c0-0.299-0.068-0.598-0.204-0.896s-0.309-0.514-0.52-0.646c-0.167-0.114-0.445-0.2-0.836-0.257
			c-0.39-0.058-0.704-0.095-0.94-0.112v-0.844l4.769-0.297l0.185,0.197v8.563l0.092,0.026c0.545-0.58,1.141-1.016,1.788-1.305
			c0.646-0.291,1.282-0.436,1.906-0.436c1.601,0,2.938,0.633,4.011,1.898C98.756,131.857,99.292,133.505,99.292,135.535z
			 M96.542,135.631c0-0.649-0.07-1.312-0.211-1.989s-0.361-1.265-0.66-1.767c-0.299-0.509-0.691-0.922-1.175-1.238
			c-0.484-0.316-1.065-0.475-1.743-0.475c-0.617,0-1.156,0.121-1.618,0.362c-0.462,0.242-0.878,0.569-1.248,0.981v7.565
			c0.053,0.211,0.156,0.457,0.311,0.738c0.154,0.281,0.363,0.549,0.627,0.804c0.265,0.246,0.563,0.445,0.898,0.6
			c0.334,0.154,0.744,0.23,1.228,0.23c1.074,0,1.941-0.519,2.602-1.555C96.212,138.852,96.542,137.433,96.542,135.631z"/>
		<path fill="#929497" d="M121.084,129.901c-0.369,0.035-0.768,0.188-1.193,0.461s-0.736,0.682-0.93,1.227
			c-0.439,1.292-0.854,2.515-1.244,3.671c-0.392,1.155-0.828,2.453-1.312,3.895c-0.158,0.457-0.318,0.949-0.48,1.477
			s-0.31,1.032-0.441,1.516h-1.117l-3.512-9.576l-3.514,9.576h-1.083c-0.659-1.951-1.303-3.887-1.931-5.807
			c-0.629-1.92-1.184-3.592-1.668-5.015c-0.141-0.413-0.408-0.738-0.803-0.976c-0.396-0.237-0.777-0.378-1.146-0.422v-0.875h5.803
			v0.928c-0.289,0.009-0.604,0.058-0.941,0.146c-0.34,0.088-0.508,0.232-0.508,0.435c0,0.035,0.016,0.109,0.045,0.225
			c0.031,0.113,0.068,0.236,0.113,0.368c0.28,0.921,0.598,1.948,0.953,3.084c0.355,1.135,0.814,2.61,1.377,4.425l3.314-9.344h1.278
			l3.388,9.203c0.378-1.174,0.754-2.309,1.127-3.407s0.699-2.129,0.98-3.092c0.061-0.228,0.12-0.437,0.178-0.625
			c0.057-0.188,0.085-0.376,0.085-0.561c0-0.158-0.07-0.299-0.21-0.422c-0.141-0.123-0.312-0.224-0.515-0.303
			c-0.176-0.07-0.366-0.123-0.573-0.158s-0.358-0.053-0.455-0.053v-0.849h4.936V129.901z"/>
		<path fill="#929497" d="M136.285,142.053h-6.391v-0.875c0.201-0.018,0.426-0.035,0.67-0.053c0.246-0.018,0.447-0.053,0.605-0.105
			c0.246-0.079,0.428-0.218,0.547-0.416c0.117-0.197,0.178-0.455,0.178-0.771v-6.688c0-0.924-0.219-1.636-0.654-2.137
			s-0.966-0.752-1.591-0.752c-0.458,0-0.883,0.072-1.274,0.218s-0.742,0.323-1.049,0.534c-0.301,0.22-0.529,0.439-0.688,0.659
			s-0.281,0.405-0.369,0.554v7.479c0,0.3,0.059,0.546,0.178,0.739c0.117,0.193,0.3,0.343,0.545,0.448
			c0.193,0.088,0.393,0.153,0.6,0.198c0.205,0.043,0.432,0.074,0.678,0.092v0.875h-6.359v-0.875c0.199-0.018,0.408-0.037,0.627-0.06
			c0.217-0.021,0.4-0.055,0.547-0.099c0.244-0.079,0.428-0.218,0.549-0.415c0.122-0.198,0.184-0.455,0.184-0.771v-15.134
			c0-0.299-0.068-0.598-0.205-0.896s-0.314-0.523-0.535-0.673c-0.158-0.114-0.438-0.195-0.838-0.244
			c-0.4-0.048-0.723-0.081-0.969-0.099v-0.844l4.814-0.297l0.186,0.197v9.065h0.053c0.29-0.29,0.555-0.548,0.792-0.771
			c0.237-0.225,0.55-0.46,0.938-0.706c0.334-0.211,0.729-0.387,1.182-0.527s0.961-0.211,1.525-0.211
			c1.162,0,2.056,0.367,2.682,1.101c0.625,0.734,0.938,1.791,0.938,3.171v6.763c0,0.308,0.055,0.556,0.165,0.745
			c0.11,0.188,0.294,0.336,0.55,0.441c0.203,0.079,0.385,0.139,0.549,0.178c0.163,0.04,0.377,0.068,0.643,0.086V142.053z"/>
		<path fill="#929497" d="M144.669,142.053h-6.266v-0.875c0.202-0.018,0.409-0.035,0.624-0.053s0.401-0.053,0.559-0.105
			c0.246-0.078,0.428-0.217,0.547-0.414c0.117-0.197,0.177-0.453,0.177-0.769v-8.007c0-0.28-0.063-0.537-0.192-0.77
			c-0.127-0.231-0.307-0.427-0.535-0.585c-0.168-0.104-0.41-0.194-0.728-0.269c-0.317-0.075-0.608-0.121-0.873-0.139v-0.875
			l4.597-0.297l0.185,0.185v10.595c0,0.308,0.059,0.562,0.177,0.764c0.117,0.203,0.303,0.352,0.555,0.448
			c0.191,0.079,0.379,0.143,0.561,0.191c0.184,0.048,0.389,0.081,0.614,0.099V142.053z M143.028,123.773
			c0,0.501-0.165,0.938-0.495,1.312c-0.328,0.374-0.735,0.561-1.219,0.561c-0.448,0-0.838-0.178-1.166-0.534
			c-0.33-0.356-0.495-0.763-0.495-1.221c0-0.483,0.165-0.905,0.495-1.267c0.328-0.36,0.718-0.541,1.166-0.541
			c0.501,0,0.912,0.17,1.232,0.508C142.867,122.931,143.028,123.324,143.028,123.773z"/>
		<path fill="#929497" d="M154.826,141.487c-0.572,0.238-1.113,0.438-1.623,0.603c-0.511,0.162-1.135,0.244-1.875,0.244
			c-1.092,0-1.859-0.275-2.304-0.824c-0.444-0.551-0.667-1.326-0.667-2.33v-8.814h-2.344V129.1h2.396v-4.047h2.406v4.047h3.729
			v1.266h-3.703v7.273c0,0.545,0.02,1.001,0.061,1.366c0.039,0.365,0.133,0.684,0.283,0.956c0.141,0.256,0.352,0.449,0.633,0.581
			s0.66,0.198,1.135,0.198c0.22,0,0.543-0.021,0.97-0.062s0.728-0.093,0.903-0.157V141.487z"/>
		<path fill="#929497" d="M168.16,138.994c-0.545,1.038-1.273,1.864-2.186,2.479s-1.961,0.923-3.146,0.923
			c-1.043,0-1.959-0.185-2.744-0.554c-0.785-0.37-1.432-0.871-1.941-1.504c-0.51-0.634-0.889-1.372-1.139-2.216
			c-0.25-0.845-0.375-1.737-0.375-2.678c0-0.845,0.134-1.674,0.402-2.487c0.268-0.813,0.66-1.545,1.178-2.196
			c0.5-0.624,1.121-1.127,1.863-1.51s1.573-0.574,2.495-0.574c0.948,0,1.761,0.149,2.437,0.449c0.676,0.299,1.225,0.708,1.646,1.228
			c0.403,0.493,0.704,1.073,0.901,1.742s0.297,1.396,0.297,2.179v0.871h-8.594c0,0.854,0.081,1.629,0.243,2.325
			s0.419,1.308,0.771,1.836c0.342,0.511,0.789,0.914,1.341,1.209s1.21,0.442,1.974,0.442c0.779,0,1.453-0.184,2.019-0.55
			s1.111-1.027,1.638-1.981L168.16,138.994z M165.254,134.037c0-0.492-0.041-1.019-0.125-1.58c-0.084-0.562-0.217-1.032-0.401-1.41
			c-0.202-0.403-0.478-0.732-0.829-0.987s-0.803-0.382-1.355-0.382c-0.92,0-1.686,0.385-2.295,1.152
			c-0.611,0.769-0.941,1.838-0.994,3.207H165.254z"/>
	</g>
</g>
</svg>
