<?xml version="1.0" encoding="UTF-8" standalone="no"?>
<!-- Created with Inkscape (http://www.inkscape.org/) -->

<svg
   xmlns:dc="http://purl.org/dc/elements/1.1/"
   xmlns:cc="http://creativecommons.org/ns#"
   xmlns:rdf="http://www.w3.org/1999/02/22-rdf-syntax-ns#"
   xmlns:svg="http://www.w3.org/2000/svg"
   xmlns="http://www.w3.org/2000/svg"
   xmlns:sodipodi="http://sodipodi.sourceforge.net/DTD/sodipodi-0.dtd"
   xmlns:inkscape="http://www.inkscape.org/namespaces/inkscape"
   sodipodi:docname="typography_line_terms.svg"
   inkscape:version="0.48.0 r9654"
   version="1.1"
   id="svg2"
   height="256"
   width="768">
  <title
     id="title8280">Typography Line Terms</title>
  <sodipodi:namedview
     id="base"
     pagecolor="#ffffff"
     bordercolor="#666666"
     borderopacity="1.0"
     inkscape:pageopacity="0.0"
     inkscape:pageshadow="2"
     inkscape:zoom="1"
     inkscape:cx="570.08701"
     inkscape:cy="161.64736"
     inkscape:document-units="px"
     inkscape:current-layer="layer1"
     showgrid="false"
     inkscape:window-width="1280"
     inkscape:window-height="875"
     inkscape:window-x="0"
     inkscape:window-y="25"
     inkscape:window-maximized="1"
     showguides="true"
     inkscape:guide-bbox="true"
     inkscape:snap-global="true" />
  <defs
     id="defs4">
    <marker
       inkscape:stockid="EmptyTriangleOutM"
       orient="auto"
       refY="0.0"
       refX="0.0"
       id="EmptyTriangleOutM"
       style="overflow:visible">
      <path
         id="path4227"
         d="M 5.77,0.0 L -2.88,5.0 L -2.88,-5.0 L 5.77,0.0 z "
         style="fill-rule:evenodd;fill:#FFFFFF;stroke:#000000;stroke-width:1.0pt;marker-start:none"
         transform="scale(0.4) translate(-4.5,0)" />
    </marker>
    <marker
       inkscape:stockid="EmptyTriangleInM"
       orient="auto"
       refY="0.0"
       refX="0.0"
       id="EmptyTriangleInM"
       style="overflow:visible">
      <path
         id="path4218"
         d="M 5.77,0.0 L -2.88,5.0 L -2.88,-5.0 L 5.77,0.0 z "
         style="fill-rule:evenodd;fill:#FFFFFF;stroke:#000000;stroke-width:1.0pt;marker-start:none"
         transform="scale(-0.4) translate(-4.5,0)" />
    </marker>
    <marker
       inkscape:stockid="EmptyTriangleInS"
       orient="auto"
       refY="0.0"
       refX="0.0"
       id="EmptyTriangleInS"
       style="overflow:visible">
      <path
         id="path4221"
         d="M 5.77,0.0 L -2.88,5.0 L -2.88,-5.0 L 5.77,0.0 z "
         style="fill-rule:evenodd;fill:#FFFFFF;stroke:#000000;stroke-width:1.0pt;marker-start:none"
         transform="scale(-0.2) translate(-3.0,0)" />
    </marker>
    <marker
       inkscape:stockid="TriangleOutM"
       orient="auto"
       refY="0"
       refX="0"
       id="TriangleOutM"
       style="overflow:visible">
      <path
         id="path4209"
         d="m 5.77,0 -8.65,5 0,-10 8.65,5 z"
         style="fill-rule:evenodd;stroke:#000000;stroke-width:1pt;marker-start:none"
         transform="scale(0.4,0.4)"
         inkscape:connector-curvature="0" />
    </marker>
    <marker
       inkscape:stockid="TriangleInM"
       orient="auto"
       refY="0"
       refX="0"
       id="TriangleInM"
       style="overflow:visible">
      <path
         id="path4200"
         d="m 5.77,0 -8.65,5 0,-10 8.65,5 z"
         style="fill-rule:evenodd;stroke:#000000;stroke-width:1pt;marker-start:none"
         transform="scale(-0.4,-0.4)"
         inkscape:connector-curvature="0" />
    </marker>
    <marker
       inkscape:stockid="EmptyTriangleInL"
       orient="auto"
       refY="0"
       refX="0"
       id="EmptyTriangleInL"
       style="overflow:visible">
      <path
         id="path4215"
         d="m 5.77,0 -8.65,5 0,-10 8.65,5 z"
         style="fill:#ffffff;fill-rule:evenodd;stroke:#000000;stroke-width:1pt;marker-start:none"
         transform="matrix(-0.8,0,0,-0.8,4.8,0)"
         inkscape:connector-curvature="0" />
    </marker>
    <marker
       inkscape:stockid="TriangleInL"
       orient="auto"
       refY="0"
       refX="0"
       id="TriangleInL"
       style="overflow:visible">
      <path
         id="path4197"
         d="m 5.77,0 -8.65,5 0,-10 8.65,5 z"
         style="fill-rule:evenodd;stroke:#000000;stroke-width:1pt;marker-start:none"
         transform="scale(-0.8,-0.8)"
         inkscape:connector-curvature="0" />
    </marker>
    <marker
       inkscape:stockid="Arrow2Lstart"
       orient="auto"
       refY="0"
       refX="0"
       id="Arrow2Lstart"
       style="overflow:visible">
      <path
         id="path4081"
         style="font-size:12px;fill-rule:evenodd;stroke-width:0.625;stroke-linejoin:round"
         d="M 8.7185878,4.0337352 -2.2072895,0.01601326 8.7185884,-4.0017078 c -1.7454984,2.3720609 -1.7354408,5.6174519 -6e-7,8.035443 z"
         transform="matrix(1.1,0,0,1.1,1.1,0)"
         inkscape:connector-curvature="0" />
    </marker>
    <marker
       inkscape:stockid="Arrow1Sstart"
       orient="auto"
       refY="0"
       refX="0"
       id="Arrow1Sstart"
       style="overflow:visible">
      <path
         id="path4075"
         d="M 0,0 5,-5 -12.5,0 5,5 0,0 z"
         style="fill-rule:evenodd;stroke:#000000;stroke-width:1pt;marker-start:none"
         transform="matrix(0.2,0,0,0.2,1.2,0)"
         inkscape:connector-curvature="0" />
    </marker>
    <marker
       inkscape:stockid="Arrow1Mstart"
       orient="auto"
       refY="0"
       refX="0"
       id="Arrow1Mstart"
       style="overflow:visible">
      <path
         id="path4069"
         d="M 0,0 5,-5 -12.5,0 5,5 0,0 z"
         style="fill-rule:evenodd;stroke:#000000;stroke-width:1pt;marker-start:none"
         transform="matrix(0.4,0,0,0.4,4,0)"
         inkscape:connector-curvature="0" />
    </marker>
  </defs>
  <metadata
     id="metadata7">
    <rdf:RDF>
      <cc:Work
         rdf:about="">
        <dc:format>image/svg+xml</dc:format>
        <dc:type
           rdf:resource="http://purl.org/dc/dcmitype/StillImage" />
        <dc:title>Typography Line Terms</dc:title>
        <dc:description>A diagram showing terms to do with letter height and positioning on the baseline. Alternative terms are colored in a lighter shade.</dc:description>
        <dc:contributor>
          <cc:Agent>
            <dc:title>lemongun.com</dc:title>
          </cc:Agent>
        </dc:contributor>
        <dc:creator>
          <cc:Agent>
            <dc:title>lemongun.com</dc:title>
          </cc:Agent>
        </dc:creator>
        <dc:language>English</dc:language>
        <cc:license
           rdf:resource="http://creativecommons.org/licenses/by-nc-sa/3.0/" />
      </cc:Work>
      <cc:License
         rdf:about="http://creativecommons.org/licenses/by-nc-sa/3.0/">
        <cc:permits
           rdf:resource="http://creativecommons.org/ns#Reproduction" />
        <cc:permits
           rdf:resource="http://creativecommons.org/ns#Distribution" />
        <cc:requires
           rdf:resource="http://creativecommons.org/ns#Notice" />
        <cc:requires
           rdf:resource="http://creativecommons.org/ns#Attribution" />
        <cc:prohibits
           rdf:resource="http://creativecommons.org/ns#CommercialUse" />
        <cc:permits
           rdf:resource="http://creativecommons.org/ns#DerivativeWorks" />
        <cc:requires
           rdf:resource="http://creativecommons.org/ns#ShareAlike" />
      </cc:License>
    </rdf:RDF>
  </metadata>
  <g
     transform="translate(0,-796.36218)"
     id="layer1"
     inkscape:groupmode="layer"
     inkscape:label="Layer 1">
    <g
       id="g8223"
       transform="translate(40.635481,-7.4064954)">
      <g
         transform="translate(54.500002,8.1440921)"
         id="g6357">
        <g
           style="stroke-width:0.5;stroke-miterlimit:4;stroke-dasharray:none"
           id="g3192"
           transform="translate(-10.195745,0)">
          <path
             style="fill:none;stroke:#ff0000;stroke-width:0.5;stroke-linecap:butt;stroke-linejoin:miter;stroke-miterlimit:4;stroke-opacity:1;stroke-dasharray:none"
             d="m 81.945745,141.5 366.249995,0"
             id="path3172"
             inkscape:connector-curvature="0"
             sodipodi:nodetypes="cc"
             transform="translate(0,796)" />
          <path
             sodipodi:nodetypes="cs"
             inkscape:connector-curvature="0"
             id="path3184"
             d="m 109.19575,953.5 360.24999,0"
             style="fill:none;stroke:#000000;stroke-width:0.5;stroke-linecap:butt;stroke-linejoin:miter;stroke-miterlimit:4;stroke-opacity:1;stroke-dasharray:none" />
          <path
             style="fill:none;stroke:#000000;stroke-width:0.5;stroke-linecap:butt;stroke-linejoin:miter;stroke-miterlimit:4;stroke-opacity:1;stroke-dasharray:none"
             d="m 81.945745,911.5 366.249995,0"
             id="path3186"
             inkscape:connector-curvature="0"
             sodipodi:nodetypes="cc" />
          <path
             sodipodi:nodetypes="cc"
             inkscape:connector-curvature="0"
             id="path3188"
             d="m 81.945745,897.5 366.249995,0"
             style="fill:none;stroke:#000000;stroke-width:0.5;stroke-linecap:butt;stroke-linejoin:miter;stroke-miterlimit:4;stroke-opacity:1;stroke-dasharray:none" />
          <path
             style="fill:none;stroke:#000000;stroke-width:0.5;stroke-linecap:butt;stroke-linejoin:miter;stroke-miterlimit:4;stroke-opacity:1;stroke-dasharray:none"
             d="m 277.94575,894.5 191.44574,0"
             id="path3190"
             inkscape:connector-curvature="0"
             sodipodi:nodetypes="cc" />
        </g>
        <g
           style="font-size:40px;font-style:normal;font-variant:normal;font-weight:normal;font-stretch:normal;line-height:125%;letter-spacing:0px;word-spacing:0px;fill:#000000;fill-opacity:1;stroke:none;font-family:MetaPro;-inkscape-font-specification:MetaPro"
           id="text3085">
          <path
             d="m 114.94275,898.82618 c -2.048,0 -1.472,0 -4.096,-0.128 -1.856,-0.064 -2.56,-0.32001 -3.52,-1.152 -0.384,-0.384 -0.768,-0.576 -0.96,-0.576 -0.256,0 -1.408,0.576 -1.344,1.152 0.192,3.00799 -0.32,5.824 -0.448,7.808 -0.064,1.53599 0.192,2.432 1.216,2.432 0.512,0 1.088,-0.70401 1.472,-1.792 1.472,-3.968 3.2,-4.736 4.16,-4.736 0.832,0 7.552,0.064 9.152,0.064 0.192,0 0.64,0.704 0.64,1.472 l 0,8.384 c 0,10.11199 -0.192,16.768 -0.192,18.112 0,4.35199 -1.088,4.544 -5.632,5.76 -1.152,0.32 -1.792,0.768 -1.792,1.28 0,0.704 0.64,1.216 1.984,1.216 1.728,0 3.328,-0.192 7.104,-0.192 3.84,0 8.512,0.32 9.152,0.32 1.28,0 1.92,-0.576 1.92,-1.088 0,-0.768 -0.704,-1.024 -1.856,-1.472 -3.2,-1.28 -4.288,-1.40801 -4.608,-6.016 -0.256,-3.648 -0.256,-9.53601 -0.256,-13.44 0,-4.032 0.128,-11.77601 0.32,-13.504 0.064,-0.384 0.576,-0.832 0.832,-0.832 5.43999,0 8.384,0.128 9.344,0.256 1.728,0.192 3.008,0.832 3.904,4.864 0.128,0.576 0.512,1.472 1.216,1.472 0.704,0 1.344,-0.89601 1.344,-1.792 0,-4.288 0.768,-8 0.768,-8.448 0,-0.448 -1.024,-1.216 -1.216,-1.216 -0.384,0 -0.832,0.448 -1.536,1.024 -0.576,0.576 -1.728,0.768 -5.312,0.768 l -21.76,0"
             style="font-size:64px;font-family:Garamond Premier Pro;-inkscape-font-specification:Garamond Premier Pro"
             id="path3060" />
          <path
             d="m 143.02075,912.65018 c 0,0.512 0.576,0.96 1.664,1.408 1.024,0.384 2.496,1.024 3.456,2.88 1.408,2.81599 4.672,10.816 6.336,15.552 l 1.6,4.096 c 0.128,0.32 0.192,1.472 0.128,1.792 -0.64,1.79199 -2.24,5.696 -2.496,6.336 -0.256,0.64 -0.768,1.408 -1.216,1.408 l -1.664,0 c -2.048,0 -3.52,1.792 -3.52,3.392 0,2.30399 1.6,3.648 3.584,3.648 1.408,0 2.944,-1.408 3.008,-1.728 0.576,-1.856 4.672,-11.64801 6.592,-16.448 1.408,-3.712 5.312,-13.18401 7.04,-16.96 1.088,-2.368 1.984,-3.328 3.776,-3.968 1.088,-0.384 1.6,-0.768 1.6,-1.344 0,-0.704 -0.832,-1.024 -1.472,-1.024 -1.216,0 -3.712,0.256 -4.928,0.256 -1.024,0 -1.92,-0.128 -3.264,-0.128 -0.896,0 -1.664,0.448 -1.664,1.024 0,0.512 0.768,1.024 1.664,1.344 1.728,0.576 2.112,1.152 1.728,2.368 -1.088,3.19999 -3.2,8.576 -5.184,13.504 -0.064,0.192 -0.512,0.32 -0.704,0 -1.728,-3.52 -4.992,-12.35201 -5.504,-13.952 -0.384,-1.152 -0.576,-1.6 0.832,-2.048 1.152,-0.32 1.472,-0.768 1.472,-1.152 0,-0.576 -0.512,-1.024 -1.6,-1.024 -0.576,0 -1.408,0.064 -2.944,0.064 -1.088,0 -6.272,-0.256 -6.848,-0.256 -0.896,0 -1.472,0.512 -1.472,0.96"
             style="font-size:64px;font-family:Garamond Premier Pro;-inkscape-font-specification:Garamond Premier Pro"
             id="path3062" />
          <path
             d="m 191.92775,911.24218 c -1.216,0 -2.368,0.192 -3.904,0.768 -0.704,0.256 -2.688,1.152 -4.288,2.112 -0.256,0.128 -0.64,-0.064 -0.64,-0.32 0,-0.768 0.192,-2.048 0.192,-2.56 0,-0.256 -0.64,-0.896 -0.896,-0.896 -0.448,0 -1.344,0.448 -2.176,0.96 -0.96,0.64 -3.136,1.536 -4.096,1.984 -0.704,0.384 -1.472,1.152 -1.472,1.728 0,0.192 0.256,0.512 1.152,1.088 2.048,1.47199 2.176,1.984 2.176,2.432 0.064,2.62399 0.192,4.92801 0.064,17.152 0,3.96799 -0.192,7.36 -0.384,11.136 -0.128,2.17599 -0.512,3.392 -3.52,4.224 -1.216,0.32 -1.728,0.896 -1.728,1.28 0,0.95999 1.088,1.152 1.856,1.152 0.832,0 4.032,-0.576 6.656,-0.576 2.944,0 5.376,-0.128 5.888,-0.128 1.088,0 1.792,-0.512 1.792,-1.216 0,-0.384 -0.448,-0.832 -1.92,-1.28 -3.264,-0.96 -3.456,-1.66401 -3.456,-2.496 -0.064,-2.176 0,-5.12001 0,-8 0,-0.512 0.448,-1.344 0.64,-1.28 0.448,0.128 1.6,0.128 2.368,0.128 1.344,0 5.248,-0.51201 7.04,-1.344 6.39999,-2.752 9.664,-7.68001 9.664,-13.888 0,-2.944 -1.344,-7.04001 -4.096,-9.472 -1.792,-1.664 -4.096,-2.688 -6.912,-2.688 m -2.816,3.712 c 5.63199,0 8.192,5.888 8.192,10.688 0,3.58399 -1.6,6.464 -3.008,7.936 -1.088,1.08799 -2.688,2.048 -4.992,2.048 -0.704,0 -3.584,-0.70401 -5.504,-3.456 -0.384,-0.576 -0.576,-1.40801 -0.576,-5.12 0,-2.624 0.064,-7.42401 0.192,-9.536 0.064,-0.576 0.704,-1.152 0.832,-1.216 1.152,-0.768 2.752,-1.344 4.864,-1.344"
             style="font-size:64px;font-family:Garamond Premier Pro;-inkscape-font-specification:Garamond Premier Pro"
             id="path3064" />
          <path
             d="m 222.85275,911.17818 c -3.328,0 -6.848,1.472 -8.96,3.264 -2.816,2.23999 -5.12,6.144 -5.12,10.624 0,2.87999 1.024,6.784 3.776,9.472 2.688,2.62399 6.336,4.16 10.112,4.16 4.224,0 7.36,-1.72801 9.664,-3.84 2.176,-1.984 4.16,-5.44001 4.16,-10.304 -0.064,-5.888 -4.80001,-13.376 -13.632,-13.376 m -0.96,2.688 c 5.43999,0 8.32,5.696 8.32,11.136 0,3.71199 -0.384,6.848 -1.728,8.576 -1.28,1.59999 -3.328,2.496 -4.864,2.496 -2.368,0 -4.224,-1.216 -4.864,-1.728 -2.624,-2.24 -3.84,-6.65601 -3.84,-10.24 0,-4.864 1.984,-7.744 2.624,-8.448 0.896,-0.96 2.944,-1.792 4.352,-1.792"
             style="font-size:64px;font-family:Garamond Premier Pro;-inkscape-font-specification:Garamond Premier Pro"
             id="path3066" />
          <path
             d="m 253.34175,911.17818 c -2.56,0 -6.08,1.408 -7.424,2.496 -2.368,2.04799 -3.584,4.16 -3.584,7.552 0,3.96799 2.176,6.272 4.8,7.936 0.192,0.064 0.192,0.32 0,0.576 -0.64,0.768 -3.136,2.624 -4.544,3.264 -0.192,0.064 -0.32,0.448 -0.32,0.64 0,2.62399 1.152,3.712 1.856,4.352 0.64,0.512 1.344,0.768 1.856,0.896 0.192,0.064 0.128,0.512 -0.128,0.64 -1.088,0.95999 -2.944,2.368 -3.968,3.136 -0.64,0.448 -1.344,2.304 -1.344,3.328 0,6.14399 7.424,8.192 11.52,8.192 5.18399,0 8.32,-1.47201 10.816,-2.944 2.752,-1.728 5.568,-5.12001 5.568,-9.152 0,-2.048 -1.152,-4.28801 -2.496,-5.376 -1.92,-1.6 -3.776,-1.856 -4.928,-1.856 -1.984,0 -6.592,-0.256 -10.432,-0.256 -0.32,0 -2.432,-0.32001 -2.432,-2.176 0,-0.576 0.832,-1.664 1.472,-1.984 0.32,-0.192 0.448,-0.32 0.96,-0.32 0.384,0 1.344,0.064 1.728,0.064 2.752,0 6.08,-0.89601 8.064,-2.56 2.432,-2.048 3.456,-4.41601 3.456,-7.296 0,-1.536 -0.512,-3.26401 -1.216,-4.48 1.408,0.064 4.16,0.384 5.568,0.384 0.064,0 0.768,-0.448 0.768,-1.088 0,-0.896 -0.448,-2.624 -0.96,-2.624 -0.384,0 -6.208,0.064 -6.976,0.064 -0.64,0 -1.536,-0.192 -2.368,-0.448 -1.024,-0.32 -3.008,-0.96 -5.312,-0.96 m -0.896,2.496 c 4.608,0 6.272,3.84 6.272,6.976 0,2.81599 -1.024,4.928 -1.472,5.568 -0.384,0.512 -1.856,1.344 -3.328,1.344 -2.688,0 -6.144,-1.98401 -6.144,-7.616 0,-2.88 1.472,-6.272 4.672,-6.272 m 2.56,37.248 c -4.48,0 -9.28,-1.92001 -9.28,-6.336 0,-1.536 0.576,-2.94401 2.688,-4.224 0.128,-0.064 1.984,-0.96 5.12,-0.96 2.304,0 4.352,0.192 5.504,0.384 2.24,0.384 4.544,1.6 4.608,4.48 0.064,2.62399 -1.344,4.224 -3.2,5.312 -1.472,0.95999 -4.16,1.344 -5.44,1.344"
             style="font-size:64px;font-family:Garamond Premier Pro;-inkscape-font-specification:Garamond Premier Pro"
             id="path3068" />
          <path
             d="m 272.84575,914.89018 c 0,0.384 0.704,0.96 1.408,1.472 1.536,1.08799 1.6,1.536 1.6,1.92 0,3.39199 -0.064,11.264 -0.192,14.144 -0.064,1.47199 -0.256,2.432 -2.752,3.328 -0.768,0.256 -1.472,0.64 -1.472,1.344 0,0.32 0.576,1.024 1.728,1.024 1.792,0 2.944,-0.192 5.184,-0.192 1.856,0 5.12,0.256 7.104,0.256 0.768,0 1.6,-0.576 1.6,-1.088 0,-0.576 -0.832,-1.088 -2.304,-1.472 -2.88,-0.768 -3.392,-1.40801 -3.584,-4.416 -0.192,-2.24 -0.128,-11.456 -0.128,-12.096 0,-0.384 0.32,-1.152 0.576,-1.472 0.832,-1.088 1.792,-1.472 2.944,-1.472 0.832,0 1.792,0.384 2.304,0.768 0.64,0.448 1.024,0.64 1.472,0.64 0.256,0 0.704,-0.192 1.024,-0.512 0.896,-0.704 2.56,-2.49601 2.56,-3.904 0,-0.704 -1.664,-1.984 -3.52,-1.984 -2.496,0 -5.056,1.728 -6.912,3.776 -0.192,0.256 -0.64,0 -0.64,-0.192 l -0.128,-3.136 c 0,-0.192 -0.512,-0.896 -0.768,-0.896 -0.512,0 -1.024,0.256 -1.856,0.64 -1.344,0.704 -3.328,1.6 -4.352,2.176 -0.512,0.256 -0.896,0.768 -0.896,1.344"
             style="font-size:64px;font-family:Garamond Premier Pro;-inkscape-font-specification:Garamond Premier Pro"
             id="path3070" />
          <path
             d="m 307.00575,911.17818 c -2.176,0 -5.12,1.28 -7.552,2.88 -2.752,1.91999 -4.608,3.904 -4.608,4.992 0,0.256 0.448,0.896 0.768,1.024 0.576,0.256 2.176,0.32 2.688,0.32 0.384,0 1.536,-0.256 1.856,-0.512 0.256,-0.192 0.512,-0.704 0.576,-1.408 0.128,-1.92 0.384,-2.816 0.64,-3.136 0.256,-0.256 1.536,-0.832 2.88,-0.832 1.984,0 4.736,1.088 5.632,3.584 0.192,0.576 0.192,0.96 0.192,1.664 l 0,2.432 c 0,0.384 -0.384,0.832 -0.704,0.96 -1.408,0.768 -4.41601,1.536 -10.88,3.072 -0.256,0.064 -1.6,0.64 -2.56,1.856 -0.448,0.576 -0.96,1.536 -0.96,3.072 0,5.18399 4.16,7.552 6.08,7.552 1.152,0 2.24,-0.32 3.392,-0.96 1.472,-0.832 3.584,-2.04801 4.928,-3.072 0.128,-0.064 0.64,0.256 0.64,0.32 0.832,3.32799 2.88,3.968 4.544,3.968 2.176,0 3.712,-1.02401 4.672,-2.304 0.128,-0.192 0.576,-1.408 0.576,-1.664 0,-0.512 -0.32,-1.152 -0.576,-1.024 -0.512,0.256 -1.664,0.576 -2.176,0.576 -1.216,0 -2.304,-1.02401 -2.304,-3.136 0,-7.168 0.256,-9.85601 0.256,-12.288 0,-1.344 -0.896,-4.35201 -2.176,-5.504 -1.856,-1.728 -3.456,-2.432 -5.824,-2.432 m -2.56,23.232 c -2.368,0 -4.288,-1.92001 -4.288,-3.968 0,-1.6 0.576,-2.304 2.368,-2.944 1.28,-0.448 4.992,-1.344 6.848,-1.664 0.192,0 0.512,0.128 0.512,0.384 l -0.064,4.096 c -0.064,0.768 -0.32,1.472 -0.512,1.92 -1.408,1.34399 -3.456,2.176 -4.864,2.176"
             style="font-size:64px;font-family:Garamond Premier Pro;-inkscape-font-specification:Garamond Premier Pro"
             id="path3072" />
          <path
             d="m 339.67775,911.24218 c -1.216,0 -2.368,0.192 -3.904,0.768 -0.704,0.256 -2.688,1.152 -4.288,2.112 -0.256,0.128 -0.64,-0.064 -0.64,-0.32 0,-0.768 0.192,-2.048 0.192,-2.56 0,-0.256 -0.64,-0.896 -0.896,-0.896 -0.448,0 -1.344,0.448 -2.176,0.96 -0.96,0.64 -3.136,1.536 -4.096,1.984 -0.704,0.384 -1.472,1.152 -1.472,1.728 0,0.192 0.256,0.512 1.152,1.088 2.048,1.47199 2.176,1.984 2.176,2.432 0.064,2.62399 0.192,4.92801 0.064,17.152 0,3.96799 -0.192,7.36 -0.384,11.136 -0.128,2.17599 -0.512,3.392 -3.52,4.224 -1.216,0.32 -1.728,0.896 -1.728,1.28 0,0.95999 1.088,1.152 1.856,1.152 0.832,0 4.032,-0.576 6.656,-0.576 2.944,0 5.376,-0.128 5.888,-0.128 1.088,0 1.792,-0.512 1.792,-1.216 0,-0.384 -0.448,-0.832 -1.92,-1.28 -3.264,-0.96 -3.456,-1.66401 -3.456,-2.496 -0.064,-2.176 0,-5.12001 0,-8 0,-0.512 0.448,-1.344 0.64,-1.28 0.448,0.128 1.6,0.128 2.368,0.128 1.344,0 5.248,-0.51201 7.04,-1.344 6.39999,-2.752 9.664,-7.68001 9.664,-13.888 0,-2.944 -1.344,-7.04001 -4.096,-9.472 -1.792,-1.664 -4.096,-2.688 -6.912,-2.688 m -2.816,3.712 c 5.63199,0 8.192,5.888 8.192,10.688 0,3.58399 -1.6,6.464 -3.008,7.936 -1.088,1.08799 -2.688,2.048 -4.992,2.048 -0.704,0 -3.584,-0.70401 -5.504,-3.456 -0.384,-0.576 -0.576,-1.40801 -0.576,-5.12 0,-2.624 0.064,-7.42401 0.192,-9.536 0.064,-0.576 0.704,-1.152 0.832,-1.216 1.152,-0.768 2.752,-1.344 4.864,-1.344"
             style="font-size:64px;font-family:Garamond Premier Pro;-inkscape-font-specification:Garamond Premier Pro"
             id="path3074" />
          <path
             d="m 372.85475,911.17818 c -1.664,0 -2.752,0.128 -4.096,0.64 -1.856,0.704 -3.584,1.856 -4.288,2.304 -0.128,0.064 -0.448,-0.128 -0.448,-0.576 0,-2.88 0.192,-13.76001 0.192,-16.064 0,-2.496 -0.448,-2.944 -0.704,-2.944 -0.576,0 -1.024,0.192 -1.92,0.512 -1.472,0.64 -3.584,1.472 -4.48,1.728 -0.704,0.192 -1.344,0.64 -1.344,1.28 0,0.32 0.384,0.96 1.408,1.6 1.088,0.576 1.408,1.024 1.536,2.56 0.128,1.79199 0.256,4.48 0.256,13.248 0,14.01598 -0.256,16.384 -0.384,17.6 -0.128,1.40799 -0.96,2.112 -2.816,2.688 -1.024,0.32 -1.664,0.64 -1.664,1.344 0,0.576 0.576,1.024 1.856,1.024 1.088,0 3.456,-0.192 5.12,-0.192 1.728,0 3.712,0.192 4.864,0.192 0.96,0 1.664,-0.64 1.664,-1.344 0,-0.32 -0.512,-0.64 -1.28,-0.96 -1.536,-0.768 -2.176,-1.408 -2.176,-1.856 -0.128,-1.472 -0.128,-14.52801 -0.128,-15.872 0,-0.32 0.512,-1.408 0.704,-1.536 1.28,-1.216 2.752,-1.856 5.696,-1.856 1.856,0 3.968,1.088 4.864,2.176 0.832,1.08799 1.28,2.496 1.344,4.352 0.064,2.81599 0,9.6 0,11.136 0,2.30399 -0.384,2.816 -2.496,3.52 -1.024,0.384 -1.472,0.832 -1.472,1.216 0,0.64 0.832,1.024 1.92,1.024 1.728,0 3.328,-0.192 4.672,-0.192 1.792,0 3.008,0.192 4.736,0.192 0.704,0 1.856,-0.19201 1.856,-1.024 0,-0.576 -0.576,-1.152 -1.6,-1.472 -2.048,-0.704 -2.304,-1.28001 -2.304,-2.688 0,-0.96 -0.192,-8.25601 -0.192,-10.304 0,-3.392 -0.832,-6.91201 -2.368,-8.576 -1.152,-1.344 -2.944,-2.88 -6.528,-2.88"
             style="font-size:64px;font-family:Garamond Premier Pro;-inkscape-font-specification:Garamond Premier Pro"
             id="path3076" />
          <path
             d="m 386.14575,912.65018 c 0,0.512 0.576,0.96 1.664,1.408 1.024,0.384 2.496,1.024 3.456,2.88 1.408,2.81599 4.672,10.816 6.336,15.552 l 1.6,4.096 c 0.128,0.32 0.192,1.472 0.128,1.792 -0.64,1.79199 -2.24,5.696 -2.496,6.336 -0.256,0.64 -0.768,1.408 -1.216,1.408 l -1.664,0 c -2.048,0 -3.52,1.792 -3.52,3.392 0,2.30399 1.6,3.648 3.584,3.648 1.408,0 2.944,-1.408 3.008,-1.728 0.576,-1.856 4.672,-11.64801 6.592,-16.448 1.408,-3.712 5.312,-13.18401 7.04,-16.96 1.088,-2.368 1.984,-3.328 3.776,-3.968 1.088,-0.384 1.6,-0.768 1.6,-1.344 0,-0.704 -0.832,-1.024 -1.472,-1.024 -1.216,0 -3.712,0.256 -4.928,0.256 -1.024,0 -1.92,-0.128 -3.264,-0.128 -0.896,0 -1.664,0.448 -1.664,1.024 0,0.512 0.768,1.024 1.664,1.344 1.728,0.576 2.112,1.152 1.728,2.368 -1.088,3.19999 -3.2,8.576 -5.184,13.504 -0.064,0.192 -0.512,0.32 -0.704,0 -1.728,-3.52 -4.992,-12.35201 -5.504,-13.952 -0.384,-1.152 -0.576,-1.6 0.832,-2.048 1.152,-0.32 1.472,-0.768 1.472,-1.152 0,-0.576 -0.512,-1.024 -1.6,-1.024 -0.576,0 -1.408,0.064 -2.944,0.064 -1.088,0 -6.272,-0.256 -6.848,-0.256 -0.896,0 -1.472,0.512 -1.472,0.96"
             style="font-size:64px;font-family:Garamond Premier Pro;-inkscape-font-specification:Garamond Premier Pro"
             id="path3078" />
        </g>
      </g>
      <g
         transform="translate(0,812.36218)"
         style="font-size:12px;font-style:normal;font-variant:normal;font-weight:normal;font-stretch:normal;line-height:125%;letter-spacing:0px;word-spacing:0px;fill:#000000;fill-opacity:1;stroke:none;font-family:MetaPro;-inkscape-font-specification:MetaPro"
         id="flowRoot6367" />
      <g
         transform="translate(0,812.36218)"
         style="font-size:40px;font-style:normal;font-variant:normal;font-weight:normal;font-stretch:normal;line-height:125%;letter-spacing:0px;word-spacing:0px;fill:#000000;fill-opacity:1;stroke:none;font-family:MetaPro;-inkscape-font-specification:MetaPro"
         id="text6383" />
      <g
         id="g8182">
        <g
           id="g8096">
          <g
             transform="translate(-20.987752,914.85655)"
             style="font-size:40px;font-style:normal;font-variant:normal;font-weight:normal;font-stretch:normal;line-height:125%;letter-spacing:0px;word-spacing:0px;fill:#000000;fill-opacity:1;stroke:none;font-family:MetaPro;-inkscape-font-specification:MetaPro"
             id="flowRoot6375">
            <path
               d="m 102.5335,31.799235 c 0,-2.079997 -1.014,-3.38 -2.639,-3.38 -0.610999,0 -1.079,0.169001 -1.417,0.533 0.026,-0.103999 0.039,-0.39 0.039,-0.585 l 0,-1.573 c 0,-0.454999 -0.013,-0.728 -0.065,-1.183 l -1.781,0.416 c 0.091,0.377 0.117,0.819001 0.117,1.638 l 0,6.162 c 0,0.923 -0.039,1.118001 -0.169,1.417 l 1.56,0 c 0.117,-0.181999 0.13,-0.247 0.182,-0.481 0.377,0.416 0.832001,0.611 1.482,0.611 0.546,0 1.001,-0.156 1.456,-0.52 0.819,-0.649999 1.235,-1.703001 1.235,-3.055 m -1.976,0.039 c 0,0.819 -0.039,1.170001 -0.195,1.534 -0.143,0.351 -0.416,0.52 -0.845,0.52 -0.468,0 -0.741,-0.221 -0.975,-0.429 l 0,-3.068 c 0.221,-0.246999 0.533,-0.533 0.988,-0.533 0.455,0 0.819,0.273001 0.949,0.845 0.065,0.286 0.078,0.533001 0.078,1.131"
               style="font-size:13px;font-weight:bold;font-family:MetaPro;-inkscape-font-specification:MetaPro Bold"
               id="path3083" />
            <path
               d="m 109.45783,34.516235 c -0.585,-0.441999 -0.637,-0.754 -0.624,-1.482 l 0.039,-2.236 c 0.013,-0.714999 -0.026,-0.923 -0.117,-1.196 -0.26,-0.740999 -1.027,-1.157 -2.145,-1.157 -0.611,0 -1.17,0.117001 -1.82,0.39 -0.468,0.195 -0.728,0.325001 -1.079,0.546 l 0.741,1.248 c 0.715,-0.480999 1.365,-0.754 1.924,-0.754 0.637,0 0.78,0.247001 0.78,0.988 l 0,0.273 c -0.143,-0.013 -0.26,-0.013 -0.39,-0.013 -2.119,0 -3.198,0.728002 -3.198,2.288 0,1.325999 0.806,2.08 2.288,2.08 0.546,0 1.014,-0.13 1.339,-0.364 0.13,-0.091 0.273,-0.221 0.403,-0.351 0.169,0.338 0.533,0.637001 0.936,0.806 l 0.923,-1.066 m -2.327,-2.184 -0.026,1.43 c -0.26,0.286 -0.585,0.455 -0.91,0.455 -0.442,0 -0.767,-0.351 -0.767,-0.871 0,-0.792999 0.416,-1.014 1.625,-1.014 l 0.078,0"
               style="font-size:13px;font-weight:bold;font-family:MetaPro;-inkscape-font-specification:MetaPro Bold"
               id="path3085" />
            <path
               d="m 115.62917,33.138235 c 0,-0.441999 -0.117,-0.819 -0.364,-1.131 -0.234,-0.298999 -0.507,-0.546 -1.326,-0.754 l -0.806,-0.208 c -0.611,-0.155999 -0.832,-0.338 -0.832,-0.676 0,-0.389999 0.338,-0.65 0.845,-0.65 0.494,0 0.975,0.143001 1.638,0.481 l 0.572,-1.17 c -0.611,-0.298999 -1.313,-0.624 -2.379,-0.624 -1.547,0 -2.574,0.871002 -2.574,2.171 0,0.429 0.143,0.910001 0.377,1.196 0.234,0.286 0.78,0.598001 1.222,0.676 l 0.78,0.143 c 0.702,0.13 1.027,0.364001 1.027,0.819 0,0.429 -0.39,0.754 -0.884,0.754 -0.754,0 -1.677,-0.429 -2.21,-0.754 l -0.624,1.274 c 0.975,0.507 1.872,0.767 2.691,0.767 1.703,0 2.847,-0.936001 2.847,-2.314"
               style="font-size:13px;font-weight:bold;font-family:MetaPro;-inkscape-font-specification:MetaPro Bold"
               id="path3087" />
            <path
               d="m 122.39222,32.462235 0,-0.403 c 0,-1.390998 -0.273,-2.288 -0.884,-2.912 -0.429,-0.441999 -1.157,-0.702 -1.924,-0.702 -0.884,0 -1.547,0.286001 -2.093,0.897 -0.585,0.65 -0.832,1.443002 -0.832,2.639 0,2.092998 1.235,3.445 3.146,3.445 0.936,0 1.742,-0.299 2.509,-0.923 l -0.676,-1.04 c -0.533,0.442 -1.092,0.663 -1.69,0.663 -0.897,0 -1.404,-0.585001 -1.404,-1.612 l 0,-0.052 3.848,0 m -1.807,-1.274 -2.015,0 0,-0.026 c 0,-0.922999 0.377,-1.443 1.04,-1.443 0.351,0 0.598,0.130001 0.767,0.39 0.156,0.247 0.208,0.507001 0.208,1.001 l 0,0.078"
               style="font-size:13px;font-weight:bold;font-family:MetaPro;-inkscape-font-specification:MetaPro Bold"
               id="path3089" />
            <path
               d="m 126.49534,35.218235 -0.299,-1.04 c -0.091,0.026 -0.13,0.026 -0.195,0.026 -0.143,0 -0.286,-0.065 -0.351,-0.182 -0.104,-0.181999 -0.117,-0.338001 -0.117,-1.482 l 0,-5.187 c 0,-0.935999 -0.026,-1.365 -0.091,-1.729 l -1.781,0.403 c 0.065,0.598 0.091,1.131001 0.091,2.002 l 0,4.966 c 0,0.948999 0.026,1.157001 0.156,1.495 0.208,0.559 0.806,0.91 1.547,0.91 0.377,0 0.741,-0.065 1.04,-0.182"
               style="font-size:13px;font-weight:bold;font-family:MetaPro;-inkscape-font-specification:MetaPro Bold"
               id="path3091" />
            <path
               d="m 129.27755,35.244235 0,-6.812 -1.742,0.273 0,6.539 1.742,0 m 0.208,-8.489 c 0,-0.597999 -0.468,-1.079 -1.053,-1.079 -0.598,0 -1.092,0.481001 -1.092,1.079 0,0.598 0.481,1.079 1.066,1.079 0.598,0 1.079,-0.481 1.079,-1.079"
               style="font-size:13px;font-weight:bold;font-family:MetaPro;-inkscape-font-specification:MetaPro Bold"
               id="path3093" />
            <path
               d="m 136.46919,35.244235 0,-4.862 c 0,-0.415999 -0.039,-0.702 -0.13,-0.949 -0.208,-0.571999 -0.858,-0.962 -1.599,-0.962 -0.39,0 -0.845,0.104001 -1.196,0.286 -0.286,0.156 -0.507,0.312001 -0.767,0.494 0,-0.272999 -0.091,-0.559 -0.247,-0.832 l -1.547,0.442 c 0.156,0.442 0.234,0.988001 0.234,1.56 l 0,4.823 1.742,0 0,-4.706 c 0.403,-0.363999 0.858,-0.598 1.209,-0.598 0.455,0 0.585,0.221001 0.585,0.975 l 0,4.329 1.716,0"
               style="font-size:13px;font-weight:bold;font-family:MetaPro;-inkscape-font-specification:MetaPro Bold"
               id="path3095" />
            <path
               d="m 143.77112,32.462235 0,-0.403 c 0,-1.390998 -0.273,-2.288 -0.884,-2.912 -0.42899,-0.441999 -1.157,-0.702 -1.924,-0.702 -0.88399,0 -1.547,0.286001 -2.093,0.897 -0.58499,0.65 -0.832,1.443002 -0.832,2.639 0,2.092998 1.23501,3.445 3.146,3.445 0.936,0 1.74201,-0.299 2.509,-0.923 l -0.676,-1.04 c -0.53299,0.442 -1.092,0.663 -1.69,0.663 -0.89699,0 -1.404,-0.585001 -1.404,-1.612 l 0,-0.052 3.848,0 m -1.807,-1.274 -2.015,0 0,-0.026 c 0,-0.922999 0.37701,-1.443 1.04,-1.443 0.351,0 0.59801,0.130001 0.767,0.39 0.156,0.247 0.208,0.507001 0.208,1.001 l 0,0.078"
               style="font-size:13px;font-weight:bold;font-family:MetaPro;-inkscape-font-specification:MetaPro Bold"
               id="path3097" />
          </g>
          <g
             transform="translate(-14.107488,887.70982)"
             style="font-size:13px;font-style:normal;font-variant:normal;font-weight:normal;font-stretch:normal;line-height:125%;letter-spacing:0px;word-spacing:0px;fill:#000000;fill-opacity:1;stroke:none;font-family:MetaPro;-inkscape-font-specification:MetaPro"
             id="flowRoot6375-7">
            <path
               d="m 105.2765,35.244235 0,-4.732 c 0,-0.909999 -0.117,-1.3 -0.494,-1.625 -0.299,-0.259999 -0.793,-0.416 -1.313,-0.416 -0.728,0 -1.274,0.247001 -1.885,0.871 -0.078,-0.116999 -0.169,-0.234 -0.26,-0.325 -0.351,-0.363999 -0.806,-0.546 -1.352,-0.546 -0.610999,0 -1.17,0.234001 -1.625,0.676 -0.065,-0.337999 -0.117,-0.494 -0.234,-0.676 l -1.573,0.429 c 0.182,0.325 0.247,0.741001 0.247,1.703 l 0,4.641 1.703,0 0,-4.849 c 0.377,-0.337999 0.819,-0.507 1.144,-0.507 0.481,0 0.598,0.195001 0.598,1.027 l 0,4.329 1.651,0 0,-4.784 c 0.377,-0.337999 0.832,-0.559 1.157,-0.559 0.455,0 0.546,0.156001 0.546,0.949 l 0,4.394 1.69,0"
               style="font-weight:bold;font-family:MetaPro;-inkscape-font-specification:MetaPro Bold"
               id="path3100" />
            <path
               d="m 112.56605,32.462235 0,-0.403 c 0,-1.390998 -0.273,-2.288 -0.884,-2.912 -0.429,-0.441999 -1.157,-0.702 -1.924,-0.702 -0.884,0 -1.547,0.286001 -2.093,0.897 -0.585,0.65 -0.832,1.443002 -0.832,2.639 0,2.092998 1.235,3.445 3.146,3.445 0.936,0 1.742,-0.299 2.509,-0.923 l -0.676,-1.04 c -0.533,0.442 -1.092,0.663 -1.69,0.663 -0.897,0 -1.404,-0.585001 -1.404,-1.612 l 0,-0.052 3.848,0 m -1.807,-1.274 -2.015,0 0,-0.026 c 0,-0.922999 0.377,-1.443 1.04,-1.443 0.351,0 0.598,0.130001 0.767,0.39 0.156,0.247 0.208,0.507001 0.208,1.001 l 0,0.078"
               style="font-weight:bold;font-family:MetaPro;-inkscape-font-specification:MetaPro Bold"
               id="path3102" />
            <path
               d="m 119.49017,35.244235 c -0.117,-0.259999 -0.247,-0.793001 -0.247,-2.431 l 0,-6.916 -1.729,-0.273 0,2.288 c 0,0.39 0.026,0.845001 0.052,0.988 -0.325,-0.259999 -0.702,-0.377 -1.183,-0.377 -1.69,0 -2.847,1.430003 -2.847,3.51 0,2.066998 1.066,3.38 2.756,3.38 0.598,0 1.105,-0.182 1.534,-0.559 0.026,0.182 0.052,0.286001 0.104,0.39 l 1.56,0 m -1.95,-1.729 c -0.169,0.208 -0.533,0.429 -0.858,0.429 -0.91,0 -1.209,-0.468001 -1.209,-1.898 0,-1.481998 0.338,-2.132 1.118,-2.132 0.312,0 0.624,0.143001 0.949,0.429 l 0,3.172"
               style="font-weight:bold;font-family:MetaPro;-inkscape-font-specification:MetaPro Bold"
               id="path3104" />
            <path
               d="m 122.92989,35.244235 0,-6.812 -1.742,0.273 0,6.539 1.742,0 m 0.208,-8.489 c 0,-0.597999 -0.468,-1.079 -1.053,-1.079 -0.598,0 -1.092,0.481001 -1.092,1.079 0,0.598 0.481,1.079 1.066,1.079 0.598,0 1.079,-0.481 1.079,-1.079"
               style="font-weight:bold;font-family:MetaPro;-inkscape-font-specification:MetaPro Bold"
               id="path3106" />
            <path
               d="m 130.22736,34.516235 c -0.585,-0.441999 -0.637,-0.754 -0.624,-1.482 l 0.039,-2.236 c 0.013,-0.714999 -0.026,-0.923 -0.117,-1.196 -0.26,-0.740999 -1.027,-1.157 -2.145,-1.157 -0.611,0 -1.17,0.117001 -1.82,0.39 -0.468,0.195 -0.728,0.325001 -1.079,0.546 l 0.741,1.248 c 0.715,-0.480999 1.365,-0.754 1.924,-0.754 0.637,0 0.78,0.247001 0.78,0.988 l 0,0.273 c -0.143,-0.013 -0.26,-0.013 -0.39,-0.013 -2.119,0 -3.198,0.728002 -3.198,2.288 0,1.325999 0.806,2.08 2.288,2.08 0.546,0 1.014,-0.13 1.339,-0.364 0.13,-0.091 0.273,-0.221 0.403,-0.351 0.169,0.338 0.533,0.637001 0.936,0.806 l 0.923,-1.066 m -2.327,-2.184 -0.026,1.43 c -0.26,0.286 -0.585,0.455 -0.91,0.455 -0.442,0 -0.767,-0.351 -0.767,-0.871 0,-0.792999 0.416,-1.014 1.625,-1.014 l 0.078,0"
               style="font-weight:bold;font-family:MetaPro;-inkscape-font-specification:MetaPro Bold"
               id="path3108" />
            <path
               d="m 136.82466,35.244235 0,-4.862 c 0,-0.415999 -0.039,-0.702 -0.13,-0.949 -0.208,-0.571999 -0.858,-0.962 -1.599,-0.962 -0.39,0 -0.845,0.104001 -1.196,0.286 -0.286,0.156 -0.507,0.312001 -0.767,0.494 0,-0.272999 -0.091,-0.559 -0.247,-0.832 l -1.547,0.442 c 0.156,0.442 0.234,0.988001 0.234,1.56 l 0,4.823 1.742,0 0,-4.706 c 0.403,-0.363999 0.858,-0.598 1.209,-0.598 0.455,0 0.585,0.221001 0.585,0.975 l 0,4.329 1.716,0"
               style="font-weight:bold;font-family:MetaPro;-inkscape-font-specification:MetaPro Bold"
               id="path3110" />
          </g>
          <g
             transform="translate(-32.761871,873.49447)"
             style="font-size:40px;font-style:normal;font-variant:normal;font-weight:normal;font-stretch:normal;line-height:125%;letter-spacing:0px;word-spacing:0px;fill:#000000;fill-opacity:1;stroke:none;font-family:MetaPro;-inkscape-font-specification:MetaPro"
             id="flowRoot6375-8">
            <path
               d="m 101.5325,34.490235 -0.793,-1.053 -0.104,0.091 c -0.429,0.377 -0.793,0.546 -1.196,0.546 -0.299,0 -0.598,-0.143 -0.78,-0.377 -0.221,-0.285999 -0.338,-0.806 -0.338,-1.677 0,-1.559998 0.351001,-2.236 1.131,-2.236 0.325,0 0.702,0.195001 1.053,0.52 l 0.845,-1.144 c -0.286,-0.246999 -0.403,-0.338 -0.65,-0.468 -0.364,-0.194999 -0.845,-0.299 -1.287,-0.299 -0.558999,0 -1.209,0.195001 -1.651,0.494 -0.779999,0.533 -1.365,1.547002 -1.365,3.081 0,2.157998 1.066002,3.432 2.899,3.432 0.636999,0 1.157,-0.143 1.625,-0.416 0.234,-0.142999 0.351,-0.234 0.611,-0.494"
               style="font-size:13px;font-weight:bold;font-family:MetaPro;-inkscape-font-specification:MetaPro Bold"
               id="path3113" />
            <path
               d="m 108.06134,34.516235 c -0.585,-0.441999 -0.637,-0.754 -0.624,-1.482 l 0.039,-2.236 c 0.013,-0.714999 -0.026,-0.923 -0.117,-1.196 -0.26,-0.740999 -1.027,-1.157 -2.145,-1.157 -0.611,0 -1.17,0.117001 -1.82,0.39 -0.468,0.195 -0.728,0.325001 -1.079,0.546 l 0.741,1.248 c 0.715,-0.480999 1.365,-0.754 1.924,-0.754 0.637,0 0.78,0.247001 0.78,0.988 l 0,0.273 c -0.143,-0.013 -0.26,-0.013 -0.39,-0.013 -2.11899,0 -3.198,0.728002 -3.198,2.288 0,1.325999 0.80601,2.08 2.288,2.08 0.546,0 1.014,-0.13 1.339,-0.364 0.13,-0.091 0.273,-0.221 0.403,-0.351 0.169,0.338 0.533,0.637001 0.936,0.806 l 0.923,-1.066 m -2.327,-2.184 -0.026,1.43 c -0.26,0.286 -0.585,0.455 -0.91,0.455 -0.442,0 -0.767,-0.351 -0.767,-0.871 0,-0.792999 0.416,-1.014 1.625,-1.014 l 0.078,0"
               style="font-size:13px;font-weight:bold;font-family:MetaPro;-inkscape-font-specification:MetaPro Bold"
               id="path3115" />
            <path
               d="m 115.15264,31.734235 c 0,-1.533998 -0.52,-2.392 -1.235,-2.873 -0.364,-0.246999 -0.845,-0.403 -1.313,-0.403 -0.676,0 -1.339,0.260001 -1.638,0.624 -0.013,-0.207999 -0.052,-0.39 -0.117,-0.624 l -1.547,0.273 c 0.091,0.559 0.104,0.806001 0.104,1.677 l 0,7.696 1.677,-0.442 0,-2.08 c 0,-0.194999 0,-0.39 -0.026,-0.546 0.377,0.221 0.871,0.351 1.391,0.351 0.728,0 1.326,-0.273 1.781,-0.754 0.689,-0.740999 0.923,-1.469001 0.923,-2.899 m -1.898,0.169 c 0,1.520999 -0.338,2.106 -1.196,2.106 -0.351,0 -0.728,-0.195 -0.962,-0.39 l 0,-3.237 c 0.312,-0.324999 0.728,-0.507 1.157,-0.507 0.429,0 0.702,0.195001 0.832,0.559 0.117,0.325 0.169,0.832001 0.169,1.469"
               style="font-size:13px;font-weight:bold;font-family:MetaPro;-inkscape-font-specification:MetaPro Bold"
               id="path3117" />
            <path
               d="m 125.16406,35.244235 0,-4.654 c 0,-0.636999 -0.039,-0.858 -0.169,-1.235 -0.208,-0.584999 -0.884,-0.949 -1.729,-0.949 -0.676,0 -1.43,0.286001 -1.885,0.715 0,-0.078 0.026,-0.351 0.026,-0.559 l 0,-1.326 c 0,-0.636999 -0.039,-1.261 -0.117,-1.625 l -1.781,0.416 c 0.078,0.273 0.13,0.897001 0.13,1.521 l 0,7.696 1.768,0 0,-4.771 c 0.39,-0.350999 0.949,-0.611 1.378,-0.611 0.494,0 0.676,0.247001 0.676,0.91 l 0,4.472 1.703,0"
               style="font-size:13px;font-weight:bold;font-family:MetaPro;-inkscape-font-specification:MetaPro Bold"
               id="path3119" />
            <path
               d="m 132.44691,32.462235 0,-0.403 c 0,-1.390998 -0.273,-2.288 -0.884,-2.912 -0.429,-0.441999 -1.157,-0.702 -1.924,-0.702 -0.884,0 -1.547,0.286001 -2.093,0.897 -0.585,0.65 -0.832,1.443002 -0.832,2.639 0,2.092998 1.235,3.445 3.146,3.445 0.936,0 1.742,-0.299 2.509,-0.923 l -0.676,-1.04 c -0.533,0.442 -1.092,0.663 -1.69,0.663 -0.897,0 -1.404,-0.585001 -1.404,-1.612 l 0,-0.052 3.848,0 m -1.807,-1.274 -2.015,0 0,-0.026 c 0,-0.922999 0.377,-1.443 1.04,-1.443 0.351,0 0.598,0.130001 0.767,0.39 0.156,0.247 0.208,0.507001 0.208,1.001 l 0,0.078"
               style="font-size:13px;font-weight:bold;font-family:MetaPro;-inkscape-font-specification:MetaPro Bold"
               id="path3121" />
            <path
               d="m 135.54903,35.244235 0,-6.812 -1.742,0.273 0,6.539 1.742,0 m 0.208,-8.489 c 0,-0.597999 -0.468,-1.079 -1.053,-1.079 -0.598,0 -1.092,0.481001 -1.092,1.079 0,0.598 0.481,1.079 1.066,1.079 0.598,0 1.079,-0.481 1.079,-1.079"
               style="font-size:13px;font-weight:bold;font-family:MetaPro;-inkscape-font-specification:MetaPro Bold"
               id="path3123" />
            <path
               d="m 144.07967,29.316235 -0.728,-1.105 c -0.403,0.364 -0.897,0.572 -1.378,0.572 -0.221,0 -0.455,-0.052 -0.819,-0.143 -0.481,-0.116999 -0.819,-0.169 -1.196,-0.169 -1.703,0 -2.808,0.884002 -2.808,2.249 0,0.987999 0.468,1.599001 1.43,1.846 -1.092,0.286 -1.222,0.689001 -1.222,1.118 0,0.455 0.195,0.754001 0.507,0.871 0.312,0.13 0.819,0.195 1.599,0.208 l 0.741,0.013 c 0.689,0.013 1.222,0.195001 1.222,0.793 0,0.273 -0.169,0.520001 -0.429,0.676 -0.273,0.169 -0.65,0.221 -1.092,0.221 -0.806,0 -1.248,-0.286 -1.248,-0.819 0,-0.181999 0.013,-0.273 0.078,-0.429 l -1.612,0 c -0.065,0.13 -0.156,0.312001 -0.156,0.676 0,0.455 0.182,0.845001 0.546,1.183 0.598,0.559 1.573,0.715 2.522,0.715 1.04,0 2.041,-0.234 2.626,-0.858 0.364,-0.389999 0.533,-0.819 0.533,-1.378 0,-0.597999 -0.182,-1.053 -0.572,-1.417 -0.468,-0.428999 -1.001,-0.585 -2.015,-0.598 l -0.936,-0.013 c -0.182,0 -0.286,-0.065 -0.286,-0.156 0,-0.181999 0.247,-0.338 0.689,-0.546 0.13,0.013 0.182,0.013 0.26,0.013 1.417,0 2.457,-0.832001 2.457,-1.976 0,-0.441999 -0.13,-0.78 -0.39,-1.092 0.104,0.013 0.286,0.039 0.455,0.039 0.481,0 0.845,-0.143 1.222,-0.494 m -3.081,1.417 c 0,0.611 -0.377,0.949 -1.066,0.949 -0.611,0 -1.027,-0.273 -1.027,-0.949 0,-0.623999 0.377,-0.988 1.04,-0.988 0.663,0 1.053,0.364001 1.053,0.988"
               style="font-size:13px;font-weight:bold;font-family:MetaPro;-inkscape-font-specification:MetaPro Bold"
               id="path3125" />
            <path
               d="m 150.32617,35.244235 0,-4.654 c 0,-0.636999 -0.039,-0.858 -0.169,-1.235 -0.208,-0.584999 -0.884,-0.949 -1.729,-0.949 -0.676,0 -1.43,0.286001 -1.885,0.715 0,-0.078 0.026,-0.351 0.026,-0.559 l 0,-1.326 c 0,-0.636999 -0.039,-1.261 -0.117,-1.625 l -1.781,0.416 c 0.078,0.273 0.13,0.897001 0.13,1.521 l 0,7.696 1.768,0 0,-4.771 c 0.39,-0.350999 0.949,-0.611 1.378,-0.611 0.494,0 0.676,0.247001 0.676,0.91 l 0,4.472 1.703,0"
               style="font-size:13px;font-weight:bold;font-family:MetaPro;-inkscape-font-specification:MetaPro Bold"
               id="path3127" />
            <path
               d="m 155.59402,35.101235 -0.221,-1.04 c -0.312,0.091 -0.468,0.13 -0.624,0.13 -0.598,0 -0.754,-0.221 -0.754,-1.066 l 0,-3.341 1.118,0 0.442,-1.196 -1.56,0 c 0,-0.675999 0.039,-1.404 0.104,-2.015 l -1.768,0.442 c -0.065,0.494 -0.065,0.923001 -0.065,1.573 l -0.663,0 0,1.196 0.663,0 0,3.614 c 0,0.611 0.013,0.741001 0.117,1.027 0.208,0.585 0.91,0.975 1.794,0.975 0.455,0 0.91,-0.091 1.417,-0.299"
               style="font-size:13px;font-weight:bold;font-family:MetaPro;-inkscape-font-specification:MetaPro Bold"
               id="path3129" />
          </g>
          <g
             transform="translate(421,870.50444)"
             style="font-size:40px;font-style:normal;font-variant:normal;font-weight:normal;font-stretch:normal;line-height:125%;letter-spacing:0px;word-spacing:0px;fill:#000000;fill-opacity:1;stroke:none;font-family:MetaPro;-inkscape-font-specification:MetaPro"
             id="flowRoot6375-8-0">
            <path
               d="m 102.2215,34.516235 c -0.585,-0.441999 -0.637,-0.754 -0.624,-1.482 l 0.039,-2.236 c 0.013,-0.714999 -0.026,-0.923 -0.117,-1.196 -0.26,-0.740999 -1.027,-1.157 -2.145,-1.157 -0.610999,0 -1.170001,0.117001 -1.82,0.39 -0.468,0.195 -0.728,0.325001 -1.079,0.546 l 0.741,1.248 c 0.714999,-0.480999 1.365001,-0.754 1.924,-0.754 0.636999,0 0.78,0.247001 0.78,0.988 l 0,0.273 c -0.143,-0.013 -0.26,-0.013 -0.39,-0.013 -2.118998,0 -3.198,0.728002 -3.198,2.288 0,1.325999 0.806001,2.08 2.288,2.08 0.545999,0 1.014,-0.13 1.339,-0.364 0.13,-0.091 0.273,-0.221 0.403,-0.351 0.169,0.338 0.533,0.637001 0.936,0.806 l 0.923,-1.066 m -2.327,-2.184 -0.026,1.43 c -0.26,0.286 -0.585,0.455 -0.91,0.455 -0.442,0 -0.767,-0.351 -0.767,-0.871 0,-0.792999 0.416001,-1.014 1.625,-1.014 l 0.078,0"
               style="font-size:13px;font-weight:bold;font-family:MetaPro;-inkscape-font-specification:MetaPro Bold"
               id="path3132" />
            <path
               d="m 108.39284,33.138235 c 0,-0.441999 -0.117,-0.819 -0.364,-1.131 -0.234,-0.298999 -0.507,-0.546 -1.326,-0.754 l -0.806,-0.208 c -0.611,-0.155999 -0.832,-0.338 -0.832,-0.676 0,-0.389999 0.338,-0.65 0.845,-0.65 0.494,0 0.975,0.143001 1.638,0.481 l 0.572,-1.17 c -0.611,-0.298999 -1.313,-0.624 -2.379,-0.624 -1.54699,0 -2.574,0.871002 -2.574,2.171 0,0.429 0.143,0.910001 0.377,1.196 0.234,0.286 0.78,0.598001 1.222,0.676 l 0.78,0.143 c 0.702,0.13 1.027,0.364001 1.027,0.819 0,0.429 -0.39,0.754 -0.884,0.754 -0.754,0 -1.677,-0.429 -2.21,-0.754 l -0.624,1.274 c 0.975,0.507 1.872,0.767 2.691,0.767 1.703,0 2.847,-0.936001 2.847,-2.314"
               style="font-size:13px;font-weight:bold;font-family:MetaPro;-inkscape-font-specification:MetaPro Bold"
               id="path3134" />
            <path
               d="m 114.48172,34.490235 -0.793,-1.053 -0.104,0.091 c -0.429,0.377 -0.793,0.546 -1.196,0.546 -0.299,0 -0.598,-0.143 -0.78,-0.377 -0.221,-0.285999 -0.338,-0.806 -0.338,-1.677 0,-1.559998 0.351,-2.236 1.131,-2.236 0.325,0 0.702,0.195001 1.053,0.52 l 0.845,-1.144 c -0.286,-0.246999 -0.403,-0.338 -0.65,-0.468 -0.364,-0.194999 -0.845,-0.299 -1.287,-0.299 -0.559,0 -1.209,0.195001 -1.651,0.494 -0.78,0.533 -1.365,1.547002 -1.365,3.081 0,2.157998 1.066,3.432 2.899,3.432 0.637,0 1.157,-0.143 1.625,-0.416 0.234,-0.142999 0.351,-0.234 0.611,-0.494"
               style="font-size:13px;font-weight:bold;font-family:MetaPro;-inkscape-font-specification:MetaPro Bold"
               id="path3136" />
            <path
               d="m 120.86878,32.462235 0,-0.403 c 0,-1.390998 -0.273,-2.288 -0.884,-2.912 -0.429,-0.441999 -1.157,-0.702 -1.924,-0.702 -0.884,0 -1.547,0.286001 -2.093,0.897 -0.585,0.65 -0.832,1.443002 -0.832,2.639 0,2.092998 1.235,3.445 3.146,3.445 0.936,0 1.742,-0.299 2.509,-0.923 l -0.676,-1.04 c -0.533,0.442 -1.092,0.663 -1.69,0.663 -0.897,0 -1.404,-0.585001 -1.404,-1.612 l 0,-0.052 3.848,0 m -1.807,-1.274 -2.015,0 0,-0.026 c 0,-0.922999 0.377,-1.443 1.04,-1.443 0.351,0 0.598,0.130001 0.767,0.39 0.156,0.247 0.208,0.507001 0.208,1.001 l 0,0.078"
               style="font-size:13px;font-weight:bold;font-family:MetaPro;-inkscape-font-specification:MetaPro Bold"
               id="path3138" />
            <path
               d="m 127.48091,35.244235 0,-4.862 c 0,-0.415999 -0.039,-0.702 -0.13,-0.949 -0.208,-0.571999 -0.858,-0.962 -1.599,-0.962 -0.39,0 -0.845,0.104001 -1.196,0.286 -0.286,0.156 -0.507,0.312001 -0.767,0.494 0,-0.272999 -0.091,-0.559 -0.247,-0.832 l -1.547,0.442 c 0.156,0.442 0.234,0.988001 0.234,1.56 l 0,4.823 1.742,0 0,-4.706 c 0.403,-0.363999 0.858,-0.598 1.209,-0.598 0.455,0 0.585,0.221001 0.585,0.975 l 0,4.329 1.716,0"
               style="font-size:13px;font-weight:bold;font-family:MetaPro;-inkscape-font-specification:MetaPro Bold"
               id="path3140" />
            <path
               d="m 135.00384,35.244235 c -0.117,-0.259999 -0.247,-0.793001 -0.247,-2.431 l 0,-6.916 -1.729,-0.273 0,2.288 c 0,0.39 0.026,0.845001 0.052,0.988 -0.325,-0.259999 -0.702,-0.377 -1.183,-0.377 -1.68999,0 -2.847,1.430003 -2.847,3.51 0,2.066998 1.06601,3.38 2.756,3.38 0.598,0 1.105,-0.182 1.534,-0.559 0.026,0.182 0.052,0.286001 0.104,0.39 l 1.56,0 m -1.95,-1.729 c -0.169,0.208 -0.533,0.429 -0.858,0.429 -0.91,0 -1.209,-0.468001 -1.209,-1.898 0,-1.481998 0.338,-2.132 1.118,-2.132 0.312,0 0.624,0.143001 0.949,0.429 l 0,3.172"
               style="font-size:13px;font-weight:bold;font-family:MetaPro;-inkscape-font-specification:MetaPro Bold"
               id="path3142" />
            <path
               d="m 142.04456,32.462235 0,-0.403 c 0,-1.390998 -0.273,-2.288 -0.884,-2.912 -0.429,-0.441999 -1.157,-0.702 -1.924,-0.702 -0.884,0 -1.547,0.286001 -2.093,0.897 -0.585,0.65 -0.832,1.443002 -0.832,2.639 0,2.092998 1.235,3.445 3.146,3.445 0.936,0 1.742,-0.299 2.509,-0.923 l -0.676,-1.04 c -0.533,0.442 -1.092,0.663 -1.69,0.663 -0.897,0 -1.404,-0.585001 -1.404,-1.612 l 0,-0.052 3.848,0 m -1.807,-1.274 -2.015,0 0,-0.026 c 0,-0.922999 0.377,-1.443 1.04,-1.443 0.351,0 0.598,0.130001 0.767,0.39 0.156,0.247 0.208,0.507001 0.208,1.001 l 0,0.078"
               style="font-size:13px;font-weight:bold;font-family:MetaPro;-inkscape-font-specification:MetaPro Bold"
               id="path3144" />
            <path
               d="m 147.20069,28.575235 c -0.273,-0.116999 -0.39,-0.143 -0.65,-0.143 -0.65,0 -1.183,0.442001 -1.56,0.949 -0.026,-0.376999 -0.117,-0.676 -0.273,-0.949 l -1.56,0.416 c 0.143,0.377 0.247,1.053001 0.247,1.95 l 0,4.446 1.742,0 0,-4.706 c 0.325,-0.376999 0.676,-0.559 1.066,-0.559 0.195,0 0.338,0.039 0.507,0.13 l 0.481,-1.534"
               style="font-size:13px;font-weight:bold;font-family:MetaPro;-inkscape-font-specification:MetaPro Bold"
               id="path3146" />
            <path
               d="m 156.49609,35.244235 0,-4.654 c 0,-0.636999 -0.039,-0.858 -0.169,-1.235 -0.208,-0.584999 -0.884,-0.949 -1.729,-0.949 -0.676,0 -1.43,0.286001 -1.885,0.715 0,-0.078 0.026,-0.351 0.026,-0.559 l 0,-1.326 c 0,-0.636999 -0.039,-1.261 -0.117,-1.625 l -1.781,0.416 c 0.078,0.273 0.13,0.897001 0.13,1.521 l 0,7.696 1.768,0 0,-4.771 c 0.39,-0.350999 0.949,-0.611 1.378,-0.611 0.494,0 0.676,0.247001 0.676,0.91 l 0,4.472 1.703,0"
               style="font-size:13px;font-weight:bold;font-family:MetaPro;-inkscape-font-specification:MetaPro Bold"
               id="path3148" />
            <path
               d="m 163.77894,32.462235 0,-0.403 c 0,-1.390998 -0.273,-2.288 -0.884,-2.912 -0.429,-0.441999 -1.157,-0.702 -1.924,-0.702 -0.884,0 -1.547,0.286001 -2.093,0.897 -0.585,0.65 -0.832,1.443002 -0.832,2.639 0,2.092998 1.235,3.445 3.146,3.445 0.936,0 1.742,-0.299 2.509,-0.923 l -0.676,-1.04 c -0.533,0.442 -1.092,0.663 -1.69,0.663 -0.897,0 -1.404,-0.585001 -1.404,-1.612 l 0,-0.052 3.848,0 m -1.807,-1.274 -2.015,0 0,-0.026 c 0,-0.922999 0.377,-1.443 1.04,-1.443 0.351,0 0.598,0.130001 0.767,0.39 0.156,0.247 0.208,0.507001 0.208,1.001 l 0,0.078"
               style="font-size:13px;font-weight:bold;font-family:MetaPro;-inkscape-font-specification:MetaPro Bold"
               id="path3150" />
            <path
               d="m 166.88106,35.244235 0,-6.812 -1.742,0.273 0,6.539 1.742,0 m 0.208,-8.489 c 0,-0.597999 -0.468,-1.079 -1.053,-1.079 -0.598,0 -1.092,0.481001 -1.092,1.079 0,0.598 0.481,1.079 1.066,1.079 0.598,0 1.079,-0.481 1.079,-1.079"
               style="font-size:13px;font-weight:bold;font-family:MetaPro;-inkscape-font-specification:MetaPro Bold"
               id="path3152" />
            <path
               d="m 175.4117,29.316235 -0.728,-1.105 c -0.403,0.364 -0.897,0.572 -1.378,0.572 -0.221,0 -0.455,-0.052 -0.819,-0.143 -0.481,-0.116999 -0.819,-0.169 -1.196,-0.169 -1.703,0 -2.808,0.884002 -2.808,2.249 0,0.987999 0.468,1.599001 1.43,1.846 -1.092,0.286 -1.222,0.689001 -1.222,1.118 0,0.455 0.195,0.754001 0.507,0.871 0.312,0.13 0.819,0.195 1.599,0.208 l 0.741,0.013 c 0.689,0.013 1.222,0.195001 1.222,0.793 0,0.273 -0.169,0.520001 -0.429,0.676 -0.273,0.169 -0.65,0.221 -1.092,0.221 -0.806,0 -1.248,-0.286 -1.248,-0.819 0,-0.181999 0.013,-0.273 0.078,-0.429 l -1.612,0 c -0.065,0.13 -0.156,0.312001 -0.156,0.676 0,0.455 0.182,0.845001 0.546,1.183 0.598,0.559 1.573,0.715 2.522,0.715 1.04,0 2.041,-0.234 2.626,-0.858 0.364,-0.389999 0.533,-0.819 0.533,-1.378 0,-0.597999 -0.182,-1.053 -0.572,-1.417 -0.468,-0.428999 -1.001,-0.585 -2.015,-0.598 l -0.936,-0.013 c -0.182,0 -0.286,-0.065 -0.286,-0.156 0,-0.181999 0.247,-0.338 0.689,-0.546 0.13,0.013 0.182,0.013 0.26,0.013 1.417,0 2.457,-0.832001 2.457,-1.976 0,-0.441999 -0.13,-0.78 -0.39,-1.092 0.104,0.013 0.286,0.039 0.455,0.039 0.481,0 0.845,-0.143 1.222,-0.494 m -3.081,1.417 c 0,0.611 -0.377,0.949 -1.066,0.949 -0.611,0 -1.027,-0.273 -1.027,-0.949 0,-0.623999 0.377,-0.988 1.04,-0.988 0.663,0 1.053,0.364001 1.053,0.988"
               style="font-size:13px;font-weight:bold;font-family:MetaPro;-inkscape-font-specification:MetaPro Bold"
               id="path3154" />
            <path
               d="m 181.6582,35.244235 0,-4.654 c 0,-0.636999 -0.039,-0.858 -0.169,-1.235 -0.208,-0.584999 -0.884,-0.949 -1.729,-0.949 -0.676,0 -1.43,0.286001 -1.885,0.715 0,-0.078 0.026,-0.351 0.026,-0.559 l 0,-1.326 c 0,-0.636999 -0.039,-1.261 -0.117,-1.625 l -1.781,0.416 c 0.078,0.273 0.13,0.897001 0.13,1.521 l 0,7.696 1.768,0 0,-4.771 c 0.39,-0.350999 0.949,-0.611 1.378,-0.611 0.494,0 0.676,0.247001 0.676,0.91 l 0,4.472 1.703,0"
               style="font-size:13px;font-weight:bold;font-family:MetaPro;-inkscape-font-specification:MetaPro Bold"
               id="path3156" />
            <path
               d="m 186.92605,35.101235 -0.221,-1.04 c -0.312,0.091 -0.468,0.13 -0.624,0.13 -0.598,0 -0.754,-0.221 -0.754,-1.066 l 0,-3.341 1.118,0 0.442,-1.196 -1.56,0 c 0,-0.675999 0.039,-1.404 0.104,-2.015 l -1.768,0.442 c -0.065,0.494 -0.065,0.923001 -0.065,1.573 l -0.663,0 0,1.196 0.663,0 0,3.614 c 0,0.611 0.013,0.741001 0.117,1.027 0.208,0.585 0.91,0.975 1.794,0.975 0.455,0 0.91,-0.091 1.417,-0.299"
               style="font-size:13px;font-weight:bold;font-family:MetaPro;-inkscape-font-specification:MetaPro Bold"
               id="path3158" />
          </g>
          <g
             transform="translate(420.9375,929.62944)"
             style="font-size:40px;font-style:normal;font-variant:normal;font-weight:normal;font-stretch:normal;line-height:125%;letter-spacing:0px;word-spacing:0px;fill:#000000;fill-opacity:1;stroke:none;font-family:MetaPro;-inkscape-font-specification:MetaPro"
             id="flowRoot6375-8-1">
            <path
               d="m 102.3515,35.244235 c -0.117,-0.259999 -0.247,-0.793001 -0.247,-2.431 l 0,-6.916 -1.729,-0.273 0,2.288 c 0,0.39 0.026,0.845001 0.052,0.988 -0.325,-0.259999 -0.702,-0.377 -1.183,-0.377 -1.689998,0 -2.847,1.430003 -2.847,3.51 0,2.066998 1.066002,3.38 2.756,3.38 0.597999,0 1.105,-0.182 1.534,-0.559 0.026,0.182 0.052,0.286001 0.104,0.39 l 1.56,0 m -1.95,-1.729 c -0.169,0.208 -0.533,0.429 -0.858,0.429 -0.909999,0 -1.209,-0.468001 -1.209,-1.898 0,-1.481998 0.338001,-2.132 1.118,-2.132 0.312,0 0.624,0.143001 0.949,0.429 l 0,3.172"
               style="font-size:13px;font-weight:bold;font-family:MetaPro;-inkscape-font-specification:MetaPro Bold"
               id="path3161" />
            <path
               d="m 109.39222,32.462235 0,-0.403 c 0,-1.390998 -0.273,-2.288 -0.884,-2.912 -0.429,-0.441999 -1.157,-0.702 -1.924,-0.702 -0.884,0 -1.547,0.286001 -2.093,0.897 -0.585,0.65 -0.832,1.443002 -0.832,2.639 0,2.092998 1.235,3.445 3.146,3.445 0.936,0 1.742,-0.299 2.509,-0.923 l -0.676,-1.04 c -0.533,0.442 -1.092,0.663 -1.69,0.663 -0.897,0 -1.404,-0.585001 -1.404,-1.612 l 0,-0.052 3.848,0 m -1.807,-1.274 -2.015,0 0,-0.026 c 0,-0.922999 0.377,-1.443 1.04,-1.443 0.351,0 0.598,0.130001 0.767,0.39 0.156,0.247 0.208,0.507001 0.208,1.001 l 0,0.078"
               style="font-size:13px;font-weight:bold;font-family:MetaPro;-inkscape-font-specification:MetaPro Bold"
               id="path3163" />
            <path
               d="m 115.62917,33.138235 c 0,-0.441999 -0.117,-0.819 -0.364,-1.131 -0.234,-0.298999 -0.507,-0.546 -1.326,-0.754 l -0.806,-0.208 c -0.611,-0.155999 -0.832,-0.338 -0.832,-0.676 0,-0.389999 0.338,-0.65 0.845,-0.65 0.494,0 0.975,0.143001 1.638,0.481 l 0.572,-1.17 c -0.611,-0.298999 -1.313,-0.624 -2.379,-0.624 -1.547,0 -2.574,0.871002 -2.574,2.171 0,0.429 0.143,0.910001 0.377,1.196 0.234,0.286 0.78,0.598001 1.222,0.676 l 0.78,0.143 c 0.702,0.13 1.027,0.364001 1.027,0.819 0,0.429 -0.39,0.754 -0.884,0.754 -0.754,0 -1.677,-0.429 -2.21,-0.754 l -0.624,1.274 c 0.975,0.507 1.872,0.767 2.691,0.767 1.703,0 2.847,-0.936001 2.847,-2.314"
               style="font-size:13px;font-weight:bold;font-family:MetaPro;-inkscape-font-specification:MetaPro Bold"
               id="path3165" />
            <path
               d="m 121.71805,34.490235 -0.793,-1.053 -0.104,0.091 c -0.429,0.377 -0.793,0.546 -1.196,0.546 -0.299,0 -0.598,-0.143 -0.78,-0.377 -0.221,-0.285999 -0.338,-0.806 -0.338,-1.677 0,-1.559998 0.351,-2.236 1.131,-2.236 0.325,0 0.702,0.195001 1.053,0.52 l 0.845,-1.144 c -0.286,-0.246999 -0.403,-0.338 -0.65,-0.468 -0.364,-0.194999 -0.845,-0.299 -1.287,-0.299 -0.559,0 -1.209,0.195001 -1.651,0.494 -0.78,0.533 -1.365,1.547002 -1.365,3.081 0,2.157998 1.066,3.432 2.899,3.432 0.637,0 1.157,-0.143 1.625,-0.416 0.234,-0.142999 0.351,-0.234 0.611,-0.494"
               style="font-size:13px;font-weight:bold;font-family:MetaPro;-inkscape-font-specification:MetaPro Bold"
               id="path3167" />
            <path
               d="m 128.10511,32.462235 0,-0.403 c 0,-1.390998 -0.273,-2.288 -0.884,-2.912 -0.429,-0.441999 -1.157,-0.702 -1.924,-0.702 -0.884,0 -1.547,0.286001 -2.093,0.897 -0.585,0.65 -0.832,1.443002 -0.832,2.639 0,2.092998 1.235,3.445 3.146,3.445 0.936,0 1.742,-0.299 2.509,-0.923 l -0.676,-1.04 c -0.533,0.442 -1.092,0.663 -1.69,0.663 -0.897,0 -1.404,-0.585001 -1.404,-1.612 l 0,-0.052 3.848,0 m -1.807,-1.274 -2.015,0 0,-0.026 c 0,-0.922999 0.377,-1.443 1.04,-1.443 0.351,0 0.598,0.130001 0.767,0.39 0.156,0.247 0.208,0.507001 0.208,1.001 l 0,0.078"
               style="font-size:13px;font-weight:bold;font-family:MetaPro;-inkscape-font-specification:MetaPro Bold"
               id="path3169" />
            <path
               d="m 134.71723,35.244235 0,-4.862 c 0,-0.415999 -0.039,-0.702 -0.13,-0.949 -0.208,-0.571999 -0.858,-0.962 -1.599,-0.962 -0.39,0 -0.845,0.104001 -1.196,0.286 -0.286,0.156 -0.507,0.312001 -0.767,0.494 0,-0.272999 -0.091,-0.559 -0.247,-0.832 l -1.547,0.442 c 0.156,0.442 0.234,0.988001 0.234,1.56 l 0,4.823 1.742,0 0,-4.706 c 0.403,-0.363999 0.858,-0.598 1.209,-0.598 0.455,0 0.585,0.221001 0.585,0.975 l 0,4.329 1.716,0"
               style="font-size:13px;font-weight:bold;font-family:MetaPro;-inkscape-font-specification:MetaPro Bold"
               id="path3171" />
            <path
               d="m 142.24017,35.244235 c -0.117,-0.259999 -0.247,-0.793001 -0.247,-2.431 l 0,-6.916 -1.729,-0.273 0,2.288 c 0,0.39 0.026,0.845001 0.052,0.988 -0.325,-0.259999 -0.702,-0.377 -1.183,-0.377 -1.69,0 -2.847,1.430003 -2.847,3.51 0,2.066998 1.066,3.38 2.756,3.38 0.598,0 1.105,-0.182 1.534,-0.559 0.026,0.182 0.052,0.286001 0.104,0.39 l 1.56,0 m -1.95,-1.729 c -0.169,0.208 -0.533,0.429 -0.858,0.429 -0.91,0 -1.209,-0.468001 -1.209,-1.898 0,-1.481998 0.338,-2.132 1.118,-2.132 0.312,0 0.624,0.143001 0.949,0.429 l 0,3.172"
               style="font-size:13px;font-weight:bold;font-family:MetaPro;-inkscape-font-specification:MetaPro Bold"
               id="path3173" />
            <path
               d="m 149.28089,32.462235 0,-0.403 c 0,-1.390998 -0.273,-2.288 -0.884,-2.912 -0.429,-0.441999 -1.157,-0.702 -1.924,-0.702 -0.884,0 -1.547,0.286001 -2.093,0.897 -0.585,0.65 -0.832,1.443002 -0.832,2.639 0,2.092998 1.235,3.445 3.146,3.445 0.936,0 1.742,-0.299 2.509,-0.923 l -0.676,-1.04 c -0.533,0.442 -1.092,0.663 -1.69,0.663 -0.897,0 -1.404,-0.585001 -1.404,-1.612 l 0,-0.052 3.848,0 m -1.807,-1.274 -2.015,0 0,-0.026 c 0,-0.922999 0.377,-1.443 1.04,-1.443 0.351,0 0.598,0.130001 0.767,0.39 0.156,0.247 0.208,0.507001 0.208,1.001 l 0,0.078"
               style="font-size:13px;font-weight:bold;font-family:MetaPro;-inkscape-font-specification:MetaPro Bold"
               id="path3175" />
            <path
               d="m 154.43702,28.575235 c -0.273,-0.116999 -0.39,-0.143 -0.65,-0.143 -0.65,0 -1.183,0.442001 -1.56,0.949 -0.026,-0.376999 -0.117,-0.676 -0.273,-0.949 l -1.56,0.416 c 0.143,0.377 0.247,1.053001 0.247,1.95 l 0,4.446 1.742,0 0,-4.706 c 0.325,-0.376999 0.676,-0.559 1.066,-0.559 0.195,0 0.338,0.039 0.507,0.13 l 0.481,-1.534"
               style="font-size:13px;font-weight:bold;font-family:MetaPro;-inkscape-font-specification:MetaPro Bold"
               id="path3177" />
            <path
               d="m 163.73242,35.244235 0,-4.654 c 0,-0.636999 -0.039,-0.858 -0.169,-1.235 -0.208,-0.584999 -0.884,-0.949 -1.729,-0.949 -0.676,0 -1.43,0.286001 -1.885,0.715 0,-0.078 0.026,-0.351 0.026,-0.559 l 0,-1.326 c 0,-0.636999 -0.039,-1.261 -0.117,-1.625 l -1.781,0.416 c 0.078,0.273 0.13,0.897001 0.13,1.521 l 0,7.696 1.768,0 0,-4.771 c 0.39,-0.350999 0.949,-0.611 1.378,-0.611 0.494,0 0.676,0.247001 0.676,0.91 l 0,4.472 1.703,0"
               style="font-size:13px;font-weight:bold;font-family:MetaPro;-inkscape-font-specification:MetaPro Bold"
               id="path3179" />
            <path
               d="m 171.01527,32.462235 0,-0.403 c 0,-1.390998 -0.273,-2.288 -0.884,-2.912 -0.429,-0.441999 -1.15701,-0.702 -1.924,-0.702 -0.884,0 -1.547,0.286001 -2.093,0.897 -0.585,0.65 -0.832,1.443002 -0.832,2.639 0,2.092998 1.235,3.445 3.146,3.445 0.93599,0 1.742,-0.299 2.509,-0.923 l -0.676,-1.04 c -0.533,0.442 -1.092,0.663 -1.69,0.663 -0.897,0 -1.404,-0.585001 -1.404,-1.612 l 0,-0.052 3.848,0 m -1.807,-1.274 -2.015,0 0,-0.026 c 0,-0.922999 0.377,-1.443 1.04,-1.443 0.351,0 0.598,0.130001 0.767,0.39 0.156,0.247 0.208,0.507001 0.208,1.001 l 0,0.078"
               style="font-size:13px;font-weight:bold;font-family:MetaPro;-inkscape-font-specification:MetaPro Bold"
               id="path3181" />
            <path
               d="m 174.11739,35.244235 0,-6.812 -1.742,0.273 0,6.539 1.742,0 m 0.208,-8.489 c 0,-0.597999 -0.468,-1.079 -1.053,-1.079 -0.598,0 -1.092,0.481001 -1.092,1.079 0,0.598 0.481,1.079 1.066,1.079 0.598,0 1.079,-0.481 1.079,-1.079"
               style="font-size:13px;font-weight:bold;font-family:MetaPro;-inkscape-font-specification:MetaPro Bold"
               id="path3183" />
            <path
               d="m 182.64803,29.316235 -0.728,-1.105 c -0.403,0.364 -0.897,0.572 -1.378,0.572 -0.221,0 -0.455,-0.052 -0.819,-0.143 -0.481,-0.116999 -0.819,-0.169 -1.196,-0.169 -1.703,0 -2.808,0.884002 -2.808,2.249 0,0.987999 0.468,1.599001 1.43,1.846 -1.092,0.286 -1.222,0.689001 -1.222,1.118 0,0.455 0.195,0.754001 0.507,0.871 0.312,0.13 0.819,0.195 1.599,0.208 l 0.741,0.013 c 0.689,0.013 1.222,0.195001 1.222,0.793 0,0.273 -0.169,0.520001 -0.429,0.676 -0.273,0.169 -0.65,0.221 -1.092,0.221 -0.806,0 -1.248,-0.286 -1.248,-0.819 0,-0.181999 0.013,-0.273 0.078,-0.429 l -1.612,0 c -0.065,0.13 -0.156,0.312001 -0.156,0.676 0,0.455 0.182,0.845001 0.546,1.183 0.598,0.559 1.573,0.715 2.522,0.715 1.04,0 2.041,-0.234 2.626,-0.858 0.364,-0.389999 0.533,-0.819 0.533,-1.378 0,-0.597999 -0.182,-1.053 -0.572,-1.417 -0.468,-0.428999 -1.001,-0.585 -2.015,-0.598 l -0.936,-0.013 c -0.182,0 -0.286,-0.065 -0.286,-0.156 0,-0.181999 0.247,-0.338 0.689,-0.546 0.13,0.013 0.182,0.013 0.26,0.013 1.417,0 2.457,-0.832001 2.457,-1.976 0,-0.441999 -0.13,-0.78 -0.39,-1.092 0.104,0.013 0.286,0.039 0.455,0.039 0.481,0 0.845,-0.143 1.222,-0.494 m -3.081,1.417 c 0,0.611 -0.377,0.949 -1.066,0.949 -0.611,0 -1.027,-0.273 -1.027,-0.949 0,-0.623999 0.377,-0.988 1.04,-0.988 0.663,0 1.053,0.364001 1.053,0.988"
               style="font-size:13px;font-weight:bold;font-family:MetaPro;-inkscape-font-specification:MetaPro Bold"
               id="path3185" />
            <path
               d="m 188.89453,35.244235 0,-4.654 c 0,-0.636999 -0.039,-0.858 -0.169,-1.235 -0.208,-0.584999 -0.884,-0.949 -1.729,-0.949 -0.676,0 -1.43,0.286001 -1.885,0.715 0,-0.078 0.026,-0.351 0.026,-0.559 l 0,-1.326 c 0,-0.636999 -0.039,-1.261 -0.117,-1.625 l -1.781,0.416 c 0.078,0.273 0.13,0.897001 0.13,1.521 l 0,7.696 1.768,0 0,-4.771 c 0.39,-0.350999 0.949,-0.611 1.378,-0.611 0.494,0 0.676,0.247001 0.676,0.91 l 0,4.472 1.703,0"
               style="font-size:13px;font-weight:bold;font-family:MetaPro;-inkscape-font-specification:MetaPro Bold"
               id="path3187" />
            <path
               d="m 194.16237,35.101235 -0.221,-1.04 c -0.31199,0.091 -0.468,0.13 -0.624,0.13 -0.59799,0 -0.754,-0.221 -0.754,-1.066 l 0,-3.341 1.118,0 0.442,-1.196 -1.56,0 c 0,-0.675999 0.039,-1.404 0.104,-2.015 l -1.768,0.442 c -0.065,0.494 -0.065,0.923001 -0.065,1.573 l -0.663,0 0,1.196 0.663,0 0,3.614 c 0,0.611 0.013,0.741001 0.11701,1.027 0.20799,0.585 0.91,0.975 1.79399,0.975 0.455,0 0.91001,-0.091 1.417,-0.299"
               style="font-size:13px;font-weight:bold;font-family:MetaPro;-inkscape-font-specification:MetaPro Bold"
               id="path3189" />
          </g>
          <path
             sodipodi:nodetypes="cc"
             inkscape:connector-curvature="0"
             id="path6477"
             d="m 488.269,922.53302 0,20.38662"
             style="fill:none;stroke:#000000;stroke-width:1px;stroke-linecap:butt;stroke-linejoin:miter;stroke-opacity:1;marker-start:url(#TriangleInM);marker-end:url(#TriangleOutM)" />
          <g
             transform="translate(396.74573,901.16044)"
             style="font-size:40px;font-style:normal;font-variant:normal;font-weight:normal;font-stretch:normal;line-height:125%;letter-spacing:0px;word-spacing:0px;fill:#000000;fill-opacity:1;stroke:none;font-family:MetaPro;-inkscape-font-specification:MetaPro"
             id="flowRoot6375-8-0-1">
            <path
               d="m 102.5725,35.244235 -2.392,-3.588 1.976,-3.068 -2.054,0 c -0.052,0.078 -0.208,0.351001 -0.312,0.572 -0.351,0.728 -0.546,1.196001 -0.585,1.3 -0.052,-0.116999 -0.143,-0.312 -0.208,-0.442 -0.247,-0.519999 -0.403,-0.806 -0.897,-1.625 l -1.807,0.507 1.846,2.795 -2.457,3.549 2.236,0 0.559,-0.923 c 0.351,-0.571999 0.611,-1.131 0.663,-1.287 0.052,0.091 0.403,0.780001 0.52,0.988 l 0.702,1.222 2.21,0"
               style="font-size:13px;font-weight:bold;font-family:MetaPro;-inkscape-font-specification:MetaPro Bold"
               id="path3192" />
            <path
               d="m 105.89055,32.436235 0,-1.508 -3.12,0 0,1.508 3.12,0"
               style="font-size:13px;font-weight:bold;font-family:MetaPro;-inkscape-font-specification:MetaPro Bold"
               id="path3194" />
            <path
               d="m 112.97656,35.244235 0,-4.654 c 0,-0.636999 -0.039,-0.858 -0.169,-1.235 -0.208,-0.584999 -0.884,-0.949 -1.729,-0.949 -0.676,0 -1.43,0.286001 -1.885,0.715 0,-0.078 0.026,-0.351 0.026,-0.559 l 0,-1.326 c 0,-0.636999 -0.039,-1.261 -0.117,-1.625 l -1.781,0.416 c 0.078,0.273 0.13,0.897001 0.13,1.521 l 0,7.696 1.768,0 0,-4.771 c 0.39,-0.350999 0.949,-0.611 1.378,-0.611 0.494,0 0.676,0.247001 0.676,0.91 l 0,4.472 1.703,0"
               style="font-size:13px;font-weight:bold;font-family:MetaPro;-inkscape-font-specification:MetaPro Bold"
               id="path3196" />
            <path
               d="m 120.25941,32.462235 0,-0.403 c 0,-1.390998 -0.273,-2.288 -0.884,-2.912 -0.429,-0.441999 -1.157,-0.702 -1.924,-0.702 -0.884,0 -1.547,0.286001 -2.093,0.897 -0.585,0.65 -0.832,1.443002 -0.832,2.639 0,2.092998 1.235,3.445 3.146,3.445 0.936,0 1.742,-0.299 2.509,-0.923 l -0.676,-1.04 c -0.533,0.442 -1.092,0.663 -1.69,0.663 -0.897,0 -1.404,-0.585001 -1.404,-1.612 l 0,-0.052 3.848,0 m -1.807,-1.274 -2.015,0 0,-0.026 c 0,-0.922999 0.377,-1.443 1.04,-1.443 0.351,0 0.598,0.130001 0.767,0.39 0.156,0.247 0.208,0.507001 0.208,1.001 l 0,0.078"
               style="font-size:13px;font-weight:bold;font-family:MetaPro;-inkscape-font-specification:MetaPro Bold"
               id="path3198" />
            <path
               d="m 123.36153,35.244235 0,-6.812 -1.742,0.273 0,6.539 1.742,0 m 0.208,-8.489 c 0,-0.597999 -0.468,-1.079 -1.053,-1.079 -0.598,0 -1.092,0.481001 -1.092,1.079 0,0.598 0.481,1.079 1.066,1.079 0.598,0 1.079,-0.481 1.079,-1.079"
               style="font-size:13px;font-weight:bold;font-family:MetaPro;-inkscape-font-specification:MetaPro Bold"
               id="path3200" />
            <path
               d="m 131.89217,29.316235 -0.728,-1.105 c -0.403,0.364 -0.897,0.572 -1.378,0.572 -0.221,0 -0.455,-0.052 -0.819,-0.143 -0.481,-0.116999 -0.819,-0.169 -1.196,-0.169 -1.703,0 -2.808,0.884002 -2.808,2.249 0,0.987999 0.468,1.599001 1.43,1.846 -1.092,0.286 -1.222,0.689001 -1.222,1.118 0,0.455 0.195,0.754001 0.507,0.871 0.312,0.13 0.819,0.195 1.599,0.208 l 0.741,0.013 c 0.689,0.013 1.222,0.195001 1.222,0.793 0,0.273 -0.169,0.520001 -0.429,0.676 -0.273,0.169 -0.65,0.221 -1.092,0.221 -0.806,0 -1.248,-0.286 -1.248,-0.819 0,-0.181999 0.013,-0.273 0.078,-0.429 l -1.612,0 c -0.065,0.13 -0.156,0.312001 -0.156,0.676 0,0.455 0.182,0.845001 0.546,1.183 0.598,0.559 1.573,0.715 2.522,0.715 1.04,0 2.041,-0.234 2.626,-0.858 0.364,-0.389999 0.533,-0.819 0.533,-1.378 0,-0.597999 -0.182,-1.053 -0.572,-1.417 -0.468,-0.428999 -1.001,-0.585 -2.015,-0.598 l -0.936,-0.013 c -0.182,0 -0.286,-0.065 -0.286,-0.156 0,-0.181999 0.247,-0.338 0.689,-0.546 0.13,0.013 0.182,0.013 0.26,0.013 1.417,0 2.457,-0.832001 2.457,-1.976 0,-0.441999 -0.13,-0.78 -0.39,-1.092 0.104,0.013 0.286,0.039 0.455,0.039 0.481,0 0.845,-0.143 1.222,-0.494 m -3.081,1.417 c 0,0.611 -0.377,0.949 -1.066,0.949 -0.611,0 -1.027,-0.273 -1.027,-0.949 0,-0.623999 0.377,-0.988 1.04,-0.988 0.663,0 1.053,0.364001 1.053,0.988"
               style="font-size:13px;font-weight:bold;font-family:MetaPro;-inkscape-font-specification:MetaPro Bold"
               id="path3202" />
            <path
               d="m 138.13867,35.244235 0,-4.654 c 0,-0.636999 -0.039,-0.858 -0.169,-1.235 -0.208,-0.584999 -0.884,-0.949 -1.729,-0.949 -0.676,0 -1.43,0.286001 -1.885,0.715 0,-0.078 0.026,-0.351 0.026,-0.559 l 0,-1.326 c 0,-0.636999 -0.039,-1.261 -0.117,-1.625 l -1.781,0.416 c 0.078,0.273 0.13,0.897001 0.13,1.521 l 0,7.696 1.768,0 0,-4.771 c 0.39,-0.350999 0.949,-0.611 1.378,-0.611 0.494,0 0.676,0.247001 0.676,0.91 l 0,4.472 1.703,0"
               style="font-size:13px;font-weight:bold;font-family:MetaPro;-inkscape-font-specification:MetaPro Bold"
               id="path3204" />
            <path
               d="m 143.40652,35.101235 -0.221,-1.04 c -0.312,0.091 -0.468,0.13 -0.624,0.13 -0.598,0 -0.754,-0.221 -0.754,-1.066 l 0,-3.341 1.118,0 0.442,-1.196 -1.56,0 c 0,-0.675999 0.039,-1.404 0.104,-2.015 l -1.768,0.442 c -0.065,0.494 -0.065,0.923001 -0.065,1.573 l -0.663,0 0,1.196 0.663,0 0,3.614 c 0,0.611 0.013,0.741001 0.117,1.027 0.208,0.585 0.91,0.975 1.794,0.975 0.455,0 0.91,-0.091 1.417,-0.299"
               style="font-size:13px;font-weight:bold;font-family:MetaPro;-inkscape-font-specification:MetaPro Bold"
               id="path3206" />
          </g>
        </g>
        <g
           id="g8168"
           style="opacity:0.5">
          <g
             transform="translate(-77.436363,887.74294)"
             style="font-size:40px;font-style:normal;font-variant:normal;font-weight:normal;font-stretch:normal;line-height:125%;letter-spacing:0px;word-spacing:0px;fill:#000000;fill-opacity:1;stroke:none;font-family:MetaPro;-inkscape-font-specification:MetaPro"
             id="flowRoot6375-8-0-5">
            <path
               d="m 105.2765,35.244235 0,-4.732 c 0,-0.909999 -0.117,-1.3 -0.494,-1.625 -0.299,-0.259999 -0.793,-0.416 -1.313,-0.416 -0.728,0 -1.274,0.247001 -1.885,0.871 -0.078,-0.116999 -0.169,-0.234 -0.26,-0.325 -0.351,-0.363999 -0.806,-0.546 -1.352,-0.546 -0.610999,0 -1.17,0.234001 -1.625,0.676 -0.065,-0.337999 -0.117,-0.494 -0.234,-0.676 l -1.573,0.429 c 0.182,0.325 0.247,0.741001 0.247,1.703 l 0,4.641 1.703,0 0,-4.849 c 0.377,-0.337999 0.819,-0.507 1.144,-0.507 0.481,0 0.598,0.195001 0.598,1.027 l 0,4.329 1.651,0 0,-4.784 c 0.377,-0.337999 0.832,-0.559 1.157,-0.559 0.455,0 0.546,0.156001 0.546,0.949 l 0,4.394 1.69,0"
               style="font-size:13px;font-weight:bold;font-family:MetaPro;-inkscape-font-specification:MetaPro Bold"
               id="path3209" />
            <path
               d="m 112.56605,32.462235 0,-0.403 c 0,-1.390998 -0.273,-2.288 -0.884,-2.912 -0.429,-0.441999 -1.157,-0.702 -1.924,-0.702 -0.884,0 -1.547,0.286001 -2.093,0.897 -0.585,0.65 -0.832,1.443002 -0.832,2.639 0,2.092998 1.235,3.445 3.146,3.445 0.936,0 1.742,-0.299 2.509,-0.923 l -0.676,-1.04 c -0.533,0.442 -1.092,0.663 -1.69,0.663 -0.897,0 -1.404,-0.585001 -1.404,-1.612 l 0,-0.052 3.848,0 m -1.807,-1.274 -2.015,0 0,-0.026 c 0,-0.922999 0.377,-1.443 1.04,-1.443 0.351,0 0.598,0.130001 0.767,0.39 0.156,0.247 0.208,0.507001 0.208,1.001 l 0,0.078"
               style="font-size:13px;font-weight:bold;font-family:MetaPro;-inkscape-font-specification:MetaPro Bold"
               id="path3211" />
            <path
               d="m 119.23322,34.516235 c -0.585,-0.441999 -0.637,-0.754 -0.624,-1.482 l 0.039,-2.236 c 0.013,-0.714999 -0.026,-0.923 -0.117,-1.196 -0.26,-0.740999 -1.027,-1.157 -2.145,-1.157 -0.611,0 -1.17,0.117001 -1.82,0.39 -0.468,0.195 -0.728,0.325001 -1.079,0.546 l 0.741,1.248 c 0.715,-0.480999 1.365,-0.754 1.924,-0.754 0.637,0 0.78,0.247001 0.78,0.988 l 0,0.273 c -0.143,-0.013 -0.26,-0.013 -0.39,-0.013 -2.119,0 -3.198,0.728002 -3.198,2.288 0,1.325999 0.806,2.08 2.288,2.08 0.546,0 1.014,-0.13 1.339,-0.364 0.13,-0.091 0.273,-0.221 0.403,-0.351 0.169,0.338 0.533,0.637001 0.936,0.806 l 0.923,-1.066 m -2.327,-2.184 -0.026,1.43 c -0.26,0.286 -0.585,0.455 -0.91,0.455 -0.442,0 -0.767,-0.351 -0.767,-0.871 0,-0.792999 0.416,-1.014 1.625,-1.014 l 0.078,0"
               style="font-size:13px;font-weight:bold;font-family:MetaPro;-inkscape-font-specification:MetaPro Bold"
               id="path3213" />
            <path
               d="m 125.83052,35.244235 0,-4.862 c 0,-0.415999 -0.039,-0.702 -0.13,-0.949 -0.208,-0.571999 -0.85801,-0.962 -1.599,-0.962 -0.39,0 -0.845,0.104001 -1.196,0.286 -0.286,0.156 -0.507,0.312001 -0.767,0.494 0,-0.272999 -0.091,-0.559 -0.247,-0.832 l -1.547,0.442 c 0.156,0.442 0.234,0.988001 0.234,1.56 l 0,4.823 1.742,0 0,-4.706 c 0.403,-0.363999 0.858,-0.598 1.209,-0.598 0.455,0 0.585,0.221001 0.585,0.975 l 0,4.329 1.716,0"
               style="font-size:13px;font-weight:bold;font-family:MetaPro;-inkscape-font-specification:MetaPro Bold"
               id="path3215" />
            <path
               d="m 133.45237,35.218235 -0.299,-1.04 c -0.091,0.026 -0.13,0.026 -0.195,0.026 -0.14299,0 -0.286,-0.065 -0.351,-0.182 -0.10399,-0.181999 -0.117,-0.338001 -0.117,-1.482 l 0,-5.187 c 0,-0.935999 -0.026,-1.365 -0.091,-1.729 l -1.781,0.403 c 0.065,0.598 0.091,1.131001 0.091,2.002 l 0,4.966 c 0,0.948999 0.026,1.157001 0.156,1.495 0.208,0.559 0.80601,0.91 1.547,0.91 0.377,0 0.74101,-0.065 1.04,-0.182"
               style="font-size:13px;font-weight:bold;font-family:MetaPro;-inkscape-font-specification:MetaPro Bold"
               id="path3217" />
            <path
               d="m 136.23458,35.244235 0,-6.812 -1.742,0.273 0,6.539 1.742,0 m 0.208,-8.489 c 0,-0.597999 -0.468,-1.079 -1.053,-1.079 -0.598,0 -1.092,0.481001 -1.092,1.079 0,0.598 0.481,1.079 1.066,1.079 0.598,0 1.079,-0.481 1.079,-1.079"
               style="font-size:13px;font-weight:bold;font-family:MetaPro;-inkscape-font-specification:MetaPro Bold"
               id="path3219" />
            <path
               d="m 143.42622,35.244235 0,-4.862 c 0,-0.415999 -0.039,-0.702 -0.13,-0.949 -0.208,-0.571999 -0.858,-0.962 -1.599,-0.962 -0.39,0 -0.845,0.104001 -1.196,0.286 -0.286,0.156 -0.507,0.312001 -0.767,0.494 0,-0.272999 -0.091,-0.559 -0.247,-0.832 l -1.547,0.442 c 0.156,0.442 0.234,0.988001 0.234,1.56 l 0,4.823 1.742,0 0,-4.706 c 0.403,-0.363999 0.858,-0.598 1.209,-0.598 0.455,0 0.585,0.221001 0.585,0.975 l 0,4.329 1.716,0"
               style="font-size:13px;font-weight:bold;font-family:MetaPro;-inkscape-font-specification:MetaPro Bold"
               id="path3221" />
            <path
               d="m 150.72816,32.462235 0,-0.403 c 0,-1.390998 -0.273,-2.288 -0.884,-2.912 -0.429,-0.441999 -1.157,-0.702 -1.924,-0.702 -0.884,0 -1.547,0.286001 -2.093,0.897 -0.585,0.65 -0.832,1.443002 -0.832,2.639 0,2.092998 1.235,3.445 3.146,3.445 0.936,0 1.742,-0.299 2.509,-0.923 l -0.676,-1.04 c -0.533,0.442 -1.092,0.663 -1.69,0.663 -0.897,0 -1.404,-0.585001 -1.404,-1.612 l 0,-0.052 3.848,0 m -1.807,-1.274 -2.015,0 0,-0.026 c 0,-0.922999 0.377,-1.443 1.04,-1.443 0.351,0 0.598,0.130001 0.767,0.39 0.156,0.247 0.208,0.507001 0.208,1.001 l 0,0.078"
               style="font-size:13px;font-weight:bold;font-family:MetaPro;-inkscape-font-specification:MetaPro Bold"
               id="path3223" />
          </g>
          <g
             transform="translate(519.87073,870.36794)"
             style="font-size:40px;font-style:normal;font-variant:normal;font-weight:normal;font-stretch:normal;line-height:125%;letter-spacing:0px;word-spacing:0px;fill:#000000;fill-opacity:1;stroke:none;font-family:MetaPro;-inkscape-font-specification:MetaPro"
             id="flowRoot6375-8-0-7">
            <path
               d="m 102.2215,34.516235 c -0.585,-0.441999 -0.637,-0.754 -0.624,-1.482 l 0.039,-2.236 c 0.013,-0.714999 -0.026,-0.923 -0.117,-1.196 -0.26,-0.740999 -1.027,-1.157 -2.145,-1.157 -0.610999,0 -1.170001,0.117001 -1.82,0.39 -0.468,0.195 -0.728,0.325001 -1.079,0.546 l 0.741,1.248 c 0.714999,-0.480999 1.365001,-0.754 1.924,-0.754 0.636999,0 0.78,0.247001 0.78,0.988 l 0,0.273 c -0.143,-0.013 -0.26,-0.013 -0.39,-0.013 -2.118998,0 -3.198,0.728002 -3.198,2.288 0,1.325999 0.806001,2.08 2.288,2.08 0.545999,0 1.014,-0.13 1.339,-0.364 0.13,-0.091 0.273,-0.221 0.403,-0.351 0.169,0.338 0.533,0.637001 0.936,0.806 l 0.923,-1.066 m -2.327,-2.184 -0.026,1.43 c -0.26,0.286 -0.585,0.455 -0.91,0.455 -0.442,0 -0.767,-0.351 -0.767,-0.871 0,-0.792999 0.416001,-1.014 1.625,-1.014 l 0.078,0"
               style="font-size:13px;font-weight:bold;font-family:MetaPro;-inkscape-font-specification:MetaPro Bold"
               id="path3226" />
            <path
               d="m 108.39284,33.138235 c 0,-0.441999 -0.117,-0.819 -0.364,-1.131 -0.234,-0.298999 -0.507,-0.546 -1.326,-0.754 l -0.806,-0.208 c -0.611,-0.155999 -0.832,-0.338 -0.832,-0.676 0,-0.389999 0.338,-0.65 0.845,-0.65 0.494,0 0.975,0.143001 1.638,0.481 l 0.572,-1.17 c -0.611,-0.298999 -1.313,-0.624 -2.379,-0.624 -1.54699,0 -2.574,0.871002 -2.574,2.171 0,0.429 0.143,0.910001 0.377,1.196 0.234,0.286 0.78,0.598001 1.222,0.676 l 0.78,0.143 c 0.702,0.13 1.027,0.364001 1.027,0.819 0,0.429 -0.39,0.754 -0.884,0.754 -0.754,0 -1.677,-0.429 -2.21,-0.754 l -0.624,1.274 c 0.975,0.507 1.872,0.767 2.691,0.767 1.703,0 2.847,-0.936001 2.847,-2.314"
               style="font-size:13px;font-weight:bold;font-family:MetaPro;-inkscape-font-specification:MetaPro Bold"
               id="path3228" />
            <path
               d="m 114.48172,34.490235 -0.793,-1.053 -0.104,0.091 c -0.429,0.377 -0.793,0.546 -1.196,0.546 -0.299,0 -0.598,-0.143 -0.78,-0.377 -0.221,-0.285999 -0.338,-0.806 -0.338,-1.677 0,-1.559998 0.351,-2.236 1.131,-2.236 0.325,0 0.702,0.195001 1.053,0.52 l 0.845,-1.144 c -0.286,-0.246999 -0.403,-0.338 -0.65,-0.468 -0.364,-0.194999 -0.845,-0.299 -1.287,-0.299 -0.559,0 -1.209,0.195001 -1.651,0.494 -0.78,0.533 -1.365,1.547002 -1.365,3.081 0,2.157998 1.066,3.432 2.899,3.432 0.637,0 1.157,-0.143 1.625,-0.416 0.234,-0.142999 0.351,-0.234 0.611,-0.494"
               style="font-size:13px;font-weight:bold;font-family:MetaPro;-inkscape-font-specification:MetaPro Bold"
               id="path3230" />
            <path
               d="m 120.86878,32.462235 0,-0.403 c 0,-1.390998 -0.273,-2.288 -0.884,-2.912 -0.429,-0.441999 -1.157,-0.702 -1.924,-0.702 -0.884,0 -1.547,0.286001 -2.093,0.897 -0.585,0.65 -0.832,1.443002 -0.832,2.639 0,2.092998 1.235,3.445 3.146,3.445 0.936,0 1.742,-0.299 2.509,-0.923 l -0.676,-1.04 c -0.533,0.442 -1.092,0.663 -1.69,0.663 -0.897,0 -1.404,-0.585001 -1.404,-1.612 l 0,-0.052 3.848,0 m -1.807,-1.274 -2.015,0 0,-0.026 c 0,-0.922999 0.377,-1.443 1.04,-1.443 0.351,0 0.598,0.130001 0.767,0.39 0.156,0.247 0.208,0.507001 0.208,1.001 l 0,0.078"
               style="font-size:13px;font-weight:bold;font-family:MetaPro;-inkscape-font-specification:MetaPro Bold"
               id="path3232" />
            <path
               d="m 127.48091,35.244235 0,-4.862 c 0,-0.415999 -0.039,-0.702 -0.13,-0.949 -0.208,-0.571999 -0.858,-0.962 -1.599,-0.962 -0.39,0 -0.845,0.104001 -1.196,0.286 -0.286,0.156 -0.507,0.312001 -0.767,0.494 0,-0.272999 -0.091,-0.559 -0.247,-0.832 l -1.547,0.442 c 0.156,0.442 0.234,0.988001 0.234,1.56 l 0,4.823 1.742,0 0,-4.706 c 0.403,-0.363999 0.858,-0.598 1.209,-0.598 0.455,0 0.585,0.221001 0.585,0.975 l 0,4.329 1.716,0"
               style="font-size:13px;font-weight:bold;font-family:MetaPro;-inkscape-font-specification:MetaPro Bold"
               id="path3234" />
            <path
               d="m 132.76784,35.101235 -0.221,-1.04 c -0.312,0.091 -0.468,0.13 -0.624,0.13 -0.598,0 -0.754,-0.221 -0.754,-1.066 l 0,-3.341 1.118,0 0.442,-1.196 -1.56,0 c 0,-0.675999 0.039,-1.404 0.104,-2.015 l -1.768,0.442 c -0.065,0.494 -0.065,0.923001 -0.065,1.573 l -0.663,0 0,1.196 0.663,0 0,3.614 c 0,0.611 0.013,0.741001 0.117,1.027 0.208,0.585 0.91,0.975 1.794,0.975 0.455,0 0.91,-0.091 1.417,-0.299"
               style="font-size:13px;font-weight:bold;font-family:MetaPro;-inkscape-font-specification:MetaPro Bold"
               id="path3236" />
          </g>
          <g
             transform="translate(527.62073,929.61794)"
             style="font-size:40px;font-style:normal;font-variant:normal;font-weight:normal;font-stretch:normal;line-height:125%;letter-spacing:0px;word-spacing:0px;fill:#000000;fill-opacity:1;stroke:none;font-family:MetaPro;-inkscape-font-specification:MetaPro"
             id="flowRoot6375-8-0-15">
            <path
               d="m 102.3515,35.244235 c -0.117,-0.259999 -0.247,-0.793001 -0.247,-2.431 l 0,-6.916 -1.729,-0.273 0,2.288 c 0,0.39 0.026,0.845001 0.052,0.988 -0.325,-0.259999 -0.702,-0.377 -1.183,-0.377 -1.689998,0 -2.847,1.430003 -2.847,3.51 0,2.066998 1.066002,3.38 2.756,3.38 0.597999,0 1.105,-0.182 1.534,-0.559 0.026,0.182 0.052,0.286001 0.104,0.39 l 1.56,0 m -1.95,-1.729 c -0.169,0.208 -0.533,0.429 -0.858,0.429 -0.909999,0 -1.209,-0.468001 -1.209,-1.898 0,-1.481998 0.338001,-2.132 1.118,-2.132 0.312,0 0.624,0.143001 0.949,0.429 l 0,3.172"
               style="font-size:13px;font-weight:bold;font-family:MetaPro;-inkscape-font-specification:MetaPro Bold"
               id="path3239" />
            <path
               d="m 109.39222,32.462235 0,-0.403 c 0,-1.390998 -0.273,-2.288 -0.884,-2.912 -0.429,-0.441999 -1.157,-0.702 -1.924,-0.702 -0.884,0 -1.547,0.286001 -2.093,0.897 -0.585,0.65 -0.832,1.443002 -0.832,2.639 0,2.092998 1.235,3.445 3.146,3.445 0.936,0 1.742,-0.299 2.509,-0.923 l -0.676,-1.04 c -0.533,0.442 -1.092,0.663 -1.69,0.663 -0.897,0 -1.404,-0.585001 -1.404,-1.612 l 0,-0.052 3.848,0 m -1.807,-1.274 -2.015,0 0,-0.026 c 0,-0.922999 0.377,-1.443 1.04,-1.443 0.351,0 0.598,0.130001 0.767,0.39 0.156,0.247 0.208,0.507001 0.208,1.001 l 0,0.078"
               style="font-size:13px;font-weight:bold;font-family:MetaPro;-inkscape-font-specification:MetaPro Bold"
               id="path3241" />
            <path
               d="m 115.62917,33.138235 c 0,-0.441999 -0.117,-0.819 -0.364,-1.131 -0.234,-0.298999 -0.507,-0.546 -1.326,-0.754 l -0.806,-0.208 c -0.611,-0.155999 -0.832,-0.338 -0.832,-0.676 0,-0.389999 0.338,-0.65 0.845,-0.65 0.494,0 0.975,0.143001 1.638,0.481 l 0.572,-1.17 c -0.611,-0.298999 -1.313,-0.624 -2.379,-0.624 -1.547,0 -2.574,0.871002 -2.574,2.171 0,0.429 0.143,0.910001 0.377,1.196 0.234,0.286 0.78,0.598001 1.222,0.676 l 0.78,0.143 c 0.702,0.13 1.027,0.364001 1.027,0.819 0,0.429 -0.39,0.754 -0.884,0.754 -0.754,0 -1.677,-0.429 -2.21,-0.754 l -0.624,1.274 c 0.975,0.507 1.872,0.767 2.691,0.767 1.703,0 2.847,-0.936001 2.847,-2.314"
               style="font-size:13px;font-weight:bold;font-family:MetaPro;-inkscape-font-specification:MetaPro Bold"
               id="path3243" />
            <path
               d="m 121.71805,34.490235 -0.793,-1.053 -0.104,0.091 c -0.429,0.377 -0.793,0.546 -1.196,0.546 -0.299,0 -0.598,-0.143 -0.78,-0.377 -0.221,-0.285999 -0.338,-0.806 -0.338,-1.677 0,-1.559998 0.351,-2.236 1.131,-2.236 0.325,0 0.702,0.195001 1.053,0.52 l 0.845,-1.144 c -0.286,-0.246999 -0.403,-0.338 -0.65,-0.468 -0.364,-0.194999 -0.845,-0.299 -1.287,-0.299 -0.559,0 -1.209,0.195001 -1.651,0.494 -0.78,0.533 -1.365,1.547002 -1.365,3.081 0,2.157998 1.066,3.432 2.899,3.432 0.637,0 1.157,-0.143 1.625,-0.416 0.234,-0.142999 0.351,-0.234 0.611,-0.494"
               style="font-size:13px;font-weight:bold;font-family:MetaPro;-inkscape-font-specification:MetaPro Bold"
               id="path3245" />
            <path
               d="m 128.10511,32.462235 0,-0.403 c 0,-1.390998 -0.273,-2.288 -0.884,-2.912 -0.429,-0.441999 -1.157,-0.702 -1.924,-0.702 -0.884,0 -1.547,0.286001 -2.093,0.897 -0.585,0.65 -0.832,1.443002 -0.832,2.639 0,2.092998 1.235,3.445 3.146,3.445 0.936,0 1.742,-0.299 2.509,-0.923 l -0.676,-1.04 c -0.533,0.442 -1.092,0.663 -1.69,0.663 -0.897,0 -1.404,-0.585001 -1.404,-1.612 l 0,-0.052 3.848,0 m -1.807,-1.274 -2.015,0 0,-0.026 c 0,-0.922999 0.377,-1.443 1.04,-1.443 0.351,0 0.598,0.130001 0.767,0.39 0.156,0.247 0.208,0.507001 0.208,1.001 l 0,0.078"
               style="font-size:13px;font-weight:bold;font-family:MetaPro;-inkscape-font-specification:MetaPro Bold"
               id="path3247" />
            <path
               d="m 134.71723,35.244235 0,-4.862 c 0,-0.415999 -0.039,-0.702 -0.13,-0.949 -0.208,-0.571999 -0.858,-0.962 -1.599,-0.962 -0.39,0 -0.845,0.104001 -1.196,0.286 -0.286,0.156 -0.507,0.312001 -0.767,0.494 0,-0.272999 -0.091,-0.559 -0.247,-0.832 l -1.547,0.442 c 0.156,0.442 0.234,0.988001 0.234,1.56 l 0,4.823 1.742,0 0,-4.706 c 0.403,-0.363999 0.858,-0.598 1.209,-0.598 0.455,0 0.585,0.221001 0.585,0.975 l 0,4.329 1.716,0"
               style="font-size:13px;font-weight:bold;font-family:MetaPro;-inkscape-font-specification:MetaPro Bold"
               id="path3249" />
            <path
               d="m 140.00417,35.101235 -0.221,-1.04 c -0.312,0.091 -0.468,0.13 -0.624,0.13 -0.598,0 -0.754,-0.221 -0.754,-1.066 l 0,-3.341 1.118,0 0.442,-1.196 -1.56,0 c 0,-0.675999 0.039,-1.404 0.104,-2.015 l -1.768,0.442 c -0.065,0.494 -0.065,0.923001 -0.065,1.573 l -0.663,0 0,1.196 0.663,0 0,3.614 c 0,0.611 0.013,0.741001 0.117,1.027 0.208,0.585 0.91,0.975 1.794,0.975 0.455,0 0.91,-0.091 1.417,-0.299"
               style="font-size:13px;font-weight:bold;font-family:MetaPro;-inkscape-font-specification:MetaPro Bold"
               id="path3251" />
          </g>
        </g>
      </g>
    </g>
  </g>
</svg>
